%
M48
M72
T01C0.0240
T02C0.0320
T03C0.0360
T04C0.0400
T05C0.1260
T06C0.1300
%
T01
X9220Y3280
X10210Y3280
X10930Y2920
X10210Y4135
X10525Y5755
X15745Y8995
X17455Y8995
X20020Y10255
X21865Y8995
X24070Y7780
X25645Y8140
X26185Y7105
X26365Y4630
X25465Y4360
X23575Y3460
X22180Y3820
X24925Y9625
X25645Y9850
X24610Y10525
X26320Y11650
X25510Y12415
X23395Y12550
X22945Y12190
X22405Y12640
X24025Y14260
X23215Y14530
X22450Y14890
X24385Y16195
X25870Y16195
X26095Y16915
X25735Y17545
X29110Y17815
X29740Y17995
X29515Y17455
X29515Y15205
X32395Y14665
X33205Y14080
X33790Y15205
X32980Y15835
X33925Y18085
X30595Y20515
X35050Y22540
X33700Y23890
X32845Y24250
X32485Y24610
X24430Y22315
X22855Y24610
X12235Y23440
X15925Y15250
X15745Y14080
X17455Y13990
X17860Y13675
X12595Y11920
X9535Y13405
X8320Y13675
X7600Y14305
X7645Y14800
X8140Y14800
X9175Y14260
X10075Y9670
X25150Y14395
X26320Y14665
X28030Y12775
X31900Y7735
X32935Y7735
X36895Y7600
X37930Y6880
X38155Y8365
X37795Y8995
X37435Y11200
T02
X31984Y8901
X30984Y8901
X27005Y9047
X27005Y10047
X27005Y11047
X27005Y12047
X27005Y13047
X27005Y14047
X27005Y15047
X27005Y16047
X27005Y17047
X27005Y18047
X27005Y19047
X27005Y20047
X27005Y21047
X27005Y22047
X27005Y23047
X21005Y23047
X21005Y22047
X21005Y21047
X21005Y20047
X21005Y19047
X21005Y18047
X21005Y17047
X21005Y16047
X21005Y15047
X21005Y14047
X21005Y13047
X21005Y12047
X21005Y11047
X21005Y10047
X21005Y9047
X21005Y8047
X21005Y7047
X21005Y6047
X21005Y5047
X21005Y4047
X17919Y4598
X16919Y4598
X11582Y5047
X11582Y4047
X11582Y6047
X11582Y7047
X11582Y8047
X11582Y9047
X11582Y10047
X11582Y11047
X11582Y12047
X11582Y13047
X11590Y14342
X10590Y14342
X8582Y13047
X8582Y12047
X8582Y11047
X8582Y10047
X8582Y9047
X8582Y8047
X8582Y7047
X8582Y6047
X8582Y5047
X8582Y4047
X5972Y4051
X5972Y5051
X5972Y6051
X5972Y7051
X5972Y8051
X5972Y9051
X5972Y10051
X5960Y11326
X4960Y11326
X2972Y10051
X2972Y9051
X2972Y8051
X2972Y7051
X2972Y6051
X2972Y5051
X2972Y4051
X4574Y16755
X5574Y16755
X6574Y16755
X7574Y16755
X8574Y16755
X9574Y16755
X10574Y16755
X11574Y16755
X10633Y19429
X9633Y19429
X8633Y19429
X7633Y19429
X6633Y19429
X5633Y19429
X5633Y22429
X6633Y22429
X7633Y22429
X8633Y22429
X9633Y22429
X10633Y22429
X24005Y12015
X24005Y11015
X27005Y8047
X27005Y7047
X27005Y6047
X27005Y5047
X27005Y4047
T03
X30996Y11102
X30996Y12102
X31996Y12102
X31996Y11102
X31996Y13102
X30996Y13102
X30996Y14102
X31996Y14102
X31996Y15102
X31996Y16102
X30996Y16102
X30996Y15102
X30996Y17102
X31996Y17102
X31996Y18102
X30996Y18102
X30996Y19102
X30996Y20102
X31996Y20102
X31996Y19102
X31996Y21102
X30996Y21102
X30996Y22102
X30996Y23102
X31996Y23102
X31996Y22102
T04
X921Y1244
X1921Y1244
X2921Y1244
X3921Y1244
X4921Y1244
X5921Y1244
X6921Y1244
X7921Y1244
X8921Y1244
X9921Y1244
X10921Y1244
X11921Y1244
X12921Y1244
X13921Y1244
X14921Y1244
X15921Y1244
X16921Y1244
X17921Y1244
X18921Y1244
X19921Y1244
X20921Y1244
X21921Y1244
X22921Y1244
X23921Y1244
X24921Y1244
X25921Y1244
X26921Y1244
X27921Y1244
X28921Y1244
X29921Y1244
X30921Y1244
X31921Y1244
X32921Y1244
X33921Y1244
X34921Y1244
X35921Y1244
X36921Y1244
X37921Y1244
X38921Y1244
X39921Y1244
X31886Y5437
X30886Y5437
X35645Y8208
X36645Y8748
X35645Y9298
X36645Y9838
X35645Y10378
X36645Y10928
X35645Y11468
X36645Y12008
X35645Y12558
X36645Y13098
X35645Y13638
X36645Y14188
X35645Y14728
X36645Y15268
X35645Y15818
X36645Y16358
X35645Y16898
X36645Y17448
X35645Y17988
X36645Y18528
X35645Y19078
X36645Y19618
X35645Y20158
X36645Y20708
X35645Y21248
T05
X2189Y19118
X2189Y16755
X2189Y14393
X2189Y12031
T06
X36145Y5468
X36145Y23988
M30
