%
M48
M72
T01C0.0240
T02C0.0320
T03C0.0360
T04C0.0400
T05C0.1260
T06C0.1300
%
T01
X7735Y2380
X8095Y2740
X9940Y3820
X16105Y8140
X16105Y8995
X16825Y8995
X17320Y8995
X16870Y9715
X19075Y10165
X19120Y9625
X21415Y8095
X22135Y8095
X22720Y8500
X23800Y8275
X24880Y7195
X26320Y6520
X26815Y6520
X26455Y8275
X26005Y8500
X27850Y9850
X28660Y8455
X30910Y7600
X32530Y8455
X34195Y10120
X35320Y6655
X33115Y5260
X32800Y3640
X31405Y3505
X27895Y2380
X26995Y3685
X25870Y2560
X23305Y5125
X21235Y6520
X19075Y5170
X18895Y4450
X21145Y2965
X12955Y8995
X13405Y10255
X13045Y10705
X13045Y11200
X15880Y12640
X16510Y12010
X17680Y13180
X18805Y14215
X18445Y15070
X18265Y15925
X18760Y15925
X18895Y17545
X16240Y17995
X17545Y19300
X19075Y20830
X18580Y21325
X21820Y17995
X23350Y17185
X22990Y16825
X23485Y16330
X24205Y16330
X25240Y18580
X25735Y18535
X26545Y20470
X29515Y19705
X29875Y20335
X31495Y21955
X34960Y22540
X38155Y18760
X33115Y16645
X32170Y16015
X33115Y15340
X33745Y14980
X29830Y15520
X29335Y15025
X28840Y15025
X29830Y16510
X30055Y17005
X29515Y18085
X31135Y18085
X32170Y17860
X24205Y13180
X23485Y13045
X23080Y13720
X21550Y12190
X22045Y11695
X22540Y11560
X21595Y11245
X23125Y9985
X21955Y9310
X24295Y11785
X25510Y11785
X25510Y12280
X19075Y11965
X16285Y15205
X12370Y14170
X9850Y14755
X9175Y14260
X8320Y13675
X7600Y14305
X7645Y14800
X8140Y14800
X9535Y13405
X4180Y18130
X12325Y22045
X13585Y19030
X5710Y23800
X27040Y24295
X27535Y24295
X27310Y23845
T02
X20405Y23047
X20405Y22047
X20405Y21047
X20405Y20047
X20405Y19047
X20405Y18047
X20405Y17047
X20405Y16047
X20405Y15047
X20405Y14047
X20405Y13047
X20405Y12047
X20405Y11047
X20405Y10047
X20405Y9047
X20405Y8047
X20405Y7047
X20405Y6047
X20405Y5047
X20405Y4047
X14405Y4047
X14405Y5047
X14405Y6047
X14405Y7047
X14405Y8047
X14405Y9047
X14405Y10047
X14405Y11047
X14405Y12047
X14405Y13047
X14405Y14047
X14405Y15047
X14405Y16047
X14405Y17047
X14405Y18047
X14405Y19047
X14405Y20047
X14405Y21047
X14405Y22047
X14405Y23047
X10633Y22429
X9633Y22429
X8633Y22429
X7633Y22429
X6633Y22429
X5633Y22429
X5633Y19429
X6633Y19429
X7633Y19429
X8633Y19429
X9633Y19429
X10633Y19429
X10574Y16755
X9574Y16755
X8574Y16755
X7574Y16755
X6574Y16755
X5574Y16755
X4574Y16755
X8582Y13047
X8582Y12047
X8582Y11047
X8582Y10047
X8582Y9047
X8582Y8047
X8582Y7047
X8582Y6047
X8582Y5047
X8582Y4047
X5972Y4051
X5972Y5051
X5972Y6051
X5972Y7051
X5972Y8051
X5972Y9051
X5972Y10051
X5960Y11326
X4960Y11326
X2972Y10051
X2972Y9051
X2972Y8051
X2972Y7051
X2972Y6051
X2972Y5051
X2972Y4051
X11582Y4047
X11582Y5047
X11582Y6047
X11582Y7047
X11582Y8047
X11582Y9047
X11582Y10047
X11582Y11047
X11582Y12047
X11582Y13047
X11590Y14342
X10590Y14342
X11574Y16755
X17405Y12015
X17405Y11015
X26964Y8901
X27964Y8901
X31059Y5318
X32059Y5318
T03
X27976Y11102
X26976Y11102
X26976Y12102
X27976Y12102
X27976Y13102
X26976Y13102
X26976Y14102
X27976Y14102
X27976Y15102
X26976Y15102
X26976Y16102
X27976Y16102
X27976Y17102
X26976Y17102
X26976Y18102
X27976Y18102
X27976Y19102
X26976Y19102
X26976Y20102
X27976Y20102
X27976Y21102
X26976Y21102
X26976Y22102
X27976Y22102
X27976Y23102
X26976Y23102
T04
X921Y1244
X1921Y1244
X2921Y1244
X3921Y1244
X4921Y1244
X5921Y1244
X6921Y1244
X7921Y1244
X8921Y1244
X9921Y1244
X10921Y1244
X11921Y1244
X12921Y1244
X13921Y1244
X14921Y1244
X15921Y1244
X16921Y1244
X17921Y1244
X18921Y1244
X19921Y1244
X20921Y1244
X21921Y1244
X22921Y1244
X23921Y1244
X24921Y1244
X25921Y1244
X26921Y1244
X27921Y1244
X28921Y1244
X29921Y1244
X30921Y1244
X31921Y1244
X32921Y1244
X33921Y1244
X34921Y1244
X35921Y1244
X36921Y1244
X37921Y1244
X38921Y1244
X39921Y1244
X35645Y8208
X36645Y8748
X35645Y9298
X36645Y9838
X35645Y10378
X36645Y10928
X35645Y11468
X36645Y12008
X35645Y12558
X36645Y13098
X35645Y13638
X36645Y14188
X35645Y14728
X36645Y15268
X35645Y15818
X36645Y16358
X35645Y16898
X36645Y17448
X35645Y17988
X36645Y18528
X35645Y19078
X36645Y19618
X35645Y20158
X36645Y20708
X35645Y21248
X27866Y5437
X26866Y5437
T05
X2189Y12031
X2189Y14393
X2189Y16755
X2189Y19118
T06
X36145Y23988
X36145Y5468
M30
