G75*
%MOIN*%
%OFA0B0*%
%FSLAX25Y25*%
%IPPOS*%
%LPD*%
%AMOC8*
5,1,8,0,0,1.08239X$1,22.5*
%
%ADD10OC8,0.06300*%
%ADD11C,0.06000*%
%ADD12C,0.05200*%
%ADD13C,0.06000*%
%ADD14OC8,0.05600*%
%ADD15C,0.06300*%
%ADD16OC8,0.06000*%
%ADD17C,0.02400*%
%ADD18C,0.16598*%
%ADD19C,0.01000*%
%ADD20C,0.04000*%
D10*
X0174050Y0110153D03*
X0174050Y0120153D03*
X0115901Y0143420D03*
X0105901Y0143420D03*
X0059602Y0113263D03*
X0049602Y0113263D03*
X0269641Y0089011D03*
X0279641Y0089011D03*
X0310586Y0053184D03*
D11*
X0309208Y0012436D03*
X0319208Y0012436D03*
X0329208Y0012436D03*
X0339208Y0012436D03*
X0349208Y0012436D03*
X0359208Y0012436D03*
X0369208Y0012436D03*
X0379208Y0012436D03*
X0389208Y0012436D03*
X0399208Y0012436D03*
X0299208Y0012436D03*
X0289208Y0012436D03*
X0279208Y0012436D03*
X0269208Y0012436D03*
X0259208Y0012436D03*
X0249208Y0012436D03*
X0239208Y0012436D03*
X0229208Y0012436D03*
X0219208Y0012436D03*
X0209208Y0012436D03*
X0199208Y0012436D03*
X0189208Y0012436D03*
X0179208Y0012436D03*
X0169208Y0012436D03*
X0159208Y0012436D03*
X0149208Y0012436D03*
X0139208Y0012436D03*
X0129208Y0012436D03*
X0119208Y0012436D03*
X0109208Y0012436D03*
X0099208Y0012436D03*
X0089208Y0012436D03*
X0079208Y0012436D03*
X0069208Y0012436D03*
X0059208Y0012436D03*
X0049208Y0012436D03*
X0039208Y0012436D03*
X0029208Y0012436D03*
X0019208Y0012436D03*
X0009208Y0012436D03*
D12*
X0027120Y0040507D02*
X0032320Y0040507D01*
X0032320Y0050507D02*
X0027120Y0050507D01*
X0027120Y0060507D02*
X0032320Y0060507D01*
X0032320Y0070507D02*
X0027120Y0070507D01*
X0027120Y0080507D02*
X0032320Y0080507D01*
X0032320Y0090507D02*
X0027120Y0090507D01*
X0027120Y0100507D02*
X0032320Y0100507D01*
X0057120Y0100507D02*
X0062320Y0100507D01*
X0062320Y0090507D02*
X0057120Y0090507D01*
X0057120Y0080507D02*
X0062320Y0080507D01*
X0062320Y0070507D02*
X0057120Y0070507D01*
X0057120Y0060507D02*
X0062320Y0060507D01*
X0062320Y0050507D02*
X0057120Y0050507D01*
X0057120Y0040507D02*
X0062320Y0040507D01*
X0083222Y0040468D02*
X0088422Y0040468D01*
X0088422Y0050468D02*
X0083222Y0050468D01*
X0083222Y0060468D02*
X0088422Y0060468D01*
X0088422Y0070468D02*
X0083222Y0070468D01*
X0083222Y0080468D02*
X0088422Y0080468D01*
X0088422Y0090468D02*
X0083222Y0090468D01*
X0083222Y0100468D02*
X0088422Y0100468D01*
X0088422Y0110468D02*
X0083222Y0110468D01*
X0083222Y0120468D02*
X0088422Y0120468D01*
X0088422Y0130468D02*
X0083222Y0130468D01*
X0113222Y0130468D02*
X0118422Y0130468D01*
X0118422Y0120468D02*
X0113222Y0120468D01*
X0113222Y0110468D02*
X0118422Y0110468D01*
X0118422Y0100468D02*
X0113222Y0100468D01*
X0113222Y0090468D02*
X0118422Y0090468D01*
X0118422Y0080468D02*
X0113222Y0080468D01*
X0113222Y0070468D02*
X0118422Y0070468D01*
X0118422Y0060468D02*
X0113222Y0060468D01*
X0113222Y0050468D02*
X0118422Y0050468D01*
X0118422Y0040468D02*
X0113222Y0040468D01*
X0141450Y0040468D02*
X0146650Y0040468D01*
X0146650Y0050468D02*
X0141450Y0050468D01*
X0141450Y0060468D02*
X0146650Y0060468D01*
X0146650Y0070468D02*
X0141450Y0070468D01*
X0141450Y0080468D02*
X0146650Y0080468D01*
X0146650Y0090468D02*
X0141450Y0090468D01*
X0141450Y0100468D02*
X0146650Y0100468D01*
X0146650Y0110468D02*
X0141450Y0110468D01*
X0141450Y0120468D02*
X0146650Y0120468D01*
X0146650Y0130468D02*
X0141450Y0130468D01*
X0141450Y0140468D02*
X0146650Y0140468D01*
X0146650Y0150468D02*
X0141450Y0150468D01*
X0141450Y0160468D02*
X0146650Y0160468D01*
X0146650Y0170468D02*
X0141450Y0170468D01*
X0141450Y0180468D02*
X0146650Y0180468D01*
X0146650Y0190468D02*
X0141450Y0190468D01*
X0141450Y0200468D02*
X0146650Y0200468D01*
X0146650Y0210468D02*
X0141450Y0210468D01*
X0141450Y0220468D02*
X0146650Y0220468D01*
X0146650Y0230468D02*
X0141450Y0230468D01*
X0106334Y0226887D02*
X0106334Y0221687D01*
X0096334Y0221687D02*
X0096334Y0226887D01*
X0086334Y0226887D02*
X0086334Y0221687D01*
X0076334Y0221687D02*
X0076334Y0226887D01*
X0066334Y0226887D02*
X0066334Y0221687D01*
X0056334Y0221687D02*
X0056334Y0226887D01*
X0056334Y0196887D02*
X0056334Y0191687D01*
X0066334Y0191687D02*
X0066334Y0196887D01*
X0076334Y0196887D02*
X0076334Y0191687D01*
X0086334Y0191687D02*
X0086334Y0196887D01*
X0096334Y0196887D02*
X0096334Y0191687D01*
X0106334Y0191687D02*
X0106334Y0196887D01*
X0105743Y0170154D02*
X0105743Y0164954D01*
X0095743Y0164954D02*
X0095743Y0170154D01*
X0085743Y0170154D02*
X0085743Y0164954D01*
X0075743Y0164954D02*
X0075743Y0170154D01*
X0065743Y0170154D02*
X0065743Y0164954D01*
X0055743Y0164954D02*
X0055743Y0170154D01*
X0045743Y0170154D02*
X0045743Y0164954D01*
X0115743Y0164954D02*
X0115743Y0170154D01*
X0201450Y0170468D02*
X0206650Y0170468D01*
X0206650Y0180468D02*
X0201450Y0180468D01*
X0201450Y0190468D02*
X0206650Y0190468D01*
X0206650Y0200468D02*
X0201450Y0200468D01*
X0201450Y0210468D02*
X0206650Y0210468D01*
X0206650Y0220468D02*
X0201450Y0220468D01*
X0201450Y0230468D02*
X0206650Y0230468D01*
X0206650Y0160468D02*
X0201450Y0160468D01*
X0201450Y0150468D02*
X0206650Y0150468D01*
X0206650Y0140468D02*
X0201450Y0140468D01*
X0201450Y0130468D02*
X0206650Y0130468D01*
X0206650Y0120468D02*
X0201450Y0120468D01*
X0201450Y0110468D02*
X0206650Y0110468D01*
X0206650Y0100468D02*
X0201450Y0100468D01*
X0201450Y0090468D02*
X0206650Y0090468D01*
X0206650Y0080468D02*
X0201450Y0080468D01*
X0201450Y0070468D02*
X0206650Y0070468D01*
X0206650Y0060468D02*
X0201450Y0060468D01*
X0201450Y0050468D02*
X0206650Y0050468D01*
X0206650Y0040468D02*
X0201450Y0040468D01*
D13*
X0268657Y0051365D02*
X0268657Y0057365D01*
X0278657Y0057365D02*
X0278657Y0051365D01*
D14*
X0279759Y0111019D03*
X0269759Y0111019D03*
X0269759Y0121019D03*
X0279759Y0121019D03*
X0279759Y0131019D03*
X0269759Y0131019D03*
X0269759Y0141019D03*
X0279759Y0141019D03*
X0279759Y0151019D03*
X0269759Y0151019D03*
X0269759Y0161019D03*
X0279759Y0161019D03*
X0279759Y0171019D03*
X0269759Y0171019D03*
X0269759Y0181019D03*
X0279759Y0181019D03*
X0279759Y0191019D03*
X0269759Y0191019D03*
X0269759Y0201019D03*
X0279759Y0201019D03*
X0279759Y0211019D03*
X0269759Y0211019D03*
X0269759Y0221019D03*
X0279759Y0221019D03*
X0279759Y0231019D03*
X0269759Y0231019D03*
D15*
X0320586Y0053184D03*
D16*
X0356452Y0082079D03*
X0366452Y0087479D03*
X0356452Y0092979D03*
X0366452Y0098379D03*
X0356452Y0103779D03*
X0366452Y0109279D03*
X0356452Y0114679D03*
X0366452Y0120079D03*
X0356452Y0125579D03*
X0366452Y0130979D03*
X0356452Y0136379D03*
X0366452Y0141879D03*
X0356452Y0147279D03*
X0366452Y0152679D03*
X0356452Y0158179D03*
X0366452Y0163579D03*
X0356452Y0168979D03*
X0366452Y0174479D03*
X0356452Y0179879D03*
X0366452Y0185279D03*
X0356452Y0190779D03*
X0366452Y0196179D03*
X0356452Y0201579D03*
X0366452Y0207079D03*
X0356452Y0212479D03*
D17*
X0007400Y0007773D02*
X0007400Y0007400D01*
X0387880Y0007400D01*
X0387212Y0007617D01*
X0386482Y0007989D01*
X0385820Y0008470D01*
X0385242Y0009049D01*
X0384760Y0009711D01*
X0384389Y0010440D01*
X0384136Y0011219D01*
X0384130Y0011254D01*
X0383447Y0009604D01*
X0382040Y0008197D01*
X0380202Y0007436D01*
X0378213Y0007436D01*
X0376376Y0008197D01*
X0374969Y0009604D01*
X0374208Y0011442D01*
X0374208Y0013431D01*
X0374969Y0015268D01*
X0376376Y0016675D01*
X0378213Y0017436D01*
X0380202Y0017436D01*
X0382040Y0016675D01*
X0383447Y0015268D01*
X0384130Y0013618D01*
X0384136Y0013654D01*
X0384389Y0014432D01*
X0384760Y0015162D01*
X0385242Y0015824D01*
X0385820Y0016403D01*
X0386482Y0016884D01*
X0387212Y0017255D01*
X0387990Y0017508D01*
X0388799Y0017636D01*
X0389208Y0017636D01*
X0389208Y0012436D01*
X0389208Y0064723D01*
X0366452Y0087479D01*
X0366452Y0087479D01*
X0366452Y0092679D01*
X0364298Y0092679D01*
X0361252Y0089633D01*
X0361252Y0087479D01*
X0366452Y0087479D01*
X0366452Y0092679D01*
X0368606Y0092679D01*
X0371652Y0089633D01*
X0371652Y0087479D01*
X0366452Y0087479D01*
X0366452Y0087479D01*
X0366452Y0081652D01*
X0355600Y0070800D01*
X0328202Y0070800D01*
X0310586Y0053184D01*
X0310586Y0047834D01*
X0312802Y0047834D01*
X0315931Y0050964D01*
X0316220Y0050267D01*
X0317669Y0048818D01*
X0319561Y0048034D01*
X0321610Y0048034D01*
X0323503Y0048818D01*
X0324952Y0050267D01*
X0325736Y0052160D01*
X0325736Y0054209D01*
X0324952Y0056101D01*
X0323503Y0057550D01*
X0321610Y0058334D01*
X0319561Y0058334D01*
X0317669Y0057550D01*
X0316220Y0056101D01*
X0315931Y0055405D01*
X0312802Y0058534D01*
X0310586Y0058534D01*
X0310586Y0053184D01*
X0310586Y0053184D01*
X0310586Y0047834D01*
X0308370Y0047834D01*
X0305236Y0050968D01*
X0305236Y0053184D01*
X0310586Y0053184D01*
X0310586Y0053184D01*
X0310586Y0053184D01*
X0305236Y0053184D01*
X0305236Y0055400D01*
X0308370Y0058534D01*
X0310586Y0058534D01*
X0310586Y0053184D01*
X0310586Y0052569D02*
X0310586Y0052569D01*
X0310586Y0054967D02*
X0310586Y0054967D01*
X0310586Y0057366D02*
X0310586Y0057366D01*
X0313970Y0057366D02*
X0317484Y0057366D01*
X0323688Y0057366D02*
X0340480Y0057366D01*
X0338082Y0054967D02*
X0334440Y0054967D01*
X0334541Y0054866D02*
X0333416Y0055991D01*
X0331946Y0056600D01*
X0330354Y0056600D01*
X0328884Y0055991D01*
X0327759Y0054866D01*
X0327150Y0053396D01*
X0327150Y0052136D01*
X0316164Y0041150D01*
X0312203Y0041150D01*
X0311284Y0040769D01*
X0301384Y0030869D01*
X0300681Y0030166D01*
X0300300Y0029247D01*
X0300300Y0019436D01*
X0298301Y0017436D01*
X0298213Y0017436D01*
X0296376Y0016675D01*
X0294969Y0015268D01*
X0294208Y0013431D01*
X0294208Y0011442D01*
X0294969Y0009604D01*
X0296376Y0008197D01*
X0298213Y0007436D01*
X0300202Y0007436D01*
X0302040Y0008197D01*
X0303447Y0009604D01*
X0304208Y0011442D01*
X0304969Y0009604D01*
X0306376Y0008197D01*
X0308213Y0007436D01*
X0310202Y0007436D01*
X0312040Y0008197D01*
X0313447Y0009604D01*
X0314208Y0011442D01*
X0314969Y0009604D01*
X0316376Y0008197D01*
X0318213Y0007436D01*
X0320202Y0007436D01*
X0322040Y0008197D01*
X0323447Y0009604D01*
X0324208Y0011442D01*
X0324969Y0009604D01*
X0326376Y0008197D01*
X0328213Y0007436D01*
X0330202Y0007436D01*
X0332040Y0008197D01*
X0333447Y0009604D01*
X0334208Y0011442D01*
X0334969Y0009604D01*
X0336376Y0008197D01*
X0338213Y0007436D01*
X0340202Y0007436D01*
X0342040Y0008197D01*
X0343447Y0009604D01*
X0344208Y0011442D01*
X0344969Y0009604D01*
X0346376Y0008197D01*
X0348213Y0007436D01*
X0350202Y0007436D01*
X0352040Y0008197D01*
X0353447Y0009604D01*
X0354208Y0011442D01*
X0354969Y0009604D01*
X0356376Y0008197D01*
X0358213Y0007436D01*
X0360202Y0007436D01*
X0362040Y0008197D01*
X0363447Y0009604D01*
X0364208Y0011442D01*
X0364969Y0009604D01*
X0366376Y0008197D01*
X0368213Y0007436D01*
X0370202Y0007436D01*
X0372040Y0008197D01*
X0373447Y0009604D01*
X0374208Y0011442D01*
X0374208Y0013431D01*
X0373447Y0015268D01*
X0372040Y0016675D01*
X0370202Y0017436D01*
X0368213Y0017436D01*
X0366376Y0016675D01*
X0364969Y0015268D01*
X0364208Y0013431D01*
X0364208Y0011442D01*
X0364208Y0013431D01*
X0363447Y0015268D01*
X0362040Y0016675D01*
X0360202Y0017436D01*
X0358213Y0017436D01*
X0356376Y0016675D01*
X0354969Y0015268D01*
X0354208Y0013431D01*
X0354208Y0011442D01*
X0354208Y0013431D01*
X0353447Y0015268D01*
X0352040Y0016675D01*
X0350202Y0017436D01*
X0348213Y0017436D01*
X0346376Y0016675D01*
X0344969Y0015268D01*
X0344208Y0013431D01*
X0344208Y0011442D01*
X0344208Y0013431D01*
X0343447Y0015268D01*
X0342040Y0016675D01*
X0340202Y0017436D01*
X0338213Y0017436D01*
X0336376Y0016675D01*
X0334969Y0015268D01*
X0334208Y0013431D01*
X0334208Y0011442D01*
X0334208Y0013431D01*
X0333447Y0015268D01*
X0332040Y0016675D01*
X0330202Y0017436D01*
X0328213Y0017436D01*
X0326376Y0016675D01*
X0324969Y0015268D01*
X0324208Y0013431D01*
X0324208Y0011442D01*
X0324208Y0013431D01*
X0323447Y0015268D01*
X0323230Y0015485D01*
X0323238Y0015502D01*
X0330119Y0022384D01*
X0330500Y0023303D01*
X0330500Y0033243D01*
X0331391Y0034134D01*
X0332000Y0035604D01*
X0332000Y0037196D01*
X0331391Y0038666D01*
X0330266Y0039791D01*
X0330061Y0039876D01*
X0352736Y0062550D01*
X0352777Y0062550D01*
X0352090Y0061863D01*
X0350549Y0059195D01*
X0349752Y0056219D01*
X0349752Y0053138D01*
X0350549Y0050163D01*
X0352090Y0047495D01*
X0354268Y0045316D01*
X0356936Y0043776D01*
X0359912Y0042979D01*
X0362992Y0042979D01*
X0365968Y0043776D01*
X0368636Y0045316D01*
X0370814Y0047495D01*
X0372355Y0050163D01*
X0373152Y0053138D01*
X0373152Y0056219D01*
X0372355Y0059195D01*
X0370814Y0061863D01*
X0368636Y0064041D01*
X0365968Y0065581D01*
X0362992Y0066379D01*
X0359912Y0066379D01*
X0357152Y0065639D01*
X0357200Y0065754D01*
X0357200Y0067346D01*
X0356591Y0068816D01*
X0355466Y0069941D01*
X0353996Y0070550D01*
X0352404Y0070550D01*
X0350934Y0069941D01*
X0349809Y0068816D01*
X0349200Y0067346D01*
X0349200Y0066086D01*
X0335150Y0052036D01*
X0335150Y0053396D01*
X0334541Y0054866D01*
X0335150Y0052569D02*
X0335683Y0052569D01*
X0340356Y0050170D02*
X0350547Y0050170D01*
X0349905Y0052569D02*
X0342754Y0052569D01*
X0345153Y0054967D02*
X0349752Y0054967D01*
X0350059Y0057366D02*
X0347551Y0057366D01*
X0349950Y0059764D02*
X0350878Y0059764D01*
X0352348Y0062163D02*
X0352390Y0062163D01*
X0347676Y0064561D02*
X0306147Y0064561D01*
X0303748Y0062163D02*
X0345277Y0062163D01*
X0342879Y0059764D02*
X0301350Y0059764D01*
X0298951Y0057366D02*
X0307201Y0057366D01*
X0305236Y0054967D02*
X0296553Y0054967D01*
X0294154Y0052569D02*
X0305236Y0052569D01*
X0306034Y0050170D02*
X0291756Y0050170D01*
X0289357Y0047772D02*
X0322786Y0047772D01*
X0324855Y0050170D02*
X0325185Y0050170D01*
X0325736Y0052569D02*
X0327150Y0052569D01*
X0327860Y0054967D02*
X0325422Y0054967D01*
X0316317Y0050170D02*
X0315138Y0050170D01*
X0310586Y0050170D02*
X0310586Y0050170D01*
X0317989Y0042975D02*
X0284560Y0042975D01*
X0286959Y0045373D02*
X0320388Y0045373D01*
X0311091Y0040576D02*
X0282162Y0040576D01*
X0279763Y0038178D02*
X0308692Y0038178D01*
X0306294Y0035779D02*
X0277365Y0035779D01*
X0274966Y0033381D02*
X0303895Y0033381D01*
X0301497Y0030982D02*
X0272568Y0030982D01*
X0270169Y0028584D02*
X0300300Y0028584D01*
X0300300Y0026185D02*
X0282222Y0026185D01*
X0282341Y0026066D02*
X0281216Y0027191D01*
X0279746Y0027800D01*
X0278154Y0027800D01*
X0276684Y0027191D01*
X0275559Y0026066D01*
X0274950Y0024596D01*
X0274950Y0023004D01*
X0275559Y0021534D01*
X0276684Y0020409D01*
X0278154Y0019800D01*
X0279414Y0019800D01*
X0284669Y0014545D01*
X0284208Y0013431D01*
X0284208Y0011442D01*
X0284969Y0009604D01*
X0286376Y0008197D01*
X0288213Y0007436D01*
X0290202Y0007436D01*
X0292040Y0008197D01*
X0293447Y0009604D01*
X0294208Y0011442D01*
X0294208Y0013431D01*
X0293447Y0015268D01*
X0292040Y0016675D01*
X0290202Y0017436D01*
X0288849Y0017436D01*
X0282950Y0023336D01*
X0282950Y0024596D01*
X0282341Y0026066D01*
X0282950Y0023787D02*
X0300300Y0023787D01*
X0300300Y0021388D02*
X0284897Y0021388D01*
X0287296Y0018990D02*
X0299854Y0018990D01*
X0296292Y0016591D02*
X0292124Y0016591D01*
X0293892Y0014193D02*
X0294523Y0014193D01*
X0294208Y0011794D02*
X0294208Y0011794D01*
X0293238Y0009396D02*
X0295177Y0009396D01*
X0303238Y0009396D02*
X0305177Y0009396D01*
X0304208Y0011442D02*
X0304208Y0013431D01*
X0304208Y0011442D01*
X0304208Y0011794D02*
X0304208Y0011794D01*
X0304208Y0013431D02*
X0303447Y0015268D01*
X0303325Y0015390D01*
X0304919Y0016984D01*
X0305300Y0017903D01*
X0305300Y0027714D01*
X0310574Y0032989D01*
X0310659Y0032784D01*
X0311784Y0031659D01*
X0313254Y0031050D01*
X0314846Y0031050D01*
X0316316Y0031659D01*
X0317207Y0032550D01*
X0322197Y0032550D01*
X0323116Y0032931D01*
X0324524Y0034339D01*
X0324609Y0034134D01*
X0325500Y0033243D01*
X0325500Y0024836D01*
X0319384Y0018719D01*
X0318681Y0018016D01*
X0318440Y0017436D01*
X0318213Y0017436D01*
X0316376Y0016675D01*
X0314969Y0015268D01*
X0314208Y0013431D01*
X0314208Y0011442D01*
X0314208Y0013431D01*
X0313447Y0015268D01*
X0312040Y0016675D01*
X0310202Y0017436D01*
X0308213Y0017436D01*
X0306376Y0016675D01*
X0304969Y0015268D01*
X0304208Y0013431D01*
X0303892Y0014193D02*
X0304523Y0014193D01*
X0304527Y0016591D02*
X0306292Y0016591D01*
X0305300Y0018990D02*
X0319654Y0018990D01*
X0322053Y0021388D02*
X0305300Y0021388D01*
X0305300Y0023787D02*
X0324451Y0023787D01*
X0325500Y0026185D02*
X0305300Y0026185D01*
X0306169Y0028584D02*
X0325500Y0028584D01*
X0325500Y0030982D02*
X0308568Y0030982D01*
X0323566Y0033381D02*
X0325362Y0033381D01*
X0330638Y0033381D02*
X0401409Y0033381D01*
X0401409Y0035779D02*
X0332000Y0035779D01*
X0331593Y0038178D02*
X0401409Y0038178D01*
X0401409Y0040576D02*
X0330762Y0040576D01*
X0333160Y0042975D02*
X0401409Y0042975D01*
X0401409Y0045373D02*
X0368693Y0045373D01*
X0370974Y0047772D02*
X0401409Y0047772D01*
X0401409Y0050170D02*
X0372357Y0050170D01*
X0372999Y0052569D02*
X0401409Y0052569D01*
X0401409Y0054967D02*
X0373152Y0054967D01*
X0372845Y0057366D02*
X0401409Y0057366D01*
X0401409Y0059764D02*
X0372026Y0059764D01*
X0370514Y0062163D02*
X0401409Y0062163D01*
X0401409Y0064561D02*
X0367735Y0064561D01*
X0357200Y0066960D02*
X0401409Y0066960D01*
X0401409Y0069358D02*
X0356049Y0069358D01*
X0350351Y0069358D02*
X0310944Y0069358D01*
X0311219Y0069634D02*
X0311600Y0070553D01*
X0311600Y0072843D01*
X0312491Y0073734D01*
X0313100Y0075204D01*
X0313100Y0076796D01*
X0312491Y0078266D01*
X0311366Y0079391D01*
X0311161Y0079476D01*
X0313736Y0082050D01*
X0322143Y0082050D01*
X0323034Y0081159D01*
X0324504Y0080550D01*
X0326096Y0080550D01*
X0327566Y0081159D01*
X0328691Y0082284D01*
X0329300Y0083754D01*
X0329300Y0085346D01*
X0329174Y0085650D01*
X0351447Y0085650D01*
X0352366Y0086031D01*
X0354348Y0088012D01*
X0354381Y0087979D01*
X0358523Y0087979D01*
X0361452Y0090908D01*
X0361452Y0095050D01*
X0358523Y0097979D01*
X0354381Y0097979D01*
X0351452Y0095050D01*
X0351452Y0092187D01*
X0349914Y0090650D01*
X0316936Y0090650D01*
X0321386Y0095100D01*
X0350097Y0095100D01*
X0351016Y0095481D01*
X0354348Y0098812D01*
X0354381Y0098779D01*
X0358523Y0098779D01*
X0361452Y0101708D01*
X0361452Y0105850D01*
X0358523Y0108779D01*
X0354381Y0108779D01*
X0351452Y0105850D01*
X0351452Y0102987D01*
X0348564Y0100100D01*
X0345824Y0100100D01*
X0345950Y0100404D01*
X0345950Y0101664D01*
X0354173Y0109887D01*
X0354381Y0109679D01*
X0358523Y0109679D01*
X0361452Y0112608D01*
X0361452Y0116750D01*
X0358523Y0119679D01*
X0354381Y0119679D01*
X0351452Y0116750D01*
X0351452Y0114237D01*
X0342414Y0105200D01*
X0341154Y0105200D01*
X0339684Y0104591D01*
X0338559Y0103466D01*
X0337950Y0101996D01*
X0337950Y0100404D01*
X0338076Y0100100D01*
X0319853Y0100100D01*
X0318934Y0099719D01*
X0318231Y0099016D01*
X0302664Y0083450D01*
X0290474Y0083450D01*
X0290600Y0083754D01*
X0290600Y0085346D01*
X0290000Y0086794D01*
X0290000Y0092697D01*
X0289619Y0093616D01*
X0288916Y0094319D01*
X0284416Y0098819D01*
X0283497Y0099200D01*
X0282500Y0099200D01*
X0282500Y0099296D01*
X0281891Y0100766D01*
X0280766Y0101891D01*
X0279296Y0102500D01*
X0277704Y0102500D01*
X0276234Y0101891D01*
X0275109Y0100766D01*
X0274500Y0099296D01*
X0274500Y0097704D01*
X0275109Y0096234D01*
X0276234Y0095109D01*
X0277704Y0094500D01*
X0279078Y0094500D01*
X0279803Y0094200D01*
X0281964Y0094200D01*
X0285000Y0091164D01*
X0285000Y0088217D01*
X0284791Y0088130D01*
X0284791Y0091144D01*
X0281774Y0094161D01*
X0277508Y0094161D01*
X0274782Y0091436D01*
X0271857Y0094361D01*
X0269641Y0094361D01*
X0269641Y0089011D01*
X0269641Y0111019D01*
X0269759Y0111019D01*
X0269759Y0111019D01*
X0264759Y0111019D01*
X0264759Y0113090D01*
X0266392Y0114723D01*
X0266350Y0114764D01*
X0263716Y0112131D01*
X0262797Y0111750D01*
X0241103Y0111750D01*
X0240184Y0112131D01*
X0239481Y0112834D01*
X0239214Y0113100D01*
X0228557Y0113100D01*
X0227666Y0112209D01*
X0227461Y0112124D01*
X0252086Y0087500D01*
X0256893Y0087500D01*
X0257784Y0088391D01*
X0259254Y0089000D01*
X0260846Y0089000D01*
X0262316Y0088391D01*
X0263441Y0087266D01*
X0263669Y0086715D01*
X0263754Y0086750D01*
X0264336Y0086750D01*
X0264291Y0086795D01*
X0264291Y0089011D01*
X0269641Y0089011D01*
X0269641Y0083661D01*
X0271857Y0083661D01*
X0274782Y0086586D01*
X0277508Y0083861D01*
X0281774Y0083861D01*
X0282600Y0084687D01*
X0282600Y0083754D01*
X0282726Y0083450D01*
X0268550Y0083450D01*
X0268550Y0083546D01*
X0268502Y0083661D01*
X0269641Y0083661D01*
X0269641Y0089011D01*
X0269641Y0089011D01*
X0269641Y0089011D01*
X0269641Y0089011D01*
X0269641Y0094361D01*
X0267425Y0094361D01*
X0264291Y0091227D01*
X0264291Y0089011D01*
X0269641Y0089011D01*
X0269641Y0088546D02*
X0269641Y0088546D01*
X0269641Y0086148D02*
X0269641Y0086148D01*
X0269641Y0083749D02*
X0269641Y0083749D01*
X0271945Y0083749D02*
X0282602Y0083749D01*
X0284791Y0088546D02*
X0285000Y0088546D01*
X0285000Y0090945D02*
X0284791Y0090945D01*
X0282821Y0093343D02*
X0282592Y0093343D01*
X0287494Y0095742D02*
X0314956Y0095742D01*
X0312558Y0093343D02*
X0289732Y0093343D01*
X0290000Y0090945D02*
X0310159Y0090945D01*
X0307761Y0088546D02*
X0290000Y0088546D01*
X0290268Y0086148D02*
X0305362Y0086148D01*
X0302964Y0083749D02*
X0290598Y0083749D01*
X0276690Y0093343D02*
X0272875Y0093343D01*
X0269641Y0093343D02*
X0269641Y0093343D01*
X0269641Y0090945D02*
X0269641Y0090945D01*
X0266407Y0093343D02*
X0246242Y0093343D01*
X0248641Y0090945D02*
X0264291Y0090945D01*
X0264291Y0088546D02*
X0261941Y0088546D01*
X0258159Y0088546D02*
X0251039Y0088546D01*
X0243844Y0095742D02*
X0275601Y0095742D01*
X0274500Y0098140D02*
X0241445Y0098140D01*
X0239047Y0100539D02*
X0275015Y0100539D01*
X0277771Y0106219D02*
X0281747Y0106219D01*
X0284559Y0109031D01*
X0284559Y0109484D01*
X0327305Y0152230D01*
X0327759Y0151134D01*
X0328884Y0150009D01*
X0330354Y0149400D01*
X0331946Y0149400D01*
X0333416Y0150009D01*
X0333450Y0150043D01*
X0333450Y0149004D01*
X0334059Y0147534D01*
X0335184Y0146409D01*
X0336654Y0145800D01*
X0338246Y0145800D01*
X0339716Y0146409D01*
X0340841Y0147534D01*
X0341450Y0149004D01*
X0341450Y0149100D01*
X0349014Y0149100D01*
X0351452Y0146662D01*
X0351452Y0145208D01*
X0354381Y0142279D01*
X0358523Y0142279D01*
X0361452Y0145208D01*
X0361452Y0149350D01*
X0358523Y0152279D01*
X0354381Y0152279D01*
X0353644Y0151542D01*
X0353136Y0152050D01*
X0354323Y0153237D01*
X0354381Y0153179D01*
X0358523Y0153179D01*
X0361452Y0156108D01*
X0361452Y0160250D01*
X0358523Y0163179D01*
X0354381Y0163179D01*
X0351452Y0160250D01*
X0351452Y0157438D01*
X0349914Y0155900D01*
X0334307Y0155900D01*
X0333416Y0156791D01*
X0332320Y0157245D01*
X0346425Y0171350D01*
X0351027Y0171350D01*
X0351540Y0171138D01*
X0351452Y0171050D01*
X0351452Y0166908D01*
X0354381Y0163979D01*
X0358523Y0163979D01*
X0361452Y0166908D01*
X0361452Y0169100D01*
X0362387Y0169100D01*
X0363563Y0169587D01*
X0363918Y0169942D01*
X0364381Y0169479D01*
X0368523Y0169479D01*
X0371452Y0172408D01*
X0371452Y0176550D01*
X0368523Y0179479D01*
X0364381Y0179479D01*
X0361452Y0176550D01*
X0361452Y0176527D01*
X0361300Y0176375D01*
X0360863Y0176813D01*
X0360576Y0176932D01*
X0361452Y0177808D01*
X0361452Y0181950D01*
X0358523Y0184879D01*
X0354381Y0184879D01*
X0352402Y0182900D01*
X0350686Y0182900D01*
X0353973Y0186187D01*
X0354381Y0185779D01*
X0358523Y0185779D01*
X0359954Y0187210D01*
X0361452Y0185712D01*
X0361452Y0183208D01*
X0364381Y0180279D01*
X0368523Y0180279D01*
X0371452Y0183208D01*
X0371452Y0187350D01*
X0368523Y0190279D01*
X0364381Y0190279D01*
X0364169Y0190067D01*
X0363350Y0190886D01*
X0363350Y0192210D01*
X0364381Y0191179D01*
X0368523Y0191179D01*
X0371452Y0194108D01*
X0371452Y0194163D01*
X0377550Y0188064D01*
X0377550Y0186804D01*
X0378159Y0185334D01*
X0379284Y0184209D01*
X0380754Y0183600D01*
X0382346Y0183600D01*
X0383816Y0184209D01*
X0384941Y0185334D01*
X0385550Y0186804D01*
X0385550Y0188396D01*
X0384941Y0189866D01*
X0383816Y0190991D01*
X0382346Y0191600D01*
X0381086Y0191600D01*
X0369565Y0203121D01*
X0371452Y0205008D01*
X0371452Y0209150D01*
X0368523Y0212079D01*
X0367807Y0212079D01*
X0366500Y0213386D01*
X0366500Y0216447D01*
X0366119Y0217366D01*
X0365416Y0218069D01*
X0333016Y0250469D01*
X0332097Y0250850D01*
X0208703Y0250850D01*
X0207784Y0250469D01*
X0207081Y0249766D01*
X0192231Y0234916D01*
X0191850Y0233997D01*
X0191850Y0217886D01*
X0189276Y0215311D01*
X0189191Y0215516D01*
X0188066Y0216641D01*
X0186596Y0217250D01*
X0185336Y0217250D01*
X0158866Y0243719D01*
X0157947Y0244100D01*
X0057686Y0244100D01*
X0057616Y0244169D01*
X0056697Y0244550D01*
X0055841Y0244550D01*
X0064330Y0252906D01*
X0401409Y0252906D01*
X0401409Y0016936D01*
X0400202Y0017436D01*
X0398213Y0017436D01*
X0396376Y0016675D01*
X0394969Y0015268D01*
X0394285Y0013618D01*
X0394280Y0013654D01*
X0394027Y0014432D01*
X0393655Y0015162D01*
X0393174Y0015824D01*
X0392595Y0016403D01*
X0391933Y0016884D01*
X0391204Y0017255D01*
X0390426Y0017508D01*
X0389617Y0017636D01*
X0389208Y0017636D01*
X0389208Y0012436D01*
X0389208Y0012436D01*
X0389208Y0014193D02*
X0389208Y0014193D01*
X0389208Y0016591D02*
X0389208Y0016591D01*
X0392336Y0016591D02*
X0396292Y0016591D01*
X0394523Y0014193D02*
X0394105Y0014193D01*
X0386080Y0016591D02*
X0382124Y0016591D01*
X0383892Y0014193D02*
X0384311Y0014193D01*
X0384989Y0009396D02*
X0383238Y0009396D01*
X0375177Y0009396D02*
X0373238Y0009396D01*
X0374208Y0011794D02*
X0374208Y0011794D01*
X0373892Y0014193D02*
X0374523Y0014193D01*
X0376292Y0016591D02*
X0372124Y0016591D01*
X0366292Y0016591D02*
X0362124Y0016591D01*
X0363892Y0014193D02*
X0364523Y0014193D01*
X0364208Y0011794D02*
X0364208Y0011794D01*
X0363238Y0009396D02*
X0365177Y0009396D01*
X0355177Y0009396D02*
X0353238Y0009396D01*
X0354208Y0011794D02*
X0354208Y0011794D01*
X0353892Y0014193D02*
X0354523Y0014193D01*
X0356292Y0016591D02*
X0352124Y0016591D01*
X0346292Y0016591D02*
X0342124Y0016591D01*
X0343892Y0014193D02*
X0344523Y0014193D01*
X0344208Y0011794D02*
X0344208Y0011794D01*
X0343238Y0009396D02*
X0345177Y0009396D01*
X0335177Y0009396D02*
X0333238Y0009396D01*
X0334208Y0011794D02*
X0334208Y0011794D01*
X0333892Y0014193D02*
X0334523Y0014193D01*
X0336292Y0016591D02*
X0332124Y0016591D01*
X0326292Y0016591D02*
X0324327Y0016591D01*
X0324523Y0014193D02*
X0323892Y0014193D01*
X0324208Y0011794D02*
X0324208Y0011794D01*
X0323238Y0009396D02*
X0325177Y0009396D01*
X0315177Y0009396D02*
X0313238Y0009396D01*
X0314208Y0011794D02*
X0314208Y0011794D01*
X0313892Y0014193D02*
X0314523Y0014193D01*
X0316292Y0016591D02*
X0312124Y0016591D01*
X0326725Y0018990D02*
X0401409Y0018990D01*
X0401409Y0021388D02*
X0329124Y0021388D01*
X0330500Y0023787D02*
X0401409Y0023787D01*
X0401409Y0026185D02*
X0330500Y0026185D01*
X0330500Y0028584D02*
X0401409Y0028584D01*
X0401409Y0030982D02*
X0330500Y0030982D01*
X0335559Y0045373D02*
X0354211Y0045373D01*
X0351930Y0047772D02*
X0337957Y0047772D01*
X0349200Y0066960D02*
X0308545Y0066960D01*
X0310516Y0068931D02*
X0311219Y0069634D01*
X0310516Y0068931D02*
X0264245Y0022659D01*
X0265066Y0022319D01*
X0269949Y0017436D01*
X0270202Y0017436D01*
X0272040Y0016675D01*
X0273447Y0015268D01*
X0274208Y0013431D01*
X0274208Y0011442D01*
X0274969Y0009604D01*
X0276376Y0008197D01*
X0278213Y0007436D01*
X0280202Y0007436D01*
X0282040Y0008197D01*
X0283447Y0009604D01*
X0284208Y0011442D01*
X0284208Y0013431D01*
X0283447Y0015268D01*
X0282040Y0016675D01*
X0280202Y0017436D01*
X0278213Y0017436D01*
X0276376Y0016675D01*
X0274969Y0015268D01*
X0274208Y0013431D01*
X0274208Y0011442D01*
X0273447Y0009604D01*
X0272040Y0008197D01*
X0270202Y0007436D01*
X0268213Y0007436D01*
X0266376Y0008197D01*
X0264969Y0009604D01*
X0264208Y0011442D01*
X0264208Y0013431D01*
X0264969Y0015268D01*
X0265008Y0015307D01*
X0262614Y0017700D01*
X0177653Y0017700D01*
X0176734Y0018081D01*
X0176031Y0018784D01*
X0150564Y0044250D01*
X0149753Y0044250D01*
X0148834Y0044631D01*
X0148131Y0045334D01*
X0147588Y0045877D01*
X0147565Y0045868D01*
X0140535Y0045868D01*
X0138845Y0046568D01*
X0137551Y0047862D01*
X0136850Y0049553D01*
X0136850Y0051383D01*
X0137551Y0053073D01*
X0138845Y0054367D01*
X0140535Y0055068D01*
X0147565Y0055068D01*
X0149256Y0054367D01*
X0150550Y0053073D01*
X0151250Y0051383D01*
X0151250Y0049553D01*
X0151172Y0049364D01*
X0151286Y0049250D01*
X0152097Y0049250D01*
X0153016Y0048869D01*
X0179186Y0022700D01*
X0202264Y0022700D01*
X0148648Y0076316D01*
X0147565Y0075868D01*
X0140535Y0075868D01*
X0138845Y0076568D01*
X0137551Y0077862D01*
X0136850Y0079553D01*
X0136850Y0081383D01*
X0137551Y0083073D01*
X0138845Y0084367D01*
X0140535Y0085068D01*
X0147565Y0085068D01*
X0149256Y0084367D01*
X0150550Y0083073D01*
X0151250Y0081383D01*
X0151250Y0080785D01*
X0185474Y0046561D01*
X0185559Y0046766D01*
X0186379Y0047586D01*
X0155331Y0078634D01*
X0154950Y0079553D01*
X0154950Y0081264D01*
X0149664Y0086550D01*
X0149303Y0086550D01*
X0149257Y0086569D01*
X0149256Y0086568D01*
X0147565Y0085868D01*
X0140535Y0085868D01*
X0138845Y0086568D01*
X0137551Y0087862D01*
X0136850Y0089553D01*
X0136850Y0091383D01*
X0137551Y0093073D01*
X0138845Y0094367D01*
X0140535Y0095068D01*
X0147565Y0095068D01*
X0149256Y0094367D01*
X0150550Y0093073D01*
X0151181Y0091550D01*
X0151197Y0091550D01*
X0152116Y0091169D01*
X0158550Y0084736D01*
X0158550Y0086793D01*
X0157659Y0087684D01*
X0157050Y0089154D01*
X0157050Y0090746D01*
X0157176Y0091050D01*
X0154253Y0091050D01*
X0153334Y0091431D01*
X0152631Y0092134D01*
X0148507Y0096258D01*
X0147565Y0095868D01*
X0140535Y0095868D01*
X0138845Y0096568D01*
X0137551Y0097862D01*
X0136850Y0099553D01*
X0136850Y0099694D01*
X0136550Y0099393D01*
X0136550Y0078836D01*
X0140382Y0075004D01*
X0140535Y0075068D01*
X0147565Y0075068D01*
X0149256Y0074367D01*
X0150550Y0073073D01*
X0151250Y0071383D01*
X0151250Y0069553D01*
X0150550Y0067862D01*
X0149256Y0066568D01*
X0147565Y0065868D01*
X0140535Y0065868D01*
X0138845Y0066568D01*
X0137551Y0067862D01*
X0136850Y0069553D01*
X0136850Y0071383D01*
X0136874Y0071440D01*
X0132634Y0075681D01*
X0132050Y0076264D01*
X0132050Y0040853D01*
X0131669Y0039934D01*
X0110519Y0018784D01*
X0109816Y0018081D01*
X0108897Y0017700D01*
X0087386Y0017700D01*
X0084738Y0015052D01*
X0084419Y0014284D01*
X0084020Y0013884D01*
X0084208Y0013431D01*
X0084208Y0011442D01*
X0084969Y0009604D01*
X0086376Y0008197D01*
X0088213Y0007436D01*
X0090202Y0007436D01*
X0092040Y0008197D01*
X0093447Y0009604D01*
X0094208Y0011442D01*
X0094969Y0009604D01*
X0096376Y0008197D01*
X0098213Y0007436D01*
X0100202Y0007436D01*
X0102040Y0008197D01*
X0103447Y0009604D01*
X0104208Y0011442D01*
X0104969Y0009604D01*
X0106376Y0008197D01*
X0108213Y0007436D01*
X0110202Y0007436D01*
X0112040Y0008197D01*
X0113447Y0009604D01*
X0114208Y0011442D01*
X0114969Y0009604D01*
X0116376Y0008197D01*
X0118213Y0007436D01*
X0120202Y0007436D01*
X0122040Y0008197D01*
X0123447Y0009604D01*
X0124208Y0011442D01*
X0124969Y0009604D01*
X0126376Y0008197D01*
X0128213Y0007436D01*
X0130202Y0007436D01*
X0132040Y0008197D01*
X0133447Y0009604D01*
X0134208Y0011442D01*
X0134969Y0009604D01*
X0136376Y0008197D01*
X0138213Y0007436D01*
X0140202Y0007436D01*
X0142040Y0008197D01*
X0143447Y0009604D01*
X0144208Y0011442D01*
X0144969Y0009604D01*
X0146376Y0008197D01*
X0148213Y0007436D01*
X0150202Y0007436D01*
X0152040Y0008197D01*
X0153447Y0009604D01*
X0154208Y0011442D01*
X0154969Y0009604D01*
X0156376Y0008197D01*
X0158213Y0007436D01*
X0160202Y0007436D01*
X0162040Y0008197D01*
X0163447Y0009604D01*
X0164208Y0011442D01*
X0164969Y0009604D01*
X0166376Y0008197D01*
X0168213Y0007436D01*
X0170202Y0007436D01*
X0172040Y0008197D01*
X0173447Y0009604D01*
X0174208Y0011442D01*
X0174969Y0009604D01*
X0176376Y0008197D01*
X0178213Y0007436D01*
X0180202Y0007436D01*
X0182040Y0008197D01*
X0183447Y0009604D01*
X0184208Y0011442D01*
X0184969Y0009604D01*
X0186376Y0008197D01*
X0188213Y0007436D01*
X0190202Y0007436D01*
X0192040Y0008197D01*
X0193447Y0009604D01*
X0194208Y0011442D01*
X0194969Y0009604D01*
X0196376Y0008197D01*
X0198213Y0007436D01*
X0200202Y0007436D01*
X0202040Y0008197D01*
X0203447Y0009604D01*
X0204208Y0011442D01*
X0204969Y0009604D01*
X0206376Y0008197D01*
X0208213Y0007436D01*
X0210202Y0007436D01*
X0212040Y0008197D01*
X0213447Y0009604D01*
X0214208Y0011442D01*
X0214969Y0009604D01*
X0216376Y0008197D01*
X0218213Y0007436D01*
X0220202Y0007436D01*
X0222040Y0008197D01*
X0223447Y0009604D01*
X0224208Y0011442D01*
X0224969Y0009604D01*
X0226376Y0008197D01*
X0228213Y0007436D01*
X0230202Y0007436D01*
X0232040Y0008197D01*
X0233447Y0009604D01*
X0234208Y0011442D01*
X0234969Y0009604D01*
X0236376Y0008197D01*
X0238213Y0007436D01*
X0240202Y0007436D01*
X0242040Y0008197D01*
X0243447Y0009604D01*
X0244208Y0011442D01*
X0244969Y0009604D01*
X0246376Y0008197D01*
X0248213Y0007436D01*
X0250202Y0007436D01*
X0252040Y0008197D01*
X0253447Y0009604D01*
X0254208Y0011442D01*
X0254969Y0009604D01*
X0256376Y0008197D01*
X0258213Y0007436D01*
X0260202Y0007436D01*
X0262040Y0008197D01*
X0263447Y0009604D01*
X0264208Y0011442D01*
X0264208Y0013431D01*
X0263447Y0015268D01*
X0262040Y0016675D01*
X0260202Y0017436D01*
X0258213Y0017436D01*
X0256376Y0016675D01*
X0254969Y0015268D01*
X0254208Y0013431D01*
X0254208Y0011442D01*
X0254208Y0013431D01*
X0253447Y0015268D01*
X0252040Y0016675D01*
X0250202Y0017436D01*
X0248213Y0017436D01*
X0246376Y0016675D01*
X0244969Y0015268D01*
X0244208Y0013431D01*
X0244208Y0011442D01*
X0244208Y0013431D01*
X0243447Y0015268D01*
X0242040Y0016675D01*
X0240202Y0017436D01*
X0238213Y0017436D01*
X0236376Y0016675D01*
X0234969Y0015268D01*
X0234208Y0013431D01*
X0234208Y0011442D01*
X0234208Y0013431D01*
X0233447Y0015268D01*
X0232040Y0016675D01*
X0230202Y0017436D01*
X0228213Y0017436D01*
X0226376Y0016675D01*
X0224969Y0015268D01*
X0224208Y0013431D01*
X0224208Y0011442D01*
X0224208Y0013431D01*
X0223447Y0015268D01*
X0222040Y0016675D01*
X0220202Y0017436D01*
X0218213Y0017436D01*
X0216376Y0016675D01*
X0214969Y0015268D01*
X0214208Y0013431D01*
X0214208Y0011442D01*
X0214208Y0013431D01*
X0213447Y0015268D01*
X0212040Y0016675D01*
X0210202Y0017436D01*
X0208213Y0017436D01*
X0206376Y0016675D01*
X0204969Y0015268D01*
X0204208Y0013431D01*
X0204208Y0011442D01*
X0204208Y0013431D01*
X0203447Y0015268D01*
X0202040Y0016675D01*
X0200202Y0017436D01*
X0198213Y0017436D01*
X0196376Y0016675D01*
X0194969Y0015268D01*
X0194208Y0013431D01*
X0194208Y0011442D01*
X0194208Y0013431D01*
X0193447Y0015268D01*
X0192040Y0016675D01*
X0190202Y0017436D01*
X0188213Y0017436D01*
X0186376Y0016675D01*
X0184969Y0015268D01*
X0184208Y0013431D01*
X0184208Y0011442D01*
X0184208Y0013431D01*
X0183447Y0015268D01*
X0182040Y0016675D01*
X0180202Y0017436D01*
X0178213Y0017436D01*
X0176376Y0016675D01*
X0174969Y0015268D01*
X0174208Y0013431D01*
X0174208Y0011442D01*
X0174208Y0013431D01*
X0173447Y0015268D01*
X0172040Y0016675D01*
X0170202Y0017436D01*
X0168213Y0017436D01*
X0166376Y0016675D01*
X0164969Y0015268D01*
X0164208Y0013431D01*
X0164208Y0011442D01*
X0164208Y0013431D01*
X0163447Y0015268D01*
X0162040Y0016675D01*
X0160202Y0017436D01*
X0158213Y0017436D01*
X0156376Y0016675D01*
X0154969Y0015268D01*
X0154208Y0013431D01*
X0154208Y0011442D01*
X0154208Y0013431D01*
X0153447Y0015268D01*
X0152040Y0016675D01*
X0150202Y0017436D01*
X0148213Y0017436D01*
X0146376Y0016675D01*
X0144969Y0015268D01*
X0144208Y0013431D01*
X0144208Y0011442D01*
X0144208Y0013431D01*
X0143447Y0015268D01*
X0142040Y0016675D01*
X0140202Y0017436D01*
X0138213Y0017436D01*
X0136376Y0016675D01*
X0134969Y0015268D01*
X0134208Y0013431D01*
X0134208Y0011442D01*
X0134208Y0013431D01*
X0133447Y0015268D01*
X0132040Y0016675D01*
X0130202Y0017436D01*
X0128213Y0017436D01*
X0126376Y0016675D01*
X0124969Y0015268D01*
X0124208Y0013431D01*
X0124208Y0011442D01*
X0124208Y0013431D01*
X0123447Y0015268D01*
X0122040Y0016675D01*
X0120202Y0017436D01*
X0118213Y0017436D01*
X0116376Y0016675D01*
X0114969Y0015268D01*
X0114208Y0013431D01*
X0114208Y0011442D01*
X0114208Y0013431D01*
X0113447Y0015268D01*
X0112040Y0016675D01*
X0110202Y0017436D01*
X0108213Y0017436D01*
X0106376Y0016675D01*
X0104969Y0015268D01*
X0104208Y0013431D01*
X0104208Y0011442D01*
X0104208Y0013431D01*
X0103447Y0015268D01*
X0102040Y0016675D01*
X0100202Y0017436D01*
X0098213Y0017436D01*
X0096376Y0016675D01*
X0094969Y0015268D01*
X0094208Y0013431D01*
X0094208Y0011442D01*
X0094208Y0013431D01*
X0093447Y0015268D01*
X0092040Y0016675D01*
X0090202Y0017436D01*
X0088213Y0017436D01*
X0086376Y0016675D01*
X0084969Y0015268D01*
X0084208Y0013431D01*
X0084208Y0011442D01*
X0083447Y0009604D01*
X0082040Y0008197D01*
X0080202Y0007436D01*
X0078213Y0007436D01*
X0076376Y0008197D01*
X0074969Y0009604D01*
X0074208Y0011442D01*
X0074208Y0013431D01*
X0074969Y0015268D01*
X0075601Y0015900D01*
X0075236Y0015900D01*
X0074900Y0015564D01*
X0074900Y0015203D01*
X0074519Y0014284D01*
X0074049Y0013814D01*
X0074208Y0013431D01*
X0074208Y0011442D01*
X0073447Y0009604D01*
X0072040Y0008197D01*
X0070202Y0007436D01*
X0068213Y0007436D01*
X0066376Y0008197D01*
X0064969Y0009604D01*
X0064208Y0011442D01*
X0064208Y0013431D01*
X0064969Y0015268D01*
X0066376Y0016675D01*
X0068213Y0017436D01*
X0070040Y0017436D01*
X0070150Y0017700D01*
X0065786Y0017700D01*
X0063400Y0015315D01*
X0063447Y0015268D01*
X0064208Y0013431D01*
X0064208Y0011442D01*
X0063447Y0009604D01*
X0062040Y0008197D01*
X0060202Y0007436D01*
X0058213Y0007436D01*
X0056376Y0008197D01*
X0054969Y0009604D01*
X0054208Y0011442D01*
X0054208Y0013431D01*
X0054969Y0015268D01*
X0056376Y0016675D01*
X0058213Y0017436D01*
X0058451Y0017436D01*
X0062314Y0021300D01*
X0030053Y0021300D01*
X0029134Y0021681D01*
X0028431Y0022384D01*
X0015831Y0034984D01*
X0015450Y0035903D01*
X0015450Y0092697D01*
X0015831Y0093616D01*
X0016534Y0094319D01*
X0021034Y0098819D01*
X0021953Y0099200D01*
X0022314Y0099200D01*
X0022574Y0099460D01*
X0022520Y0099592D01*
X0022520Y0101422D01*
X0023220Y0103113D01*
X0024514Y0104407D01*
X0026205Y0105107D01*
X0033235Y0105107D01*
X0034925Y0104407D01*
X0036219Y0103113D01*
X0036920Y0101422D01*
X0036920Y0099592D01*
X0036219Y0097901D01*
X0034925Y0096607D01*
X0033235Y0095907D01*
X0026205Y0095907D01*
X0026125Y0095940D01*
X0025469Y0095284D01*
X0024766Y0094581D01*
X0023847Y0094200D01*
X0023486Y0094200D01*
X0020450Y0091164D01*
X0020450Y0087436D01*
X0022545Y0089531D01*
X0022520Y0089592D01*
X0022520Y0091422D01*
X0023220Y0093113D01*
X0024514Y0094407D01*
X0026205Y0095107D01*
X0033235Y0095107D01*
X0034925Y0094407D01*
X0036219Y0093113D01*
X0036920Y0091422D01*
X0036920Y0089592D01*
X0036219Y0087901D01*
X0034925Y0086607D01*
X0033235Y0085907D01*
X0026205Y0085907D01*
X0026055Y0085969D01*
X0022250Y0082164D01*
X0022250Y0038336D01*
X0030686Y0029900D01*
X0077793Y0029900D01*
X0078684Y0030791D01*
X0080154Y0031400D01*
X0081746Y0031400D01*
X0083216Y0030791D01*
X0084341Y0029666D01*
X0084426Y0029461D01*
X0093300Y0038336D01*
X0093300Y0040047D01*
X0093681Y0040966D01*
X0094384Y0041669D01*
X0100950Y0048236D01*
X0100950Y0051297D01*
X0101331Y0052216D01*
X0102034Y0052919D01*
X0108635Y0059521D01*
X0108622Y0059553D01*
X0108622Y0061383D01*
X0109322Y0063073D01*
X0110616Y0064367D01*
X0112307Y0065068D01*
X0119337Y0065068D01*
X0121028Y0064367D01*
X0122322Y0063073D01*
X0123022Y0061383D01*
X0123022Y0059553D01*
X0122322Y0057862D01*
X0121028Y0056568D01*
X0119337Y0055868D01*
X0112307Y0055868D01*
X0112128Y0055942D01*
X0105950Y0049764D01*
X0105950Y0046703D01*
X0105569Y0045784D01*
X0101461Y0041676D01*
X0101666Y0041591D01*
X0102791Y0040466D01*
X0103400Y0038996D01*
X0103400Y0037404D01*
X0102791Y0035934D01*
X0101666Y0034809D01*
X0100196Y0034200D01*
X0098936Y0034200D01*
X0087436Y0022700D01*
X0107364Y0022700D01*
X0127050Y0042386D01*
X0127050Y0054214D01*
X0123022Y0050187D01*
X0123022Y0049553D01*
X0122322Y0047862D01*
X0121028Y0046568D01*
X0119337Y0045868D01*
X0112307Y0045868D01*
X0110616Y0046568D01*
X0109322Y0047862D01*
X0108622Y0049553D01*
X0108622Y0051383D01*
X0109322Y0053073D01*
X0110616Y0054367D01*
X0112307Y0055068D01*
X0119337Y0055068D01*
X0120394Y0054630D01*
X0123450Y0057686D01*
X0123450Y0107997D01*
X0123831Y0108916D01*
X0126450Y0111536D01*
X0126450Y0112796D01*
X0127059Y0114266D01*
X0128184Y0115391D01*
X0129654Y0116000D01*
X0130025Y0116000D01*
X0119917Y0126108D01*
X0119337Y0125868D01*
X0112307Y0125868D01*
X0110616Y0126568D01*
X0109322Y0127862D01*
X0108622Y0129553D01*
X0108622Y0131383D01*
X0109322Y0133073D01*
X0110616Y0134367D01*
X0112307Y0135068D01*
X0119337Y0135068D01*
X0121028Y0134367D01*
X0122322Y0133073D01*
X0122548Y0132528D01*
X0137425Y0117650D01*
X0137594Y0117819D01*
X0137551Y0117862D01*
X0136850Y0119553D01*
X0136850Y0121383D01*
X0137551Y0123073D01*
X0138845Y0124367D01*
X0140535Y0125068D01*
X0147565Y0125068D01*
X0149256Y0124367D01*
X0150550Y0123073D01*
X0151250Y0121383D01*
X0151250Y0119553D01*
X0150598Y0117978D01*
X0150700Y0117875D01*
X0151137Y0118313D01*
X0152313Y0118800D01*
X0161309Y0118800D01*
X0161100Y0119304D01*
X0161100Y0120564D01*
X0159264Y0122400D01*
X0158004Y0122400D01*
X0156534Y0123009D01*
X0155409Y0124134D01*
X0154800Y0125604D01*
X0154800Y0127196D01*
X0155409Y0128666D01*
X0156534Y0129791D01*
X0158004Y0130400D01*
X0159596Y0130400D01*
X0161066Y0129791D01*
X0162191Y0128666D01*
X0162800Y0127196D01*
X0162800Y0125936D01*
X0164636Y0124100D01*
X0165896Y0124100D01*
X0167366Y0123491D01*
X0168491Y0122366D01*
X0168700Y0121860D01*
X0168700Y0122369D01*
X0171834Y0125503D01*
X0174050Y0125503D01*
X0174050Y0120153D01*
X0174050Y0120153D01*
X0174050Y0125428D01*
X0168932Y0130546D01*
X0144129Y0130546D01*
X0144050Y0130468D01*
X0144050Y0130468D01*
X0136650Y0130468D01*
X0136650Y0130845D01*
X0136769Y0131592D01*
X0137002Y0132310D01*
X0137345Y0132983D01*
X0137789Y0133595D01*
X0138323Y0134129D01*
X0138935Y0134573D01*
X0139608Y0134916D01*
X0140326Y0135150D01*
X0141073Y0135268D01*
X0144050Y0135268D01*
X0144050Y0130468D01*
X0144050Y0130468D01*
X0136650Y0130468D01*
X0136650Y0130090D01*
X0136769Y0129344D01*
X0137002Y0128625D01*
X0137345Y0127952D01*
X0137789Y0127341D01*
X0138323Y0126806D01*
X0138935Y0126362D01*
X0139608Y0126019D01*
X0140326Y0125786D01*
X0141073Y0125668D01*
X0144050Y0125668D01*
X0144050Y0130468D01*
X0144050Y0135268D01*
X0147028Y0135268D01*
X0147774Y0135150D01*
X0148493Y0134916D01*
X0149166Y0134573D01*
X0149777Y0134129D01*
X0150312Y0133595D01*
X0150756Y0132983D01*
X0151099Y0132310D01*
X0151332Y0131592D01*
X0151450Y0130845D01*
X0151450Y0130468D01*
X0144051Y0130468D01*
X0144051Y0130468D01*
X0151450Y0130468D01*
X0151450Y0130090D01*
X0151332Y0129344D01*
X0151099Y0128625D01*
X0150756Y0127952D01*
X0150312Y0127341D01*
X0149777Y0126806D01*
X0149166Y0126362D01*
X0148493Y0126019D01*
X0147774Y0125786D01*
X0147028Y0125668D01*
X0144050Y0125668D01*
X0144050Y0130468D01*
X0143883Y0130300D01*
X0134300Y0130300D01*
X0128100Y0136500D01*
X0110000Y0136500D01*
X0105901Y0140599D01*
X0105901Y0143420D01*
X0105901Y0138070D01*
X0108117Y0138070D01*
X0111042Y0140996D01*
X0113768Y0138270D01*
X0118034Y0138270D01*
X0119983Y0140220D01*
X0120309Y0139434D01*
X0121434Y0138309D01*
X0122904Y0137700D01*
X0124496Y0137700D01*
X0125966Y0138309D01*
X0127091Y0139434D01*
X0127700Y0140904D01*
X0127700Y0142496D01*
X0127091Y0143966D01*
X0126200Y0144857D01*
X0126200Y0182064D01*
X0131550Y0187414D01*
X0131550Y0147053D01*
X0131931Y0146134D01*
X0135531Y0142534D01*
X0136234Y0141831D01*
X0136918Y0141547D01*
X0136850Y0141383D01*
X0136850Y0139553D01*
X0137551Y0137862D01*
X0138845Y0136568D01*
X0140535Y0135868D01*
X0147565Y0135868D01*
X0148542Y0136272D01*
X0153081Y0131734D01*
X0153784Y0131031D01*
X0154703Y0130650D01*
X0169464Y0130650D01*
X0173331Y0126784D01*
X0174034Y0126081D01*
X0174953Y0125700D01*
X0176214Y0125700D01*
X0191850Y0110064D01*
X0191850Y0105524D01*
X0191546Y0105650D01*
X0189954Y0105650D01*
X0188484Y0105041D01*
X0187359Y0103916D01*
X0186750Y0102446D01*
X0186750Y0100854D01*
X0187359Y0099384D01*
X0188018Y0098725D01*
X0187809Y0098516D01*
X0187200Y0097046D01*
X0187200Y0095454D01*
X0187809Y0093984D01*
X0188934Y0092859D01*
X0190251Y0092314D01*
X0197631Y0084934D01*
X0198334Y0084231D01*
X0198598Y0084121D01*
X0197551Y0083073D01*
X0196850Y0081383D01*
X0196850Y0081200D01*
X0196736Y0081200D01*
X0182266Y0095669D01*
X0181347Y0096050D01*
X0172574Y0096050D01*
X0172700Y0096354D01*
X0172700Y0097946D01*
X0172091Y0099416D01*
X0170966Y0100541D01*
X0169496Y0101150D01*
X0168236Y0101150D01*
X0162016Y0107369D01*
X0161097Y0107750D01*
X0151103Y0107750D01*
X0150184Y0107369D01*
X0149575Y0106761D01*
X0149512Y0106824D01*
X0150550Y0107862D01*
X0151250Y0109553D01*
X0151250Y0110150D01*
X0151337Y0110150D01*
X0152513Y0110637D01*
X0154275Y0112400D01*
X0164675Y0112400D01*
X0168900Y0108174D01*
X0168900Y0108020D01*
X0171917Y0105003D01*
X0176184Y0105003D01*
X0179200Y0108020D01*
X0179200Y0112286D01*
X0176475Y0115011D01*
X0179400Y0117937D01*
X0179400Y0120153D01*
X0179400Y0122369D01*
X0176266Y0125503D01*
X0174050Y0125503D01*
X0174050Y0120153D01*
X0174051Y0120153D02*
X0179400Y0120153D01*
X0174051Y0120153D01*
X0174051Y0120153D01*
X0174050Y0122126D02*
X0174050Y0122126D01*
X0174050Y0124524D02*
X0174050Y0124524D01*
X0173192Y0126923D02*
X0162800Y0126923D01*
X0161536Y0129321D02*
X0170793Y0129321D01*
X0170856Y0124524D02*
X0164211Y0124524D01*
X0168591Y0122126D02*
X0168700Y0122126D01*
X0166000Y0115600D02*
X0171850Y0109750D01*
X0173650Y0109750D01*
X0174050Y0110153D01*
X0179200Y0110133D02*
X0191781Y0110133D01*
X0191850Y0107734D02*
X0178915Y0107734D01*
X0176517Y0105336D02*
X0189196Y0105336D01*
X0186954Y0102937D02*
X0166448Y0102937D01*
X0164050Y0105336D02*
X0171584Y0105336D01*
X0169185Y0107734D02*
X0161135Y0107734D01*
X0166941Y0110133D02*
X0151250Y0110133D01*
X0151065Y0107734D02*
X0150423Y0107734D01*
X0150700Y0113350D02*
X0152950Y0115600D01*
X0166000Y0115600D01*
X0161100Y0119727D02*
X0151250Y0119727D01*
X0150943Y0122126D02*
X0159539Y0122126D01*
X0155247Y0124524D02*
X0148878Y0124524D01*
X0149893Y0126923D02*
X0154800Y0126923D01*
X0156064Y0129321D02*
X0151325Y0129321D01*
X0151291Y0131720D02*
X0153095Y0131720D01*
X0150696Y0134118D02*
X0149788Y0134118D01*
X0144050Y0134118D02*
X0144050Y0134118D01*
X0144050Y0131720D02*
X0144050Y0131720D01*
X0144050Y0130468D02*
X0144050Y0130468D01*
X0144050Y0129321D02*
X0144050Y0129321D01*
X0144050Y0126923D02*
X0144050Y0126923D01*
X0139223Y0124524D02*
X0130551Y0124524D01*
X0128153Y0126923D02*
X0138207Y0126923D01*
X0136776Y0129321D02*
X0125754Y0129321D01*
X0123356Y0131720D02*
X0136810Y0131720D01*
X0138313Y0134118D02*
X0121277Y0134118D01*
X0120100Y0130450D02*
X0137200Y0113350D01*
X0137650Y0113350D01*
X0139900Y0115600D01*
X0148450Y0115600D01*
X0150700Y0113350D01*
X0136850Y0119727D02*
X0135348Y0119727D01*
X0137158Y0122126D02*
X0132950Y0122126D01*
X0128696Y0117329D02*
X0121788Y0117329D01*
X0122322Y0117862D02*
X0123022Y0119553D01*
X0123022Y0121383D01*
X0122322Y0123073D01*
X0121028Y0124367D01*
X0119337Y0125068D01*
X0112307Y0125068D01*
X0110616Y0124367D01*
X0109322Y0123073D01*
X0108622Y0121383D01*
X0108622Y0119553D01*
X0109322Y0117862D01*
X0110616Y0116568D01*
X0112307Y0115868D01*
X0119337Y0115868D01*
X0121028Y0116568D01*
X0122322Y0117862D01*
X0123022Y0119727D02*
X0126297Y0119727D01*
X0123899Y0122126D02*
X0122714Y0122126D01*
X0121500Y0124524D02*
X0120649Y0124524D01*
X0110995Y0124524D02*
X0105950Y0124524D01*
X0105950Y0126447D02*
X0105569Y0127366D01*
X0099350Y0133586D01*
X0099350Y0134846D01*
X0098741Y0136316D01*
X0097616Y0137441D01*
X0096146Y0138050D01*
X0094554Y0138050D01*
X0093084Y0137441D01*
X0091959Y0136316D01*
X0091350Y0134846D01*
X0091350Y0134274D01*
X0090938Y0134573D01*
X0090265Y0134916D01*
X0089546Y0135150D01*
X0088800Y0135268D01*
X0086916Y0135268D01*
X0087200Y0135954D01*
X0087200Y0137214D01*
X0089339Y0139354D01*
X0089484Y0139209D01*
X0090954Y0138600D01*
X0092546Y0138600D01*
X0094016Y0139209D01*
X0095141Y0140334D01*
X0095750Y0141804D01*
X0095750Y0143396D01*
X0095141Y0144866D01*
X0094016Y0145991D01*
X0092546Y0146600D01*
X0091186Y0146600D01*
X0104940Y0160354D01*
X0106658Y0160354D01*
X0108349Y0161055D01*
X0109643Y0162349D01*
X0110343Y0164039D01*
X0110343Y0171069D01*
X0109790Y0172405D01*
X0115216Y0177831D01*
X0115919Y0178534D01*
X0116300Y0179453D01*
X0116300Y0213297D01*
X0115919Y0214216D01*
X0115216Y0214919D01*
X0110474Y0219661D01*
X0110934Y0220772D01*
X0110934Y0227802D01*
X0110234Y0229492D01*
X0108940Y0230786D01*
X0107249Y0231487D01*
X0105419Y0231487D01*
X0103728Y0230786D01*
X0102434Y0229492D01*
X0101734Y0227802D01*
X0101734Y0220772D01*
X0102434Y0219081D01*
X0103728Y0217787D01*
X0105419Y0217087D01*
X0105978Y0217087D01*
X0111300Y0211764D01*
X0111300Y0208936D01*
X0100503Y0219732D01*
X0100934Y0220772D01*
X0100934Y0227802D01*
X0100234Y0229492D01*
X0098940Y0230786D01*
X0097249Y0231487D01*
X0095419Y0231487D01*
X0093728Y0230786D01*
X0092434Y0229492D01*
X0091734Y0227802D01*
X0091734Y0220772D01*
X0092434Y0219081D01*
X0093728Y0217787D01*
X0095419Y0217087D01*
X0096078Y0217087D01*
X0109500Y0203664D01*
X0109500Y0200509D01*
X0109461Y0200548D01*
X0108850Y0200992D01*
X0108176Y0201335D01*
X0107458Y0201568D01*
X0106712Y0201687D01*
X0106334Y0201687D01*
X0106334Y0194287D01*
X0106334Y0194287D01*
X0106334Y0201687D01*
X0105956Y0201687D01*
X0105210Y0201568D01*
X0104491Y0201335D01*
X0103818Y0200992D01*
X0103207Y0200548D01*
X0102673Y0200014D01*
X0102229Y0199402D01*
X0101886Y0198729D01*
X0101652Y0198011D01*
X0101534Y0197264D01*
X0101534Y0194287D01*
X0106334Y0194287D01*
X0096334Y0194287D01*
X0096334Y0194287D01*
X0096334Y0201687D01*
X0096712Y0201687D01*
X0097458Y0201568D01*
X0098176Y0201335D01*
X0098850Y0200992D01*
X0099461Y0200548D01*
X0099995Y0200014D01*
X0100439Y0199402D01*
X0100782Y0198729D01*
X0101016Y0198011D01*
X0101134Y0197264D01*
X0101134Y0194287D01*
X0096334Y0194287D01*
X0096334Y0194287D01*
X0096334Y0201687D01*
X0095956Y0201687D01*
X0095210Y0201568D01*
X0094491Y0201335D01*
X0093818Y0200992D01*
X0093207Y0200548D01*
X0092673Y0200014D01*
X0092229Y0199402D01*
X0091886Y0198729D01*
X0091652Y0198011D01*
X0091534Y0197264D01*
X0091534Y0194287D01*
X0096334Y0194287D01*
X0086334Y0194287D01*
X0086334Y0194287D01*
X0086334Y0201687D01*
X0086712Y0201687D01*
X0087458Y0201568D01*
X0088176Y0201335D01*
X0088850Y0200992D01*
X0089461Y0200548D01*
X0089995Y0200014D01*
X0090439Y0199402D01*
X0090782Y0198729D01*
X0091016Y0198011D01*
X0091134Y0197264D01*
X0091134Y0194287D01*
X0086334Y0194287D01*
X0086334Y0194287D01*
X0086334Y0201687D01*
X0085956Y0201687D01*
X0085210Y0201568D01*
X0084491Y0201335D01*
X0083818Y0200992D01*
X0083207Y0200548D01*
X0082673Y0200014D01*
X0082229Y0199402D01*
X0081886Y0198729D01*
X0081652Y0198011D01*
X0081534Y0197264D01*
X0081534Y0194287D01*
X0086334Y0194287D01*
X0076334Y0194287D01*
X0076334Y0194287D01*
X0076334Y0201687D01*
X0076712Y0201687D01*
X0077458Y0201568D01*
X0078176Y0201335D01*
X0078850Y0200992D01*
X0079461Y0200548D01*
X0079995Y0200014D01*
X0080439Y0199402D01*
X0080782Y0198729D01*
X0081016Y0198011D01*
X0081134Y0197264D01*
X0081134Y0194287D01*
X0076334Y0194287D01*
X0076334Y0194287D01*
X0076334Y0201687D01*
X0075956Y0201687D01*
X0075210Y0201568D01*
X0074491Y0201335D01*
X0073818Y0200992D01*
X0073207Y0200548D01*
X0072673Y0200014D01*
X0072229Y0199402D01*
X0071886Y0198729D01*
X0071652Y0198011D01*
X0071534Y0197264D01*
X0071534Y0194287D01*
X0076334Y0194287D01*
X0066334Y0194287D01*
X0066334Y0194287D01*
X0066334Y0201687D01*
X0066712Y0201687D01*
X0067458Y0201568D01*
X0068176Y0201335D01*
X0068850Y0200992D01*
X0069461Y0200548D01*
X0069995Y0200014D01*
X0070439Y0199402D01*
X0070782Y0198729D01*
X0071016Y0198011D01*
X0071134Y0197264D01*
X0071134Y0194287D01*
X0066334Y0194287D01*
X0066334Y0194287D01*
X0066334Y0201687D01*
X0065956Y0201687D01*
X0065210Y0201568D01*
X0064491Y0201335D01*
X0063818Y0200992D01*
X0063207Y0200548D01*
X0062673Y0200014D01*
X0062229Y0199402D01*
X0061886Y0198729D01*
X0061652Y0198011D01*
X0061534Y0197264D01*
X0061534Y0194287D01*
X0066334Y0194287D01*
X0056334Y0194287D01*
X0056334Y0194287D01*
X0056334Y0201687D01*
X0056712Y0201687D01*
X0057458Y0201568D01*
X0058176Y0201335D01*
X0058850Y0200992D01*
X0059461Y0200548D01*
X0059995Y0200014D01*
X0060439Y0199402D01*
X0060782Y0198729D01*
X0061016Y0198011D01*
X0061134Y0197264D01*
X0061134Y0194287D01*
X0056334Y0194287D01*
X0056334Y0194287D01*
X0056334Y0201687D01*
X0055956Y0201687D01*
X0055210Y0201568D01*
X0054491Y0201335D01*
X0053818Y0200992D01*
X0053207Y0200548D01*
X0052673Y0200014D01*
X0052229Y0199402D01*
X0051886Y0198729D01*
X0051652Y0198011D01*
X0051534Y0197264D01*
X0051534Y0194287D01*
X0056334Y0194287D01*
X0056334Y0194287D01*
X0061134Y0194287D01*
X0061134Y0191309D01*
X0061016Y0190563D01*
X0060782Y0189844D01*
X0060439Y0189171D01*
X0059995Y0188560D01*
X0059461Y0188025D01*
X0058850Y0187581D01*
X0058176Y0187238D01*
X0057458Y0187005D01*
X0056712Y0186887D01*
X0056334Y0186887D01*
X0056334Y0194286D01*
X0056334Y0194286D01*
X0056334Y0186887D01*
X0055956Y0186887D01*
X0055210Y0187005D01*
X0054491Y0187238D01*
X0053818Y0187581D01*
X0053207Y0188025D01*
X0052673Y0188560D01*
X0052229Y0189171D01*
X0051886Y0189844D01*
X0051652Y0190563D01*
X0051534Y0191309D01*
X0051534Y0194287D01*
X0056334Y0194287D01*
X0056334Y0194081D02*
X0056334Y0194081D01*
X0056334Y0196479D02*
X0056334Y0196479D01*
X0056334Y0198878D02*
X0056334Y0198878D01*
X0056334Y0201276D02*
X0056334Y0201276D01*
X0058291Y0201276D02*
X0064376Y0201276D01*
X0066334Y0201276D02*
X0066334Y0201276D01*
X0068291Y0201276D02*
X0074376Y0201276D01*
X0076334Y0201276D02*
X0076334Y0201276D01*
X0078291Y0201276D02*
X0084376Y0201276D01*
X0086334Y0201276D02*
X0086334Y0201276D01*
X0088291Y0201276D02*
X0094376Y0201276D01*
X0096334Y0201276D02*
X0096334Y0201276D01*
X0098291Y0201276D02*
X0104376Y0201276D01*
X0106334Y0201276D02*
X0106334Y0201276D01*
X0108291Y0201276D02*
X0109500Y0201276D01*
X0109490Y0203675D02*
X0063210Y0203675D01*
X0062369Y0202834D02*
X0076622Y0217087D01*
X0077249Y0217087D01*
X0078940Y0217787D01*
X0080234Y0219081D01*
X0080934Y0220772D01*
X0080934Y0227802D01*
X0080234Y0229492D01*
X0078940Y0230786D01*
X0077249Y0231487D01*
X0075419Y0231487D01*
X0073728Y0230786D01*
X0072434Y0229492D01*
X0071734Y0227802D01*
X0071734Y0220772D01*
X0072174Y0219709D01*
X0059214Y0206750D01*
X0052553Y0206750D01*
X0051634Y0206369D01*
X0049700Y0204436D01*
X0049700Y0211314D01*
X0055472Y0217087D01*
X0057249Y0217087D01*
X0058940Y0217787D01*
X0060234Y0219081D01*
X0060934Y0220772D01*
X0060934Y0227802D01*
X0060234Y0229492D01*
X0058940Y0230786D01*
X0057249Y0231487D01*
X0055419Y0231487D01*
X0053728Y0230786D01*
X0052434Y0229492D01*
X0051734Y0227802D01*
X0051734Y0220772D01*
X0051837Y0220523D01*
X0045081Y0213766D01*
X0044700Y0212847D01*
X0044700Y0184057D01*
X0044300Y0184457D01*
X0044300Y0221664D01*
X0054536Y0231900D01*
X0108264Y0231900D01*
X0119250Y0220914D01*
X0119250Y0219654D01*
X0119859Y0218184D01*
X0120984Y0217059D01*
X0122454Y0216450D01*
X0124046Y0216450D01*
X0125516Y0217059D01*
X0126641Y0218184D01*
X0127250Y0219654D01*
X0127250Y0221246D01*
X0126641Y0222716D01*
X0125516Y0223841D01*
X0124046Y0224450D01*
X0122786Y0224450D01*
X0111736Y0235500D01*
X0148314Y0235500D01*
X0151350Y0232464D01*
X0151350Y0198536D01*
X0147789Y0194975D01*
X0147565Y0195068D01*
X0140535Y0195068D01*
X0138845Y0194367D01*
X0138142Y0193665D01*
X0138116Y0193691D01*
X0137911Y0193776D01*
X0139198Y0195062D01*
X0139966Y0195381D01*
X0140477Y0195892D01*
X0140535Y0195868D01*
X0147565Y0195868D01*
X0149256Y0196568D01*
X0150550Y0197862D01*
X0151250Y0199553D01*
X0151250Y0201383D01*
X0150550Y0203073D01*
X0149256Y0204367D01*
X0147565Y0205068D01*
X0140535Y0205068D01*
X0138845Y0204367D01*
X0137551Y0203073D01*
X0136850Y0201383D01*
X0136850Y0199688D01*
X0136684Y0199619D01*
X0135981Y0198916D01*
X0121581Y0184516D01*
X0121200Y0183597D01*
X0121200Y0144857D01*
X0121051Y0144708D01*
X0121051Y0145554D01*
X0118034Y0148570D01*
X0113768Y0148570D01*
X0111042Y0145845D01*
X0108117Y0148770D01*
X0105901Y0148770D01*
X0105901Y0143421D01*
X0105901Y0143421D01*
X0105901Y0148770D01*
X0103685Y0148770D01*
X0102500Y0147586D01*
X0102500Y0148014D01*
X0103586Y0149100D01*
X0105297Y0149100D01*
X0106216Y0149481D01*
X0106919Y0150184D01*
X0115919Y0159184D01*
X0116238Y0159952D01*
X0116640Y0160354D01*
X0116658Y0160354D01*
X0118349Y0161055D01*
X0119643Y0162349D01*
X0120343Y0164039D01*
X0120343Y0171069D01*
X0119643Y0172760D01*
X0118349Y0174054D01*
X0116658Y0174754D01*
X0114828Y0174754D01*
X0113138Y0174054D01*
X0111844Y0172760D01*
X0111143Y0171069D01*
X0111143Y0164039D01*
X0111761Y0162547D01*
X0111681Y0162466D01*
X0111362Y0161698D01*
X0103764Y0154100D01*
X0102053Y0154100D01*
X0101134Y0153719D01*
X0098964Y0151550D01*
X0097704Y0151550D01*
X0096234Y0150941D01*
X0095109Y0149816D01*
X0094500Y0148346D01*
X0094500Y0146754D01*
X0095109Y0145284D01*
X0096234Y0144159D01*
X0097704Y0143550D01*
X0099296Y0143550D01*
X0100551Y0144070D01*
X0100551Y0143421D01*
X0105901Y0143421D01*
X0105901Y0143420D02*
X0098775Y0143420D01*
X0085822Y0130468D01*
X0085822Y0130468D01*
X0078422Y0130468D01*
X0078422Y0130845D01*
X0078540Y0131592D01*
X0078774Y0132310D01*
X0079117Y0132983D01*
X0079561Y0133595D01*
X0080095Y0134129D01*
X0080135Y0134158D01*
X0079809Y0134484D01*
X0079592Y0135007D01*
X0078050Y0133464D01*
X0078050Y0077486D01*
X0078836Y0076700D01*
X0080097Y0076700D01*
X0081016Y0076319D01*
X0081719Y0075616D01*
X0082279Y0075056D01*
X0082307Y0075068D01*
X0089337Y0075068D01*
X0091028Y0074367D01*
X0092322Y0073073D01*
X0093022Y0071383D01*
X0093022Y0069553D01*
X0092322Y0067862D01*
X0091028Y0066568D01*
X0089337Y0065868D01*
X0082307Y0065868D01*
X0080616Y0066568D01*
X0079322Y0067862D01*
X0078622Y0069553D01*
X0078622Y0071383D01*
X0078698Y0071566D01*
X0078564Y0071700D01*
X0077303Y0071700D01*
X0076384Y0072081D01*
X0076250Y0072214D01*
X0076250Y0060836D01*
X0082103Y0054983D01*
X0082307Y0055068D01*
X0089337Y0055068D01*
X0091028Y0054367D01*
X0092322Y0053073D01*
X0093022Y0051383D01*
X0093022Y0049553D01*
X0092322Y0047862D01*
X0091028Y0046568D01*
X0089337Y0045868D01*
X0082307Y0045868D01*
X0080616Y0046568D01*
X0079322Y0047862D01*
X0078622Y0049553D01*
X0078622Y0051383D01*
X0078625Y0051390D01*
X0072334Y0057681D01*
X0071631Y0058384D01*
X0071250Y0059303D01*
X0071250Y0135897D01*
X0071631Y0136816D01*
X0074257Y0139442D01*
X0073734Y0139659D01*
X0072609Y0140784D01*
X0072000Y0142254D01*
X0072000Y0143514D01*
X0055160Y0160354D01*
X0054828Y0160354D01*
X0053138Y0161055D01*
X0051844Y0162349D01*
X0051143Y0164039D01*
X0051143Y0171069D01*
X0051844Y0172760D01*
X0053138Y0174054D01*
X0053154Y0174061D01*
X0045800Y0181414D01*
X0045800Y0180504D01*
X0045191Y0179034D01*
X0044066Y0177909D01*
X0042596Y0177300D01*
X0041004Y0177300D01*
X0040700Y0177426D01*
X0040700Y0163436D01*
X0041669Y0162466D01*
X0042050Y0161547D01*
X0042050Y0085853D01*
X0041669Y0084934D01*
X0040966Y0084231D01*
X0036920Y0080184D01*
X0036920Y0079592D01*
X0036219Y0077901D01*
X0034925Y0076607D01*
X0033235Y0075907D01*
X0026205Y0075907D01*
X0024514Y0076607D01*
X0023220Y0077901D01*
X0022520Y0079592D01*
X0022520Y0081422D01*
X0023220Y0083113D01*
X0024514Y0084407D01*
X0026205Y0085107D01*
X0033235Y0085107D01*
X0034321Y0084657D01*
X0037050Y0087386D01*
X0037050Y0160014D01*
X0036784Y0160281D01*
X0036081Y0160984D01*
X0035700Y0161903D01*
X0035700Y0223647D01*
X0036081Y0224566D01*
X0051000Y0239486D01*
X0051000Y0239786D01*
X0007400Y0196872D01*
X0007400Y0017099D01*
X0008213Y0017436D01*
X0010202Y0017436D01*
X0012040Y0016675D01*
X0013447Y0015268D01*
X0014208Y0013431D01*
X0014208Y0011442D01*
X0014969Y0009604D01*
X0016376Y0008197D01*
X0018213Y0007436D01*
X0020202Y0007436D01*
X0022040Y0008197D01*
X0023447Y0009604D01*
X0024208Y0011442D01*
X0024969Y0009604D01*
X0026376Y0008197D01*
X0028213Y0007436D01*
X0030202Y0007436D01*
X0032040Y0008197D01*
X0033447Y0009604D01*
X0034208Y0011442D01*
X0034969Y0009604D01*
X0036376Y0008197D01*
X0038213Y0007436D01*
X0040202Y0007436D01*
X0042040Y0008197D01*
X0043447Y0009604D01*
X0044208Y0011442D01*
X0044969Y0009604D01*
X0046376Y0008197D01*
X0048213Y0007436D01*
X0050202Y0007436D01*
X0052040Y0008197D01*
X0053447Y0009604D01*
X0054208Y0011442D01*
X0054208Y0013431D01*
X0053447Y0015268D01*
X0052040Y0016675D01*
X0050202Y0017436D01*
X0048213Y0017436D01*
X0046376Y0016675D01*
X0044969Y0015268D01*
X0044208Y0013431D01*
X0044208Y0011442D01*
X0044208Y0013431D01*
X0043447Y0015268D01*
X0042040Y0016675D01*
X0040202Y0017436D01*
X0038213Y0017436D01*
X0036376Y0016675D01*
X0034969Y0015268D01*
X0034208Y0013431D01*
X0034208Y0011442D01*
X0034208Y0013431D01*
X0033447Y0015268D01*
X0032040Y0016675D01*
X0030202Y0017436D01*
X0028213Y0017436D01*
X0026376Y0016675D01*
X0024969Y0015268D01*
X0024208Y0013431D01*
X0024208Y0011442D01*
X0024208Y0013431D01*
X0023447Y0015268D01*
X0022040Y0016675D01*
X0020202Y0017436D01*
X0018213Y0017436D01*
X0016376Y0016675D01*
X0014969Y0015268D01*
X0014208Y0013431D01*
X0014208Y0011442D01*
X0013447Y0009604D01*
X0012040Y0008197D01*
X0010202Y0007436D01*
X0008213Y0007436D01*
X0007400Y0007773D01*
X0013238Y0009396D02*
X0015177Y0009396D01*
X0014208Y0011794D02*
X0014208Y0011794D01*
X0013892Y0014193D02*
X0014523Y0014193D01*
X0016292Y0016591D02*
X0012124Y0016591D01*
X0007400Y0018990D02*
X0060004Y0018990D01*
X0056292Y0016591D02*
X0052124Y0016591D01*
X0053892Y0014193D02*
X0054523Y0014193D01*
X0054208Y0011794D02*
X0054208Y0011794D01*
X0053238Y0009396D02*
X0055177Y0009396D01*
X0063238Y0009396D02*
X0065177Y0009396D01*
X0064208Y0011794D02*
X0064208Y0011794D01*
X0063892Y0014193D02*
X0064523Y0014193D01*
X0064677Y0016591D02*
X0066292Y0016591D01*
X0074428Y0014193D02*
X0074523Y0014193D01*
X0074208Y0011794D02*
X0074208Y0011794D01*
X0073238Y0009396D02*
X0075177Y0009396D01*
X0083238Y0009396D02*
X0085177Y0009396D01*
X0084208Y0011794D02*
X0084208Y0011794D01*
X0084328Y0014193D02*
X0084523Y0014193D01*
X0086277Y0016591D02*
X0086292Y0016591D01*
X0092124Y0016591D02*
X0096292Y0016591D01*
X0094523Y0014193D02*
X0093892Y0014193D01*
X0094208Y0011794D02*
X0094208Y0011794D01*
X0093238Y0009396D02*
X0095177Y0009396D01*
X0103238Y0009396D02*
X0105177Y0009396D01*
X0104208Y0011794D02*
X0104208Y0011794D01*
X0103892Y0014193D02*
X0104523Y0014193D01*
X0106292Y0016591D02*
X0102124Y0016591D01*
X0110725Y0018990D02*
X0175825Y0018990D01*
X0176292Y0016591D02*
X0172124Y0016591D01*
X0173892Y0014193D02*
X0174523Y0014193D01*
X0174208Y0011794D02*
X0174208Y0011794D01*
X0173238Y0009396D02*
X0175177Y0009396D01*
X0183238Y0009396D02*
X0185177Y0009396D01*
X0184208Y0011794D02*
X0184208Y0011794D01*
X0183892Y0014193D02*
X0184523Y0014193D01*
X0186292Y0016591D02*
X0182124Y0016591D01*
X0173426Y0021388D02*
X0113124Y0021388D01*
X0115522Y0023787D02*
X0171028Y0023787D01*
X0168629Y0026185D02*
X0117921Y0026185D01*
X0120319Y0028584D02*
X0166231Y0028584D01*
X0163832Y0030982D02*
X0122718Y0030982D01*
X0125116Y0033381D02*
X0161434Y0033381D01*
X0159035Y0035779D02*
X0127515Y0035779D01*
X0129913Y0038178D02*
X0137420Y0038178D01*
X0137551Y0037862D02*
X0138845Y0036568D01*
X0140535Y0035868D01*
X0147565Y0035868D01*
X0149256Y0036568D01*
X0150550Y0037862D01*
X0151250Y0039553D01*
X0151250Y0041383D01*
X0150550Y0043073D01*
X0149256Y0044367D01*
X0147565Y0045068D01*
X0140535Y0045068D01*
X0138845Y0044367D01*
X0137551Y0043073D01*
X0136850Y0041383D01*
X0136850Y0039553D01*
X0137551Y0037862D01*
X0136850Y0040576D02*
X0131935Y0040576D01*
X0132050Y0042975D02*
X0137510Y0042975D01*
X0132050Y0045373D02*
X0148091Y0045373D01*
X0150591Y0042975D02*
X0151840Y0042975D01*
X0151250Y0040576D02*
X0154238Y0040576D01*
X0156637Y0038178D02*
X0150681Y0038178D01*
X0158911Y0042975D02*
X0181990Y0042975D01*
X0179591Y0045373D02*
X0156512Y0045373D01*
X0154114Y0047772D02*
X0177193Y0047772D01*
X0174794Y0050170D02*
X0151250Y0050170D01*
X0150759Y0052569D02*
X0172396Y0052569D01*
X0169997Y0054967D02*
X0147808Y0054967D01*
X0147565Y0055868D02*
X0149256Y0056568D01*
X0150550Y0057862D01*
X0151250Y0059553D01*
X0151250Y0061383D01*
X0150550Y0063073D01*
X0149256Y0064367D01*
X0147565Y0065068D01*
X0140535Y0065068D01*
X0138845Y0064367D01*
X0137551Y0063073D01*
X0136850Y0061383D01*
X0136850Y0059553D01*
X0137551Y0057862D01*
X0138845Y0056568D01*
X0140535Y0055868D01*
X0147565Y0055868D01*
X0150054Y0057366D02*
X0167599Y0057366D01*
X0165200Y0059764D02*
X0151250Y0059764D01*
X0150927Y0062163D02*
X0162802Y0062163D01*
X0160403Y0064561D02*
X0148788Y0064561D01*
X0149648Y0066960D02*
X0158005Y0066960D01*
X0155606Y0069358D02*
X0151170Y0069358D01*
X0151095Y0071757D02*
X0153208Y0071757D01*
X0150809Y0074155D02*
X0149468Y0074155D01*
X0153083Y0078952D02*
X0155199Y0078952D01*
X0155482Y0076554D02*
X0157411Y0076554D01*
X0157880Y0074155D02*
X0159809Y0074155D01*
X0160279Y0071757D02*
X0162208Y0071757D01*
X0162677Y0069358D02*
X0164606Y0069358D01*
X0165076Y0066960D02*
X0167005Y0066960D01*
X0167474Y0064561D02*
X0169403Y0064561D01*
X0169873Y0062163D02*
X0171802Y0062163D01*
X0172271Y0059764D02*
X0174200Y0059764D01*
X0174670Y0057366D02*
X0176599Y0057366D01*
X0177068Y0054967D02*
X0178997Y0054967D01*
X0179467Y0052569D02*
X0181396Y0052569D01*
X0181865Y0050170D02*
X0183794Y0050170D01*
X0184264Y0047772D02*
X0186193Y0047772D01*
X0184388Y0040576D02*
X0161309Y0040576D01*
X0163708Y0038178D02*
X0186787Y0038178D01*
X0189185Y0035779D02*
X0166106Y0035779D01*
X0168505Y0033381D02*
X0191584Y0033381D01*
X0193982Y0030982D02*
X0170903Y0030982D01*
X0173302Y0028584D02*
X0196381Y0028584D01*
X0198779Y0026185D02*
X0175700Y0026185D01*
X0178099Y0023787D02*
X0201178Y0023787D01*
X0202124Y0016591D02*
X0206292Y0016591D01*
X0204523Y0014193D02*
X0203892Y0014193D01*
X0204208Y0011794D02*
X0204208Y0011794D01*
X0203238Y0009396D02*
X0205177Y0009396D01*
X0213238Y0009396D02*
X0215177Y0009396D01*
X0214208Y0011794D02*
X0214208Y0011794D01*
X0213892Y0014193D02*
X0214523Y0014193D01*
X0216292Y0016591D02*
X0212124Y0016591D01*
X0222124Y0016591D02*
X0226292Y0016591D01*
X0224523Y0014193D02*
X0223892Y0014193D01*
X0224208Y0011794D02*
X0224208Y0011794D01*
X0223238Y0009396D02*
X0225177Y0009396D01*
X0233238Y0009396D02*
X0235177Y0009396D01*
X0234208Y0011794D02*
X0234208Y0011794D01*
X0233892Y0014193D02*
X0234523Y0014193D01*
X0236292Y0016591D02*
X0232124Y0016591D01*
X0242124Y0016591D02*
X0246292Y0016591D01*
X0244523Y0014193D02*
X0243892Y0014193D01*
X0244208Y0011794D02*
X0244208Y0011794D01*
X0243238Y0009396D02*
X0245177Y0009396D01*
X0253238Y0009396D02*
X0255177Y0009396D01*
X0254208Y0011794D02*
X0254208Y0011794D01*
X0253892Y0014193D02*
X0254523Y0014193D01*
X0256292Y0016591D02*
X0252124Y0016591D01*
X0262124Y0016591D02*
X0263723Y0016591D01*
X0263892Y0014193D02*
X0264523Y0014193D01*
X0264208Y0011794D02*
X0264208Y0011794D01*
X0263238Y0009396D02*
X0265177Y0009396D01*
X0273238Y0009396D02*
X0275177Y0009396D01*
X0274208Y0011794D02*
X0274208Y0011794D01*
X0273892Y0014193D02*
X0274523Y0014193D01*
X0276292Y0016591D02*
X0272124Y0016591D01*
X0268396Y0018990D02*
X0280225Y0018990D01*
X0282124Y0016591D02*
X0282623Y0016591D01*
X0283892Y0014193D02*
X0284523Y0014193D01*
X0284208Y0011794D02*
X0284208Y0011794D01*
X0283238Y0009396D02*
X0285177Y0009396D01*
X0275705Y0021388D02*
X0265997Y0021388D01*
X0265372Y0023787D02*
X0274950Y0023787D01*
X0275678Y0026185D02*
X0267771Y0026185D01*
X0311600Y0071757D02*
X0401409Y0071757D01*
X0401409Y0074155D02*
X0312665Y0074155D01*
X0313100Y0076554D02*
X0401409Y0076554D01*
X0401409Y0078952D02*
X0360397Y0078952D01*
X0361452Y0080008D02*
X0358523Y0077079D01*
X0354381Y0077079D01*
X0351452Y0080008D01*
X0351452Y0084150D01*
X0354381Y0087079D01*
X0358523Y0087079D01*
X0361452Y0084150D01*
X0361452Y0080008D01*
X0361452Y0081351D02*
X0401409Y0081351D01*
X0401409Y0083749D02*
X0370077Y0083749D01*
X0368606Y0082279D02*
X0366452Y0082279D01*
X0366452Y0087479D01*
X0366452Y0098379D01*
X0366452Y0098379D01*
X0366452Y0103579D01*
X0364298Y0103579D01*
X0361252Y0100533D01*
X0361252Y0098379D01*
X0366452Y0098379D01*
X0366452Y0103579D01*
X0368606Y0103579D01*
X0371652Y0100533D01*
X0371652Y0098379D01*
X0366452Y0098379D01*
X0366452Y0098379D01*
X0366452Y0109279D01*
X0366452Y0109279D01*
X0366452Y0114479D01*
X0364298Y0114479D01*
X0361252Y0111433D01*
X0361252Y0109279D01*
X0366452Y0109279D01*
X0366452Y0114479D01*
X0368606Y0114479D01*
X0371652Y0111433D01*
X0371652Y0109279D01*
X0366452Y0109279D01*
X0366452Y0109279D01*
X0366452Y0120079D01*
X0366452Y0120079D01*
X0366452Y0125279D01*
X0364298Y0125279D01*
X0361252Y0122233D01*
X0361252Y0120079D01*
X0366452Y0120079D01*
X0366452Y0125279D01*
X0368606Y0125279D01*
X0371652Y0122233D01*
X0371652Y0120079D01*
X0366452Y0120079D01*
X0366452Y0120079D01*
X0366452Y0130979D01*
X0366452Y0130979D01*
X0366452Y0136179D01*
X0364298Y0136179D01*
X0361252Y0133133D01*
X0361252Y0130979D01*
X0366452Y0130979D01*
X0366452Y0136179D01*
X0368606Y0136179D01*
X0371652Y0133133D01*
X0371652Y0130979D01*
X0366452Y0130979D01*
X0366452Y0130979D01*
X0366452Y0141879D01*
X0366452Y0141879D01*
X0366452Y0147079D01*
X0364298Y0147079D01*
X0361252Y0144033D01*
X0361252Y0141879D01*
X0366452Y0141879D01*
X0366452Y0147079D01*
X0368606Y0147079D01*
X0371652Y0144033D01*
X0371652Y0141879D01*
X0366452Y0141879D01*
X0366452Y0141879D01*
X0366452Y0152679D01*
X0366452Y0152679D01*
X0366452Y0157879D01*
X0364298Y0157879D01*
X0361252Y0154833D01*
X0361252Y0152679D01*
X0366452Y0152679D01*
X0366452Y0157879D01*
X0368606Y0157879D01*
X0371652Y0154833D01*
X0371652Y0152679D01*
X0366452Y0152679D01*
X0366452Y0152679D01*
X0366452Y0163579D01*
X0366452Y0163579D01*
X0366452Y0168779D01*
X0364298Y0168779D01*
X0361252Y0165733D01*
X0361252Y0163579D01*
X0366452Y0163579D01*
X0366452Y0168779D01*
X0368606Y0168779D01*
X0371652Y0165733D01*
X0371652Y0163579D01*
X0366452Y0163579D01*
X0366452Y0163579D01*
X0366452Y0163579D01*
X0371652Y0163579D01*
X0371652Y0161425D01*
X0368606Y0158379D01*
X0366452Y0158379D01*
X0366452Y0163579D01*
X0361252Y0163579D01*
X0361252Y0161425D01*
X0364298Y0158379D01*
X0366452Y0158379D01*
X0366452Y0163579D01*
X0366452Y0163579D01*
X0366452Y0162900D02*
X0366452Y0162900D01*
X0366452Y0160502D02*
X0366452Y0160502D01*
X0370729Y0160502D02*
X0401409Y0160502D01*
X0401409Y0162900D02*
X0371652Y0162900D01*
X0371652Y0165299D02*
X0401409Y0165299D01*
X0401409Y0167697D02*
X0369687Y0167697D01*
X0369140Y0170096D02*
X0401409Y0170096D01*
X0401409Y0172494D02*
X0371452Y0172494D01*
X0371452Y0174893D02*
X0401409Y0174893D01*
X0401409Y0177291D02*
X0370710Y0177291D01*
X0370333Y0182088D02*
X0401409Y0182088D01*
X0401409Y0179690D02*
X0361452Y0179690D01*
X0361313Y0182088D02*
X0362571Y0182088D01*
X0361452Y0184487D02*
X0358915Y0184487D01*
X0359630Y0186885D02*
X0360279Y0186885D01*
X0363350Y0191682D02*
X0363877Y0191682D01*
X0369027Y0191682D02*
X0373932Y0191682D01*
X0376331Y0189284D02*
X0369518Y0189284D01*
X0371452Y0186885D02*
X0377550Y0186885D01*
X0379006Y0184487D02*
X0371452Y0184487D01*
X0384094Y0184487D02*
X0401409Y0184487D01*
X0401409Y0186885D02*
X0385550Y0186885D01*
X0385182Y0189284D02*
X0401409Y0189284D01*
X0401409Y0191682D02*
X0381003Y0191682D01*
X0378605Y0194081D02*
X0401409Y0194081D01*
X0401409Y0196479D02*
X0376206Y0196479D01*
X0373808Y0198878D02*
X0401409Y0198878D01*
X0401409Y0201276D02*
X0371409Y0201276D01*
X0370119Y0203675D02*
X0401409Y0203675D01*
X0401409Y0206073D02*
X0371452Y0206073D01*
X0371452Y0208472D02*
X0401409Y0208472D01*
X0401409Y0210870D02*
X0369731Y0210870D01*
X0366617Y0213269D02*
X0401409Y0213269D01*
X0401409Y0215668D02*
X0366500Y0215668D01*
X0365420Y0218066D02*
X0401409Y0218066D01*
X0401409Y0220465D02*
X0363021Y0220465D01*
X0360622Y0222863D02*
X0401409Y0222863D01*
X0401409Y0225262D02*
X0358224Y0225262D01*
X0359912Y0228179D02*
X0356936Y0228976D01*
X0354268Y0230516D01*
X0352090Y0232695D01*
X0350549Y0235363D01*
X0349752Y0238338D01*
X0349752Y0241419D01*
X0350549Y0244395D01*
X0352090Y0247063D01*
X0354268Y0249241D01*
X0356936Y0250781D01*
X0359912Y0251579D01*
X0362992Y0251579D01*
X0365968Y0250781D01*
X0368636Y0249241D01*
X0370814Y0247063D01*
X0372355Y0244395D01*
X0373152Y0241419D01*
X0373152Y0238338D01*
X0372355Y0235363D01*
X0370814Y0232695D01*
X0368636Y0230516D01*
X0365968Y0228976D01*
X0362992Y0228179D01*
X0359912Y0228179D01*
X0355825Y0227660D02*
X0401409Y0227660D01*
X0401409Y0230059D02*
X0367843Y0230059D01*
X0370577Y0232457D02*
X0401409Y0232457D01*
X0401409Y0234856D02*
X0372062Y0234856D01*
X0372861Y0237254D02*
X0401409Y0237254D01*
X0401409Y0239653D02*
X0373152Y0239653D01*
X0372983Y0242051D02*
X0401409Y0242051D01*
X0401409Y0244450D02*
X0372323Y0244450D01*
X0370938Y0246848D02*
X0401409Y0246848D01*
X0401409Y0249247D02*
X0368626Y0249247D01*
X0354278Y0249247D02*
X0334239Y0249247D01*
X0336637Y0246848D02*
X0351966Y0246848D01*
X0350581Y0244450D02*
X0339036Y0244450D01*
X0341434Y0242051D02*
X0349921Y0242051D01*
X0349752Y0239653D02*
X0343833Y0239653D01*
X0346231Y0237254D02*
X0350042Y0237254D01*
X0350842Y0234856D02*
X0348630Y0234856D01*
X0351028Y0232457D02*
X0352327Y0232457D01*
X0353427Y0230059D02*
X0355061Y0230059D01*
X0401409Y0251645D02*
X0063049Y0251645D01*
X0060612Y0249247D02*
X0206561Y0249247D01*
X0204163Y0246848D02*
X0058175Y0246848D01*
X0056940Y0244450D02*
X0201764Y0244450D01*
X0199366Y0242051D02*
X0160534Y0242051D01*
X0162933Y0239653D02*
X0196967Y0239653D01*
X0194569Y0237254D02*
X0165331Y0237254D01*
X0167730Y0234856D02*
X0192206Y0234856D01*
X0191850Y0232457D02*
X0170128Y0232457D01*
X0172527Y0230059D02*
X0191850Y0230059D01*
X0191850Y0227660D02*
X0174925Y0227660D01*
X0177324Y0225262D02*
X0191850Y0225262D01*
X0191850Y0222863D02*
X0179722Y0222863D01*
X0182121Y0220465D02*
X0191850Y0220465D01*
X0191850Y0218066D02*
X0184520Y0218066D01*
X0189039Y0215668D02*
X0189632Y0215668D01*
X0151350Y0215668D02*
X0114468Y0215668D01*
X0116300Y0213269D02*
X0137746Y0213269D01*
X0137551Y0213073D02*
X0136850Y0211383D01*
X0136850Y0209553D01*
X0137551Y0207862D01*
X0138845Y0206568D01*
X0140535Y0205868D01*
X0147565Y0205868D01*
X0149256Y0206568D01*
X0150550Y0207862D01*
X0151250Y0209553D01*
X0151250Y0211383D01*
X0150550Y0213073D01*
X0149256Y0214367D01*
X0147565Y0215068D01*
X0140535Y0215068D01*
X0138845Y0214367D01*
X0137551Y0213073D01*
X0136850Y0210870D02*
X0116300Y0210870D01*
X0116300Y0208472D02*
X0137298Y0208472D01*
X0140039Y0206073D02*
X0116300Y0206073D01*
X0116300Y0203675D02*
X0138152Y0203675D01*
X0136850Y0201276D02*
X0116300Y0201276D01*
X0116300Y0198878D02*
X0135942Y0198878D01*
X0133544Y0196479D02*
X0116300Y0196479D01*
X0116300Y0194081D02*
X0131145Y0194081D01*
X0128747Y0191682D02*
X0116300Y0191682D01*
X0116300Y0189284D02*
X0126348Y0189284D01*
X0123950Y0186885D02*
X0116300Y0186885D01*
X0116300Y0184487D02*
X0121568Y0184487D01*
X0121200Y0182088D02*
X0116300Y0182088D01*
X0116300Y0179690D02*
X0121200Y0179690D01*
X0121200Y0177291D02*
X0114677Y0177291D01*
X0115216Y0177831D02*
X0115216Y0177831D01*
X0112278Y0174893D02*
X0121200Y0174893D01*
X0121200Y0172494D02*
X0119753Y0172494D01*
X0120343Y0170096D02*
X0121200Y0170096D01*
X0121200Y0167697D02*
X0120343Y0167697D01*
X0120343Y0165299D02*
X0121200Y0165299D01*
X0121200Y0162900D02*
X0119871Y0162900D01*
X0121200Y0160502D02*
X0117014Y0160502D01*
X0114839Y0158103D02*
X0121200Y0158103D01*
X0121200Y0155705D02*
X0112440Y0155705D01*
X0110042Y0153306D02*
X0121200Y0153306D01*
X0121200Y0150908D02*
X0107643Y0150908D01*
X0106919Y0150184D02*
X0106919Y0150184D01*
X0105901Y0148509D02*
X0105901Y0148509D01*
X0105901Y0146111D02*
X0105901Y0146111D01*
X0105901Y0143712D02*
X0105901Y0143712D01*
X0105901Y0143421D02*
X0105901Y0143420D01*
X0105901Y0143420D01*
X0105901Y0138070D01*
X0103685Y0138070D01*
X0100551Y0141204D01*
X0100551Y0143420D01*
X0105901Y0143420D01*
X0105901Y0141314D02*
X0105901Y0141314D01*
X0105901Y0138915D02*
X0105901Y0138915D01*
X0108961Y0138915D02*
X0113123Y0138915D01*
X0118679Y0138915D02*
X0120828Y0138915D01*
X0126572Y0138915D02*
X0137114Y0138915D01*
X0136850Y0141314D02*
X0127700Y0141314D01*
X0127196Y0143712D02*
X0134352Y0143712D01*
X0131954Y0146111D02*
X0126200Y0146111D01*
X0126200Y0148509D02*
X0131550Y0148509D01*
X0131550Y0150908D02*
X0126200Y0150908D01*
X0126200Y0153306D02*
X0131550Y0153306D01*
X0131550Y0155705D02*
X0126200Y0155705D01*
X0126200Y0158103D02*
X0131550Y0158103D01*
X0131550Y0160502D02*
X0126200Y0160502D01*
X0126200Y0162900D02*
X0131550Y0162900D01*
X0131550Y0165299D02*
X0126200Y0165299D01*
X0126200Y0167697D02*
X0131550Y0167697D01*
X0131550Y0170096D02*
X0126200Y0170096D01*
X0126200Y0172494D02*
X0131550Y0172494D01*
X0131550Y0174893D02*
X0126200Y0174893D01*
X0126200Y0177291D02*
X0131550Y0177291D01*
X0131550Y0179690D02*
X0126200Y0179690D01*
X0126224Y0182088D02*
X0131550Y0182088D01*
X0131550Y0184487D02*
X0128622Y0184487D01*
X0131021Y0186885D02*
X0131550Y0186885D01*
X0138216Y0194081D02*
X0138558Y0194081D01*
X0149042Y0196479D02*
X0149294Y0196479D01*
X0150971Y0198878D02*
X0151350Y0198878D01*
X0151350Y0201276D02*
X0151250Y0201276D01*
X0151350Y0203675D02*
X0149949Y0203675D01*
X0151350Y0206073D02*
X0148062Y0206073D01*
X0150803Y0208472D02*
X0151350Y0208472D01*
X0151350Y0210870D02*
X0151250Y0210870D01*
X0151350Y0213269D02*
X0150354Y0213269D01*
X0149256Y0216568D02*
X0147565Y0215868D01*
X0140535Y0215868D01*
X0138845Y0216568D01*
X0137551Y0217862D01*
X0136850Y0219553D01*
X0136850Y0221383D01*
X0137551Y0223073D01*
X0138845Y0224367D01*
X0140535Y0225068D01*
X0147565Y0225068D01*
X0149256Y0224367D01*
X0150550Y0223073D01*
X0151250Y0221383D01*
X0151250Y0219553D01*
X0150550Y0217862D01*
X0149256Y0216568D01*
X0150635Y0218066D02*
X0151350Y0218066D01*
X0151350Y0220465D02*
X0151250Y0220465D01*
X0151350Y0222863D02*
X0150637Y0222863D01*
X0151350Y0225262D02*
X0121974Y0225262D01*
X0119575Y0227660D02*
X0137753Y0227660D01*
X0137551Y0227862D02*
X0138845Y0226568D01*
X0140535Y0225868D01*
X0147565Y0225868D01*
X0149256Y0226568D01*
X0150550Y0227862D01*
X0151250Y0229553D01*
X0151250Y0231383D01*
X0150550Y0233073D01*
X0149256Y0234367D01*
X0147565Y0235068D01*
X0140535Y0235068D01*
X0138845Y0234367D01*
X0137551Y0233073D01*
X0136850Y0231383D01*
X0136850Y0229553D01*
X0137551Y0227862D01*
X0136850Y0230059D02*
X0117177Y0230059D01*
X0114778Y0232457D02*
X0137295Y0232457D01*
X0140023Y0234856D02*
X0112380Y0234856D01*
X0110106Y0230059D02*
X0109667Y0230059D01*
X0110934Y0227660D02*
X0112504Y0227660D01*
X0110934Y0225262D02*
X0114903Y0225262D01*
X0117301Y0222863D02*
X0110934Y0222863D01*
X0110807Y0220465D02*
X0119250Y0220465D01*
X0119977Y0218066D02*
X0112070Y0218066D01*
X0107397Y0215668D02*
X0104568Y0215668D01*
X0103449Y0218066D02*
X0102170Y0218066D01*
X0101861Y0220465D02*
X0100807Y0220465D01*
X0100934Y0222863D02*
X0101734Y0222863D01*
X0101734Y0225262D02*
X0100934Y0225262D01*
X0100934Y0227660D02*
X0101734Y0227660D01*
X0103000Y0230059D02*
X0099667Y0230059D01*
X0093000Y0230059D02*
X0089667Y0230059D01*
X0090234Y0229492D02*
X0088940Y0230786D01*
X0087249Y0231487D01*
X0085419Y0231487D01*
X0083728Y0230786D01*
X0082434Y0229492D01*
X0081734Y0227802D01*
X0081734Y0220772D01*
X0082434Y0219081D01*
X0083728Y0217787D01*
X0085419Y0217087D01*
X0087249Y0217087D01*
X0088940Y0217787D01*
X0090234Y0219081D01*
X0090934Y0220772D01*
X0090934Y0227802D01*
X0090234Y0229492D01*
X0090934Y0227660D02*
X0091734Y0227660D01*
X0091734Y0225262D02*
X0090934Y0225262D01*
X0090934Y0222863D02*
X0091734Y0222863D01*
X0091861Y0220465D02*
X0090807Y0220465D01*
X0089219Y0218066D02*
X0093449Y0218066D01*
X0097497Y0215668D02*
X0075203Y0215668D01*
X0072805Y0213269D02*
X0099895Y0213269D01*
X0102294Y0210870D02*
X0070406Y0210870D01*
X0068008Y0208472D02*
X0104692Y0208472D01*
X0107091Y0206073D02*
X0065609Y0206073D01*
X0060936Y0208472D02*
X0049700Y0208472D01*
X0049700Y0210870D02*
X0063335Y0210870D01*
X0065733Y0213269D02*
X0051655Y0213269D01*
X0054053Y0215668D02*
X0068132Y0215668D01*
X0067249Y0217087D02*
X0068940Y0217787D01*
X0070234Y0219081D01*
X0070934Y0220772D01*
X0070934Y0227802D01*
X0070234Y0229492D01*
X0068940Y0230786D01*
X0067249Y0231487D01*
X0065419Y0231487D01*
X0063728Y0230786D01*
X0062434Y0229492D01*
X0061734Y0227802D01*
X0061734Y0220772D01*
X0062434Y0219081D01*
X0063728Y0217787D01*
X0065419Y0217087D01*
X0067249Y0217087D01*
X0069219Y0218066D02*
X0070530Y0218066D01*
X0070807Y0220465D02*
X0071861Y0220465D01*
X0071734Y0222863D02*
X0070934Y0222863D01*
X0070934Y0225262D02*
X0071734Y0225262D01*
X0071734Y0227660D02*
X0070934Y0227660D01*
X0069667Y0230059D02*
X0073000Y0230059D01*
X0079667Y0230059D02*
X0083000Y0230059D01*
X0081734Y0227660D02*
X0080934Y0227660D01*
X0080934Y0225262D02*
X0081734Y0225262D01*
X0081734Y0222863D02*
X0080934Y0222863D01*
X0080807Y0220465D02*
X0081861Y0220465D01*
X0083449Y0218066D02*
X0079219Y0218066D01*
X0063449Y0218066D02*
X0059219Y0218066D01*
X0060807Y0220465D02*
X0061861Y0220465D01*
X0061734Y0222863D02*
X0060934Y0222863D01*
X0060934Y0225262D02*
X0061734Y0225262D01*
X0061734Y0227660D02*
X0060934Y0227660D01*
X0059667Y0230059D02*
X0063000Y0230059D01*
X0053000Y0230059D02*
X0052694Y0230059D01*
X0051734Y0227660D02*
X0050296Y0227660D01*
X0051734Y0225262D02*
X0047897Y0225262D01*
X0045499Y0222863D02*
X0051734Y0222863D01*
X0051779Y0220465D02*
X0044300Y0220465D01*
X0044300Y0218066D02*
X0049380Y0218066D01*
X0046982Y0215668D02*
X0044300Y0215668D01*
X0044300Y0213269D02*
X0044875Y0213269D01*
X0044700Y0210870D02*
X0044300Y0210870D01*
X0044300Y0208472D02*
X0044700Y0208472D01*
X0044700Y0206073D02*
X0044300Y0206073D01*
X0044300Y0203675D02*
X0044700Y0203675D01*
X0044700Y0201276D02*
X0044300Y0201276D01*
X0044300Y0198878D02*
X0044700Y0198878D01*
X0044700Y0196479D02*
X0044300Y0196479D01*
X0044300Y0194081D02*
X0044700Y0194081D01*
X0044700Y0191682D02*
X0044300Y0191682D01*
X0044300Y0189284D02*
X0044700Y0189284D01*
X0044700Y0186885D02*
X0044300Y0186885D01*
X0044300Y0184487D02*
X0044700Y0184487D01*
X0045463Y0179690D02*
X0047525Y0179690D01*
X0049923Y0177291D02*
X0040700Y0177291D01*
X0040700Y0174893D02*
X0052322Y0174893D01*
X0051734Y0172494D02*
X0049753Y0172494D01*
X0049643Y0172760D02*
X0048349Y0174054D01*
X0046658Y0174754D01*
X0044828Y0174754D01*
X0043138Y0174054D01*
X0041844Y0172760D01*
X0041143Y0171069D01*
X0041143Y0164039D01*
X0041844Y0162349D01*
X0043138Y0161055D01*
X0044828Y0160354D01*
X0046658Y0160354D01*
X0048349Y0161055D01*
X0049643Y0162349D01*
X0050343Y0164039D01*
X0050343Y0171069D01*
X0049643Y0172760D01*
X0050343Y0170096D02*
X0051143Y0170096D01*
X0051143Y0167697D02*
X0050343Y0167697D01*
X0050343Y0165299D02*
X0051143Y0165299D01*
X0051615Y0162900D02*
X0049871Y0162900D01*
X0047014Y0160502D02*
X0054472Y0160502D01*
X0057411Y0158103D02*
X0042050Y0158103D01*
X0042050Y0155705D02*
X0059810Y0155705D01*
X0062208Y0153306D02*
X0042050Y0153306D01*
X0042050Y0150908D02*
X0064607Y0150908D01*
X0067005Y0148509D02*
X0042050Y0148509D01*
X0042050Y0146111D02*
X0069404Y0146111D01*
X0071802Y0143712D02*
X0042050Y0143712D01*
X0042050Y0141314D02*
X0072390Y0141314D01*
X0073730Y0138915D02*
X0042050Y0138915D01*
X0042050Y0136517D02*
X0071507Y0136517D01*
X0071250Y0134118D02*
X0042050Y0134118D01*
X0042050Y0131720D02*
X0071250Y0131720D01*
X0071250Y0129321D02*
X0042050Y0129321D01*
X0042050Y0126923D02*
X0071250Y0126923D01*
X0071250Y0124524D02*
X0042050Y0124524D01*
X0042050Y0122126D02*
X0071250Y0122126D01*
X0071250Y0119727D02*
X0042050Y0119727D01*
X0042050Y0117329D02*
X0046101Y0117329D01*
X0047386Y0118613D02*
X0044252Y0115479D01*
X0044252Y0113263D01*
X0044252Y0111047D01*
X0047386Y0107913D01*
X0049602Y0107913D01*
X0051818Y0107913D01*
X0054743Y0110838D01*
X0057468Y0108113D01*
X0061735Y0108113D01*
X0064752Y0111130D01*
X0064752Y0115396D01*
X0061735Y0118413D01*
X0057468Y0118413D01*
X0054743Y0115688D01*
X0051818Y0118613D01*
X0049602Y0118613D01*
X0049602Y0113263D01*
X0049602Y0113263D01*
X0049602Y0107913D01*
X0049602Y0113263D01*
X0049602Y0113263D01*
X0049602Y0095350D01*
X0054562Y0090389D01*
X0059602Y0090389D01*
X0059720Y0090507D01*
X0059720Y0090507D01*
X0067120Y0090507D01*
X0067120Y0090129D01*
X0067001Y0089383D01*
X0066768Y0088665D01*
X0066425Y0087991D01*
X0065981Y0087380D01*
X0065447Y0086846D01*
X0064835Y0086402D01*
X0064162Y0086059D01*
X0063444Y0085825D01*
X0062697Y0085707D01*
X0059720Y0085707D01*
X0059720Y0090507D01*
X0067120Y0090507D01*
X0067120Y0090885D01*
X0067001Y0091631D01*
X0066768Y0092350D01*
X0066425Y0093023D01*
X0065981Y0093634D01*
X0065447Y0094168D01*
X0064835Y0094612D01*
X0064162Y0094955D01*
X0063444Y0095189D01*
X0062697Y0095307D01*
X0059720Y0095307D01*
X0059720Y0090507D01*
X0059720Y0090507D01*
X0059720Y0080507D01*
X0059720Y0080507D01*
X0067120Y0080507D01*
X0067120Y0080129D01*
X0067001Y0079383D01*
X0066768Y0078665D01*
X0066425Y0077991D01*
X0065981Y0077380D01*
X0065447Y0076846D01*
X0064835Y0076402D01*
X0064162Y0076059D01*
X0063444Y0075825D01*
X0062697Y0075707D01*
X0059720Y0075707D01*
X0059720Y0080507D01*
X0067120Y0080507D01*
X0067120Y0080885D01*
X0067001Y0081631D01*
X0066768Y0082350D01*
X0066425Y0083023D01*
X0065981Y0083634D01*
X0065447Y0084168D01*
X0064835Y0084612D01*
X0064162Y0084955D01*
X0063444Y0085189D01*
X0062697Y0085307D01*
X0059720Y0085307D01*
X0059720Y0080507D01*
X0059720Y0080507D01*
X0059562Y0080350D01*
X0049444Y0080350D01*
X0038988Y0069894D01*
X0029720Y0069894D01*
X0029720Y0060507D01*
X0029720Y0060507D01*
X0037120Y0060507D01*
X0037120Y0060129D01*
X0037001Y0059383D01*
X0036768Y0058665D01*
X0036425Y0057991D01*
X0035981Y0057380D01*
X0035447Y0056846D01*
X0034835Y0056402D01*
X0034162Y0056059D01*
X0033444Y0055825D01*
X0032697Y0055707D01*
X0029720Y0055707D01*
X0029720Y0060507D01*
X0037120Y0060507D01*
X0037120Y0060885D01*
X0037001Y0061631D01*
X0036768Y0062350D01*
X0036425Y0063023D01*
X0035981Y0063634D01*
X0035447Y0064168D01*
X0034835Y0064612D01*
X0034162Y0064955D01*
X0033444Y0065189D01*
X0032697Y0065307D01*
X0029720Y0065307D01*
X0029720Y0060507D01*
X0029720Y0060507D01*
X0036609Y0060507D01*
X0046688Y0050428D01*
X0059641Y0050428D01*
X0059720Y0050507D01*
X0059720Y0050507D01*
X0067120Y0050507D01*
X0067120Y0050129D01*
X0067001Y0049383D01*
X0066768Y0048665D01*
X0066425Y0047991D01*
X0065981Y0047380D01*
X0065447Y0046846D01*
X0064835Y0046402D01*
X0064162Y0046059D01*
X0063444Y0045825D01*
X0062697Y0045707D01*
X0059720Y0045707D01*
X0059720Y0050507D01*
X0067120Y0050507D01*
X0067120Y0050885D01*
X0067001Y0051631D01*
X0066768Y0052350D01*
X0066425Y0053023D01*
X0065981Y0053634D01*
X0065447Y0054168D01*
X0064835Y0054612D01*
X0064162Y0054955D01*
X0063444Y0055189D01*
X0062697Y0055307D01*
X0059720Y0055307D01*
X0059720Y0050507D01*
X0059720Y0050507D01*
X0059720Y0060507D01*
X0059720Y0060507D01*
X0067120Y0060507D01*
X0067120Y0060129D01*
X0067001Y0059383D01*
X0066768Y0058665D01*
X0066425Y0057991D01*
X0065981Y0057380D01*
X0065447Y0056846D01*
X0064835Y0056402D01*
X0064162Y0056059D01*
X0063444Y0055825D01*
X0062697Y0055707D01*
X0059720Y0055707D01*
X0059720Y0060507D01*
X0067120Y0060507D01*
X0067120Y0060885D01*
X0067001Y0061631D01*
X0066768Y0062350D01*
X0066425Y0063023D01*
X0065981Y0063634D01*
X0065447Y0064168D01*
X0064835Y0064612D01*
X0064162Y0064955D01*
X0063444Y0065189D01*
X0062697Y0065307D01*
X0059720Y0065307D01*
X0059720Y0060507D01*
X0059720Y0060507D01*
X0059720Y0060507D01*
X0059720Y0055707D01*
X0056742Y0055707D01*
X0055996Y0055825D01*
X0055277Y0056059D01*
X0054604Y0056402D01*
X0053993Y0056846D01*
X0053458Y0057380D01*
X0053014Y0057991D01*
X0052671Y0058665D01*
X0052438Y0059383D01*
X0052320Y0060129D01*
X0052320Y0060507D01*
X0059720Y0060507D01*
X0059720Y0065307D01*
X0056742Y0065307D01*
X0055996Y0065189D01*
X0055277Y0064955D01*
X0054604Y0064612D01*
X0053993Y0064168D01*
X0053458Y0063634D01*
X0053014Y0063023D01*
X0052671Y0062350D01*
X0052438Y0061631D01*
X0052320Y0060885D01*
X0052320Y0060507D01*
X0059720Y0060507D01*
X0059720Y0060507D01*
X0059720Y0059764D02*
X0059720Y0059764D01*
X0059720Y0057366D02*
X0059720Y0057366D01*
X0059720Y0055307D02*
X0056742Y0055307D01*
X0055996Y0055189D01*
X0055277Y0054955D01*
X0054604Y0054612D01*
X0053993Y0054168D01*
X0053458Y0053634D01*
X0053014Y0053023D01*
X0052671Y0052350D01*
X0052438Y0051631D01*
X0052320Y0050885D01*
X0052320Y0050507D01*
X0052320Y0050129D01*
X0052438Y0049383D01*
X0052671Y0048665D01*
X0053014Y0047991D01*
X0053458Y0047380D01*
X0053993Y0046846D01*
X0054604Y0046402D01*
X0055277Y0046059D01*
X0055996Y0045825D01*
X0056742Y0045707D01*
X0059720Y0045707D01*
X0059720Y0050507D01*
X0059995Y0050231D01*
X0069917Y0050231D01*
X0079680Y0040468D01*
X0085822Y0040468D01*
X0085822Y0045268D01*
X0082844Y0045268D01*
X0082098Y0045150D01*
X0081379Y0044916D01*
X0080706Y0044573D01*
X0080095Y0044129D01*
X0079561Y0043595D01*
X0079117Y0042983D01*
X0078774Y0042310D01*
X0078540Y0041592D01*
X0078422Y0040845D01*
X0078422Y0040468D01*
X0085822Y0040468D01*
X0085822Y0040468D01*
X0085822Y0045268D01*
X0088800Y0045268D01*
X0089546Y0045150D01*
X0090265Y0044916D01*
X0090938Y0044573D01*
X0091549Y0044129D01*
X0092083Y0043595D01*
X0092527Y0042983D01*
X0092870Y0042310D01*
X0093104Y0041592D01*
X0093222Y0040845D01*
X0093222Y0040468D01*
X0085822Y0040468D01*
X0085822Y0040468D01*
X0085901Y0040389D01*
X0092357Y0040389D01*
X0100822Y0048854D01*
X0100822Y0082909D01*
X0093263Y0090468D01*
X0085822Y0090468D01*
X0085822Y0095268D01*
X0082844Y0095268D01*
X0082098Y0095150D01*
X0081379Y0094916D01*
X0080706Y0094573D01*
X0080095Y0094129D01*
X0079561Y0093595D01*
X0079117Y0092983D01*
X0078774Y0092310D01*
X0078540Y0091592D01*
X0078422Y0090845D01*
X0078422Y0090468D01*
X0085822Y0090468D01*
X0085822Y0090468D01*
X0085822Y0095268D01*
X0088800Y0095268D01*
X0089546Y0095150D01*
X0090265Y0094916D01*
X0090938Y0094573D01*
X0091549Y0094129D01*
X0092083Y0093595D01*
X0092527Y0092983D01*
X0092870Y0092310D01*
X0093104Y0091592D01*
X0093222Y0090845D01*
X0093222Y0090468D01*
X0085822Y0090468D01*
X0085822Y0090468D01*
X0085822Y0100468D01*
X0085822Y0105268D01*
X0082844Y0105268D01*
X0082098Y0105150D01*
X0081379Y0104916D01*
X0080706Y0104573D01*
X0080095Y0104129D01*
X0079561Y0103595D01*
X0079117Y0102983D01*
X0078774Y0102310D01*
X0078540Y0101592D01*
X0078422Y0100845D01*
X0078422Y0100468D01*
X0085822Y0100468D01*
X0085822Y0100468D01*
X0085822Y0105268D01*
X0088800Y0105268D01*
X0089546Y0105150D01*
X0090265Y0104916D01*
X0090938Y0104573D01*
X0091549Y0104129D01*
X0092083Y0103595D01*
X0092527Y0102983D01*
X0092870Y0102310D01*
X0093104Y0101592D01*
X0093222Y0100845D01*
X0093222Y0100468D01*
X0085822Y0100468D01*
X0085822Y0100468D01*
X0085822Y0110468D01*
X0085822Y0115268D01*
X0082844Y0115268D01*
X0082098Y0115150D01*
X0081379Y0114916D01*
X0080706Y0114573D01*
X0080095Y0114129D01*
X0079561Y0113595D01*
X0079117Y0112983D01*
X0078774Y0112310D01*
X0078540Y0111592D01*
X0078422Y0110845D01*
X0078422Y0110468D01*
X0085822Y0110468D01*
X0085822Y0110468D01*
X0085822Y0115268D01*
X0088800Y0115268D01*
X0089546Y0115150D01*
X0090265Y0114916D01*
X0090938Y0114573D01*
X0091549Y0114129D01*
X0092083Y0113595D01*
X0092527Y0112983D01*
X0092870Y0112310D01*
X0093104Y0111592D01*
X0093222Y0110845D01*
X0093222Y0110468D01*
X0085822Y0110468D01*
X0085822Y0110468D01*
X0085822Y0110468D01*
X0078422Y0110468D01*
X0078422Y0110090D01*
X0078540Y0109344D01*
X0078774Y0108625D01*
X0079117Y0107952D01*
X0079561Y0107341D01*
X0080095Y0106806D01*
X0080706Y0106362D01*
X0081379Y0106019D01*
X0082098Y0105786D01*
X0082844Y0105668D01*
X0085822Y0105668D01*
X0088800Y0105668D01*
X0089546Y0105786D01*
X0090265Y0106019D01*
X0090938Y0106362D01*
X0091549Y0106806D01*
X0092083Y0107341D01*
X0092527Y0107952D01*
X0092870Y0108625D01*
X0093104Y0109344D01*
X0093222Y0110090D01*
X0093222Y0110468D01*
X0085822Y0110468D01*
X0085822Y0105668D01*
X0085822Y0110468D01*
X0085822Y0110468D01*
X0085822Y0110133D02*
X0085822Y0110133D01*
X0085822Y0107734D02*
X0085822Y0107734D01*
X0079275Y0107734D02*
X0078050Y0107734D01*
X0078050Y0105336D02*
X0100950Y0105336D01*
X0100950Y0107734D02*
X0092369Y0107734D01*
X0093222Y0110133D02*
X0100950Y0110133D01*
X0100950Y0112532D02*
X0092758Y0112532D01*
X0090222Y0114930D02*
X0100950Y0114930D01*
X0100950Y0117329D02*
X0092071Y0117329D01*
X0092083Y0117341D02*
X0092527Y0117952D01*
X0092870Y0118625D01*
X0093104Y0119344D01*
X0093222Y0120090D01*
X0093222Y0120468D01*
X0093222Y0120845D01*
X0093104Y0121592D01*
X0092870Y0122310D01*
X0092527Y0122983D01*
X0092083Y0123595D01*
X0091549Y0124129D01*
X0090938Y0124573D01*
X0090265Y0124916D01*
X0089546Y0125150D01*
X0088800Y0125268D01*
X0085822Y0125268D01*
X0082844Y0125268D01*
X0082098Y0125150D01*
X0081379Y0124916D01*
X0080706Y0124573D01*
X0080095Y0124129D01*
X0079561Y0123595D01*
X0079117Y0122983D01*
X0078774Y0122310D01*
X0078540Y0121592D01*
X0078422Y0120845D01*
X0078422Y0120468D01*
X0085822Y0120468D01*
X0085822Y0125268D01*
X0085822Y0120468D01*
X0085822Y0120468D01*
X0085822Y0120468D01*
X0093222Y0120468D01*
X0085822Y0120468D01*
X0085822Y0120468D01*
X0078422Y0120468D01*
X0078422Y0120090D01*
X0078540Y0119344D01*
X0078774Y0118625D01*
X0079117Y0117952D01*
X0079561Y0117341D01*
X0080095Y0116806D01*
X0080706Y0116362D01*
X0081379Y0116019D01*
X0082098Y0115786D01*
X0082844Y0115668D01*
X0085822Y0115668D01*
X0088800Y0115668D01*
X0089546Y0115786D01*
X0090265Y0116019D01*
X0090938Y0116362D01*
X0091549Y0116806D01*
X0092083Y0117341D01*
X0093165Y0119727D02*
X0100950Y0119727D01*
X0100950Y0122126D02*
X0092930Y0122126D01*
X0091005Y0124524D02*
X0100950Y0124524D01*
X0100950Y0124914D02*
X0100950Y0079103D01*
X0101331Y0078184D01*
X0102034Y0077481D01*
X0108622Y0070892D01*
X0108622Y0069553D01*
X0109322Y0067862D01*
X0110616Y0066568D01*
X0112307Y0065868D01*
X0119337Y0065868D01*
X0121028Y0066568D01*
X0122322Y0067862D01*
X0123022Y0069553D01*
X0123022Y0071383D01*
X0122322Y0073073D01*
X0121028Y0074367D01*
X0119337Y0075068D01*
X0112307Y0075068D01*
X0111749Y0074837D01*
X0105950Y0080636D01*
X0105950Y0126447D01*
X0105753Y0126923D02*
X0110262Y0126923D01*
X0108718Y0129321D02*
X0103614Y0129321D01*
X0101216Y0131720D02*
X0108762Y0131720D01*
X0110367Y0134118D02*
X0099350Y0134118D01*
X0098540Y0136517D02*
X0138969Y0136517D01*
X0121200Y0146111D02*
X0120494Y0146111D01*
X0121200Y0148509D02*
X0118095Y0148509D01*
X0113706Y0148509D02*
X0108378Y0148509D01*
X0110777Y0146111D02*
X0111308Y0146111D01*
X0103423Y0148509D02*
X0102995Y0148509D01*
X0100721Y0153306D02*
X0097892Y0153306D01*
X0096201Y0150908D02*
X0095493Y0150908D01*
X0094568Y0148509D02*
X0093095Y0148509D01*
X0093727Y0146111D02*
X0094767Y0146111D01*
X0095619Y0143712D02*
X0097313Y0143712D01*
X0099687Y0143712D02*
X0100551Y0143712D01*
X0100551Y0141314D02*
X0095547Y0141314D01*
X0093306Y0138915D02*
X0102840Y0138915D01*
X0092160Y0136517D02*
X0087200Y0136517D01*
X0088901Y0138915D02*
X0090194Y0138915D01*
X0080084Y0134118D02*
X0078704Y0134118D01*
X0078582Y0131720D02*
X0078050Y0131720D01*
X0078422Y0130468D02*
X0078422Y0130090D01*
X0078540Y0129344D01*
X0078774Y0128625D01*
X0079117Y0127952D01*
X0079561Y0127341D01*
X0080095Y0126806D01*
X0080706Y0126362D01*
X0081379Y0126019D01*
X0082098Y0125786D01*
X0082844Y0125668D01*
X0085822Y0125668D01*
X0088800Y0125668D01*
X0089546Y0125786D01*
X0090265Y0126019D01*
X0090938Y0126362D01*
X0091549Y0126806D01*
X0092083Y0127341D01*
X0092527Y0127952D01*
X0092870Y0128625D01*
X0093104Y0129344D01*
X0093222Y0130090D01*
X0093222Y0130468D01*
X0093222Y0130602D01*
X0094554Y0130050D01*
X0095814Y0130050D01*
X0100950Y0124914D01*
X0098942Y0126923D02*
X0091665Y0126923D01*
X0093096Y0129321D02*
X0096543Y0129321D01*
X0093222Y0130468D02*
X0085822Y0130468D01*
X0093222Y0130468D01*
X0085822Y0130468D02*
X0085822Y0130468D01*
X0078422Y0130468D01*
X0078548Y0129321D02*
X0078050Y0129321D01*
X0078050Y0126923D02*
X0079979Y0126923D01*
X0080639Y0124524D02*
X0078050Y0124524D01*
X0078050Y0122126D02*
X0078714Y0122126D01*
X0078480Y0119727D02*
X0078050Y0119727D01*
X0078050Y0117329D02*
X0079573Y0117329D01*
X0078050Y0114930D02*
X0081423Y0114930D01*
X0078886Y0112532D02*
X0078050Y0112532D01*
X0078050Y0110133D02*
X0078422Y0110133D01*
X0085822Y0112532D02*
X0085822Y0112532D01*
X0085822Y0114930D02*
X0085822Y0114930D01*
X0085822Y0115668D02*
X0085822Y0120468D01*
X0085822Y0115668D01*
X0085822Y0117329D02*
X0085822Y0117329D01*
X0085822Y0119727D02*
X0085822Y0119727D01*
X0085822Y0120468D02*
X0085822Y0120468D01*
X0085822Y0122126D02*
X0085822Y0122126D01*
X0085822Y0124524D02*
X0085822Y0124524D01*
X0085822Y0125668D02*
X0085822Y0130468D01*
X0085822Y0125668D01*
X0085822Y0126923D02*
X0085822Y0126923D01*
X0085822Y0129321D02*
X0085822Y0129321D01*
X0085822Y0130468D02*
X0085822Y0130468D01*
X0071250Y0117329D02*
X0062819Y0117329D01*
X0064752Y0114930D02*
X0071250Y0114930D01*
X0071250Y0112532D02*
X0064752Y0112532D01*
X0063755Y0110133D02*
X0071250Y0110133D01*
X0071250Y0107734D02*
X0042050Y0107734D01*
X0042050Y0105336D02*
X0071250Y0105336D01*
X0071250Y0102937D02*
X0066292Y0102937D01*
X0066219Y0103113D02*
X0064925Y0104407D01*
X0063235Y0105107D01*
X0056205Y0105107D01*
X0054514Y0104407D01*
X0053220Y0103113D01*
X0052520Y0101422D01*
X0052520Y0099592D01*
X0053220Y0097901D01*
X0054514Y0096607D01*
X0056205Y0095907D01*
X0063235Y0095907D01*
X0064925Y0096607D01*
X0066219Y0097901D01*
X0066920Y0099592D01*
X0066920Y0101422D01*
X0066219Y0103113D01*
X0066920Y0100539D02*
X0071250Y0100539D01*
X0071250Y0098140D02*
X0066318Y0098140D01*
X0071250Y0095742D02*
X0042050Y0095742D01*
X0042050Y0098140D02*
X0053121Y0098140D01*
X0052520Y0100539D02*
X0042050Y0100539D01*
X0042050Y0102937D02*
X0053147Y0102937D01*
X0054038Y0110133D02*
X0055448Y0110133D01*
X0049602Y0110133D02*
X0049602Y0110133D01*
X0049602Y0112532D02*
X0049602Y0112532D01*
X0049601Y0113263D02*
X0044252Y0113263D01*
X0049601Y0113263D01*
X0049601Y0113263D01*
X0049602Y0113263D02*
X0049602Y0118613D01*
X0047386Y0118613D01*
X0049602Y0117329D02*
X0049602Y0117329D01*
X0049602Y0114930D02*
X0049602Y0114930D01*
X0053102Y0117329D02*
X0056384Y0117329D01*
X0044252Y0114930D02*
X0042050Y0114930D01*
X0042050Y0112532D02*
X0044252Y0112532D01*
X0045166Y0110133D02*
X0042050Y0110133D01*
X0037050Y0110133D02*
X0023696Y0110133D01*
X0023241Y0110011D02*
X0025860Y0110713D01*
X0028209Y0112069D01*
X0030126Y0113986D01*
X0031482Y0116335D01*
X0032184Y0118954D01*
X0032184Y0121666D01*
X0031482Y0124286D01*
X0030126Y0126634D01*
X0028209Y0128552D01*
X0025860Y0129908D01*
X0023241Y0130609D01*
X0020529Y0130609D01*
X0017910Y0129908D01*
X0015561Y0128552D01*
X0013644Y0126634D01*
X0012288Y0124286D01*
X0011586Y0121666D01*
X0011586Y0118954D01*
X0012288Y0116335D01*
X0013644Y0113986D01*
X0015561Y0112069D01*
X0017910Y0110713D01*
X0020529Y0110011D01*
X0023241Y0110011D01*
X0020074Y0110133D02*
X0007400Y0110133D01*
X0007400Y0107734D02*
X0037050Y0107734D01*
X0037050Y0105336D02*
X0007400Y0105336D01*
X0007400Y0102937D02*
X0023147Y0102937D01*
X0022520Y0100539D02*
X0007400Y0100539D01*
X0007400Y0098140D02*
X0020355Y0098140D01*
X0017956Y0095742D02*
X0007400Y0095742D01*
X0007400Y0093343D02*
X0015718Y0093343D01*
X0015450Y0090945D02*
X0007400Y0090945D01*
X0007400Y0088546D02*
X0015450Y0088546D01*
X0015450Y0086148D02*
X0007400Y0086148D01*
X0007400Y0083749D02*
X0015450Y0083749D01*
X0015450Y0081351D02*
X0007400Y0081351D01*
X0007400Y0078952D02*
X0015450Y0078952D01*
X0015450Y0076554D02*
X0007400Y0076554D01*
X0007400Y0074155D02*
X0015450Y0074155D01*
X0015450Y0071757D02*
X0007400Y0071757D01*
X0007400Y0069358D02*
X0015450Y0069358D01*
X0015450Y0066960D02*
X0007400Y0066960D01*
X0007400Y0064561D02*
X0015450Y0064561D01*
X0015450Y0062163D02*
X0007400Y0062163D01*
X0007400Y0059764D02*
X0015450Y0059764D01*
X0015450Y0057366D02*
X0007400Y0057366D01*
X0007400Y0054967D02*
X0015450Y0054967D01*
X0015450Y0052569D02*
X0007400Y0052569D01*
X0007400Y0050170D02*
X0015450Y0050170D01*
X0015450Y0047772D02*
X0007400Y0047772D01*
X0007400Y0045373D02*
X0015450Y0045373D01*
X0015450Y0042975D02*
X0007400Y0042975D01*
X0007400Y0040576D02*
X0015450Y0040576D01*
X0015450Y0038178D02*
X0007400Y0038178D01*
X0007400Y0035779D02*
X0015501Y0035779D01*
X0017434Y0033381D02*
X0007400Y0033381D01*
X0007400Y0030982D02*
X0019832Y0030982D01*
X0022231Y0028584D02*
X0007400Y0028584D01*
X0007400Y0026185D02*
X0024629Y0026185D01*
X0027028Y0023787D02*
X0007400Y0023787D01*
X0007400Y0021388D02*
X0029840Y0021388D01*
X0032124Y0016591D02*
X0036292Y0016591D01*
X0034523Y0014193D02*
X0033892Y0014193D01*
X0034208Y0011794D02*
X0034208Y0011794D01*
X0033238Y0009396D02*
X0035177Y0009396D01*
X0043238Y0009396D02*
X0045177Y0009396D01*
X0044208Y0011794D02*
X0044208Y0011794D01*
X0043892Y0014193D02*
X0044523Y0014193D01*
X0046292Y0016591D02*
X0042124Y0016591D01*
X0026292Y0016591D02*
X0022124Y0016591D01*
X0023892Y0014193D02*
X0024523Y0014193D01*
X0024208Y0011794D02*
X0024208Y0011794D01*
X0023238Y0009396D02*
X0025177Y0009396D01*
X0029603Y0030982D02*
X0079146Y0030982D01*
X0082754Y0030982D02*
X0085947Y0030982D01*
X0088345Y0033381D02*
X0027205Y0033381D01*
X0026742Y0035707D02*
X0029720Y0035707D01*
X0032697Y0035707D01*
X0033444Y0035825D01*
X0034162Y0036059D01*
X0034835Y0036402D01*
X0035447Y0036846D01*
X0035981Y0037380D01*
X0036425Y0037991D01*
X0036768Y0038665D01*
X0037001Y0039383D01*
X0037120Y0040129D01*
X0037120Y0040507D01*
X0029720Y0040507D01*
X0029720Y0040507D01*
X0037120Y0040507D01*
X0037120Y0040885D01*
X0037001Y0041631D01*
X0036768Y0042350D01*
X0036425Y0043023D01*
X0035981Y0043634D01*
X0035447Y0044168D01*
X0034835Y0044612D01*
X0034162Y0044955D01*
X0033444Y0045189D01*
X0032697Y0045307D01*
X0029720Y0045307D01*
X0029720Y0040507D01*
X0029720Y0035707D01*
X0029720Y0040507D01*
X0029720Y0040507D01*
X0036767Y0040507D01*
X0046688Y0050428D01*
X0052320Y0050507D02*
X0059720Y0050507D01*
X0059720Y0050507D01*
X0059720Y0055307D01*
X0059720Y0054967D02*
X0059720Y0054967D01*
X0059720Y0052569D02*
X0059720Y0052569D01*
X0059720Y0050507D02*
X0052320Y0050507D01*
X0052320Y0050170D02*
X0036920Y0050170D01*
X0036920Y0049592D02*
X0036920Y0051422D01*
X0036219Y0053113D01*
X0034925Y0054407D01*
X0033235Y0055107D01*
X0026205Y0055107D01*
X0024514Y0054407D01*
X0023220Y0053113D01*
X0022520Y0051422D01*
X0022520Y0049592D01*
X0023220Y0047901D01*
X0024514Y0046607D01*
X0026205Y0045907D01*
X0033235Y0045907D01*
X0034925Y0046607D01*
X0036219Y0047901D01*
X0036920Y0049592D01*
X0036090Y0047772D02*
X0053174Y0047772D01*
X0054514Y0044407D02*
X0053220Y0043113D01*
X0052520Y0041422D01*
X0052520Y0039592D01*
X0053220Y0037901D01*
X0054514Y0036607D01*
X0056205Y0035907D01*
X0063235Y0035907D01*
X0064925Y0036607D01*
X0066219Y0037901D01*
X0066920Y0039592D01*
X0066920Y0041422D01*
X0066219Y0043113D01*
X0064925Y0044407D01*
X0063235Y0045107D01*
X0056205Y0045107D01*
X0054514Y0044407D01*
X0053163Y0042975D02*
X0036450Y0042975D01*
X0037120Y0040576D02*
X0052520Y0040576D01*
X0053106Y0038178D02*
X0036520Y0038178D01*
X0033152Y0035779D02*
X0082141Y0035779D01*
X0082098Y0035786D02*
X0082844Y0035668D01*
X0085822Y0035668D01*
X0088800Y0035668D01*
X0089546Y0035786D01*
X0090265Y0036019D01*
X0090938Y0036362D01*
X0091549Y0036806D01*
X0092083Y0037341D01*
X0092527Y0037952D01*
X0092870Y0038625D01*
X0093104Y0039344D01*
X0093222Y0040090D01*
X0093222Y0040468D01*
X0085822Y0040468D01*
X0085822Y0040468D01*
X0078422Y0040468D01*
X0078422Y0040090D01*
X0078540Y0039344D01*
X0078774Y0038625D01*
X0079117Y0037952D01*
X0079561Y0037341D01*
X0080095Y0036806D01*
X0080706Y0036362D01*
X0081379Y0036019D01*
X0082098Y0035786D01*
X0085822Y0035779D02*
X0085822Y0035779D01*
X0085822Y0035668D02*
X0085822Y0040468D01*
X0085822Y0040468D01*
X0085822Y0035668D01*
X0085822Y0038178D02*
X0085822Y0038178D01*
X0085822Y0040576D02*
X0085822Y0040576D01*
X0085822Y0042975D02*
X0085822Y0042975D01*
X0079112Y0042975D02*
X0066277Y0042975D01*
X0066920Y0040576D02*
X0078422Y0040576D01*
X0079002Y0038178D02*
X0066334Y0038178D01*
X0066265Y0047772D02*
X0079413Y0047772D01*
X0078622Y0050170D02*
X0067120Y0050170D01*
X0066656Y0052569D02*
X0077446Y0052569D01*
X0075047Y0054967D02*
X0064126Y0054967D01*
X0065967Y0057366D02*
X0072649Y0057366D01*
X0071250Y0059764D02*
X0067062Y0059764D01*
X0066829Y0062163D02*
X0071250Y0062163D01*
X0071250Y0064561D02*
X0064906Y0064561D01*
X0064925Y0066607D02*
X0063235Y0065907D01*
X0056205Y0065907D01*
X0054514Y0066607D01*
X0053220Y0067901D01*
X0052520Y0069592D01*
X0052520Y0071422D01*
X0053220Y0073113D01*
X0054514Y0074407D01*
X0056205Y0075107D01*
X0063235Y0075107D01*
X0064925Y0074407D01*
X0066219Y0073113D01*
X0066920Y0071422D01*
X0066920Y0069592D01*
X0066219Y0067901D01*
X0064925Y0066607D01*
X0065278Y0066960D02*
X0071250Y0066960D01*
X0071250Y0069358D02*
X0066823Y0069358D01*
X0066781Y0071757D02*
X0071250Y0071757D01*
X0071250Y0074155D02*
X0065177Y0074155D01*
X0065045Y0076554D02*
X0071250Y0076554D01*
X0071250Y0078952D02*
X0066862Y0078952D01*
X0067046Y0081351D02*
X0071250Y0081351D01*
X0071250Y0083749D02*
X0065866Y0083749D01*
X0064337Y0086148D02*
X0071250Y0086148D01*
X0071250Y0088546D02*
X0066708Y0088546D01*
X0067110Y0090945D02*
X0071250Y0090945D01*
X0071250Y0093343D02*
X0066192Y0093343D01*
X0059720Y0093343D02*
X0059720Y0093343D01*
X0059720Y0095307D02*
X0059720Y0090507D01*
X0059720Y0090507D01*
X0059720Y0085707D01*
X0056742Y0085707D01*
X0055996Y0085825D01*
X0055277Y0086059D01*
X0054604Y0086402D01*
X0053993Y0086846D01*
X0053458Y0087380D01*
X0053014Y0087991D01*
X0052671Y0088665D01*
X0052438Y0089383D01*
X0052320Y0090129D01*
X0052320Y0090507D01*
X0059720Y0090507D01*
X0059720Y0090507D01*
X0052320Y0090507D01*
X0052320Y0090885D01*
X0052438Y0091631D01*
X0052671Y0092350D01*
X0053014Y0093023D01*
X0053458Y0093634D01*
X0053993Y0094168D01*
X0054604Y0094612D01*
X0055277Y0094955D01*
X0055996Y0095189D01*
X0056742Y0095307D01*
X0059720Y0095307D01*
X0053247Y0093343D02*
X0042050Y0093343D01*
X0042050Y0090945D02*
X0052329Y0090945D01*
X0052732Y0088546D02*
X0042050Y0088546D01*
X0042050Y0086148D02*
X0055102Y0086148D01*
X0055277Y0084955D02*
X0054604Y0084612D01*
X0053993Y0084168D01*
X0053458Y0083634D01*
X0053014Y0083023D01*
X0052671Y0082350D01*
X0052438Y0081631D01*
X0052320Y0080885D01*
X0052320Y0080507D01*
X0052320Y0080129D01*
X0052438Y0079383D01*
X0052671Y0078665D01*
X0053014Y0077991D01*
X0053458Y0077380D01*
X0053993Y0076846D01*
X0054604Y0076402D01*
X0055277Y0076059D01*
X0055996Y0075825D01*
X0056742Y0075707D01*
X0059720Y0075707D01*
X0059720Y0080507D01*
X0059720Y0080507D01*
X0059720Y0085307D01*
X0056742Y0085307D01*
X0055996Y0085189D01*
X0055277Y0084955D01*
X0053574Y0083749D02*
X0040485Y0083749D01*
X0038086Y0081351D02*
X0052394Y0081351D01*
X0052320Y0080507D02*
X0059720Y0080507D01*
X0052320Y0080507D01*
X0052578Y0078952D02*
X0036655Y0078952D01*
X0034796Y0076554D02*
X0054395Y0076554D01*
X0054263Y0074155D02*
X0035460Y0074155D01*
X0035447Y0074168D02*
X0034835Y0074612D01*
X0034162Y0074955D01*
X0033444Y0075189D01*
X0032697Y0075307D01*
X0029720Y0075307D01*
X0029720Y0070507D01*
X0029720Y0070507D01*
X0037120Y0070507D01*
X0037120Y0070129D01*
X0037001Y0069383D01*
X0036768Y0068665D01*
X0036425Y0067991D01*
X0035981Y0067380D01*
X0035447Y0066846D01*
X0034835Y0066402D01*
X0034162Y0066059D01*
X0033444Y0065825D01*
X0032697Y0065707D01*
X0029720Y0065707D01*
X0029720Y0070507D01*
X0037120Y0070507D01*
X0037120Y0070885D01*
X0037001Y0071631D01*
X0036768Y0072350D01*
X0036425Y0073023D01*
X0035981Y0073634D01*
X0035447Y0074168D01*
X0036961Y0071757D02*
X0052658Y0071757D01*
X0052617Y0069358D02*
X0036993Y0069358D01*
X0035561Y0066960D02*
X0054162Y0066960D01*
X0054534Y0064561D02*
X0034906Y0064561D01*
X0036829Y0062163D02*
X0052611Y0062163D01*
X0052377Y0059764D02*
X0037062Y0059764D01*
X0035967Y0057366D02*
X0053473Y0057366D01*
X0055314Y0054967D02*
X0033572Y0054967D01*
X0036445Y0052569D02*
X0052783Y0052569D01*
X0059720Y0050507D02*
X0059720Y0050507D01*
X0059720Y0050170D02*
X0059720Y0050170D01*
X0059720Y0047772D02*
X0059720Y0047772D01*
X0077321Y0059764D02*
X0078622Y0059764D01*
X0078622Y0059553D02*
X0079322Y0057862D01*
X0080616Y0056568D01*
X0082307Y0055868D01*
X0089337Y0055868D01*
X0091028Y0056568D01*
X0092322Y0057862D01*
X0093022Y0059553D01*
X0093022Y0061383D01*
X0092322Y0063073D01*
X0091028Y0064367D01*
X0089337Y0065068D01*
X0082307Y0065068D01*
X0080616Y0064367D01*
X0079322Y0063073D01*
X0078622Y0061383D01*
X0078622Y0059553D01*
X0079720Y0057366D02*
X0079819Y0057366D01*
X0078945Y0062163D02*
X0076250Y0062163D01*
X0076250Y0064561D02*
X0081084Y0064561D01*
X0080225Y0066960D02*
X0076250Y0066960D01*
X0076250Y0069358D02*
X0078703Y0069358D01*
X0077166Y0071757D02*
X0076250Y0071757D01*
X0080450Y0076554D02*
X0080651Y0076554D01*
X0080616Y0076568D02*
X0082307Y0075868D01*
X0089337Y0075868D01*
X0091028Y0076568D01*
X0092322Y0077862D01*
X0093022Y0079553D01*
X0093022Y0081383D01*
X0092322Y0083073D01*
X0091028Y0084367D01*
X0089337Y0085068D01*
X0082307Y0085068D01*
X0080616Y0084367D01*
X0079322Y0083073D01*
X0078622Y0081383D01*
X0078622Y0079553D01*
X0079322Y0077862D01*
X0080616Y0076568D01*
X0078871Y0078952D02*
X0078050Y0078952D01*
X0078050Y0081351D02*
X0078622Y0081351D01*
X0078050Y0083749D02*
X0079998Y0083749D01*
X0081127Y0086148D02*
X0078050Y0086148D01*
X0079561Y0087341D02*
X0080095Y0086806D01*
X0080706Y0086362D01*
X0081379Y0086019D01*
X0082098Y0085786D01*
X0082844Y0085668D01*
X0085822Y0085668D01*
X0088800Y0085668D01*
X0089546Y0085786D01*
X0090265Y0086019D01*
X0090938Y0086362D01*
X0091549Y0086806D01*
X0092083Y0087341D01*
X0092527Y0087952D01*
X0092870Y0088625D01*
X0093104Y0089344D01*
X0093222Y0090090D01*
X0093222Y0090468D01*
X0085822Y0090468D01*
X0085822Y0090468D01*
X0078422Y0090468D01*
X0078422Y0090090D01*
X0078540Y0089344D01*
X0078774Y0088625D01*
X0079117Y0087952D01*
X0079561Y0087341D01*
X0078814Y0088546D02*
X0078050Y0088546D01*
X0078050Y0090945D02*
X0078438Y0090945D01*
X0078050Y0093343D02*
X0079378Y0093343D01*
X0078050Y0095742D02*
X0082376Y0095742D01*
X0082098Y0095786D02*
X0082844Y0095668D01*
X0085822Y0095668D01*
X0088800Y0095668D01*
X0089546Y0095786D01*
X0090265Y0096019D01*
X0090938Y0096362D01*
X0091549Y0096806D01*
X0092083Y0097341D01*
X0092527Y0097952D01*
X0092870Y0098625D01*
X0093104Y0099344D01*
X0093222Y0100090D01*
X0093222Y0100468D01*
X0085822Y0100468D01*
X0085822Y0100468D01*
X0078422Y0100468D01*
X0078422Y0100090D01*
X0078540Y0099344D01*
X0078774Y0098625D01*
X0079117Y0097952D01*
X0079561Y0097341D01*
X0080095Y0096806D01*
X0080706Y0096362D01*
X0081379Y0096019D01*
X0082098Y0095786D01*
X0085822Y0095742D02*
X0085822Y0095742D01*
X0085822Y0095668D02*
X0085822Y0100468D01*
X0085822Y0100468D01*
X0085822Y0095668D01*
X0085822Y0093343D02*
X0085822Y0093343D01*
X0085822Y0090945D02*
X0085822Y0090945D01*
X0085822Y0090468D02*
X0085822Y0085668D01*
X0085822Y0090468D01*
X0085822Y0090468D01*
X0085822Y0088546D02*
X0085822Y0088546D01*
X0085822Y0086148D02*
X0085822Y0086148D01*
X0090517Y0086148D02*
X0100950Y0086148D01*
X0100950Y0088546D02*
X0092830Y0088546D01*
X0093206Y0090945D02*
X0100950Y0090945D01*
X0100950Y0093343D02*
X0092266Y0093343D01*
X0089268Y0095742D02*
X0100950Y0095742D01*
X0100950Y0098140D02*
X0092623Y0098140D01*
X0093222Y0100539D02*
X0100950Y0100539D01*
X0100950Y0102937D02*
X0092551Y0102937D01*
X0085822Y0102937D02*
X0085822Y0102937D01*
X0085822Y0100539D02*
X0085822Y0100539D01*
X0085822Y0098140D02*
X0085822Y0098140D01*
X0079021Y0098140D02*
X0078050Y0098140D01*
X0078050Y0100539D02*
X0078422Y0100539D01*
X0078050Y0102937D02*
X0079093Y0102937D01*
X0059720Y0090945D02*
X0059720Y0090945D01*
X0059720Y0088546D02*
X0059720Y0088546D01*
X0059720Y0086148D02*
X0059720Y0086148D01*
X0059720Y0083749D02*
X0059720Y0083749D01*
X0059720Y0081351D02*
X0059720Y0081351D01*
X0059720Y0080507D02*
X0059720Y0080507D01*
X0059720Y0078952D02*
X0059720Y0078952D01*
X0059720Y0076554D02*
X0059720Y0076554D01*
X0059720Y0064561D02*
X0059720Y0064561D01*
X0059720Y0062163D02*
X0059720Y0062163D01*
X0029720Y0062163D02*
X0029720Y0062163D01*
X0029720Y0060507D02*
X0029720Y0065307D01*
X0026742Y0065307D01*
X0025996Y0065189D01*
X0025277Y0064955D01*
X0024604Y0064612D01*
X0023993Y0064168D01*
X0023458Y0063634D01*
X0023014Y0063023D01*
X0022671Y0062350D01*
X0022438Y0061631D01*
X0022320Y0060885D01*
X0022320Y0060507D01*
X0022320Y0060129D01*
X0022438Y0059383D01*
X0022671Y0058665D01*
X0023014Y0057991D01*
X0023458Y0057380D01*
X0023993Y0056846D01*
X0024604Y0056402D01*
X0025277Y0056059D01*
X0025996Y0055825D01*
X0026742Y0055707D01*
X0029720Y0055707D01*
X0029720Y0060507D01*
X0029720Y0060507D01*
X0022320Y0060507D01*
X0029720Y0060507D01*
X0029720Y0060507D01*
X0029720Y0059764D02*
X0029720Y0059764D01*
X0029720Y0057366D02*
X0029720Y0057366D01*
X0025867Y0054967D02*
X0022250Y0054967D01*
X0022250Y0052569D02*
X0022995Y0052569D01*
X0022520Y0050170D02*
X0022250Y0050170D01*
X0022250Y0047772D02*
X0023350Y0047772D01*
X0022250Y0045373D02*
X0098088Y0045373D01*
X0100486Y0047772D02*
X0092231Y0047772D01*
X0093022Y0050170D02*
X0100950Y0050170D01*
X0101683Y0052569D02*
X0092531Y0052569D01*
X0089580Y0054967D02*
X0104082Y0054967D01*
X0106480Y0057366D02*
X0091825Y0057366D01*
X0093022Y0059764D02*
X0108622Y0059764D01*
X0108945Y0062163D02*
X0092699Y0062163D01*
X0090560Y0064561D02*
X0111084Y0064561D01*
X0110225Y0066960D02*
X0091420Y0066960D01*
X0092942Y0069358D02*
X0108703Y0069358D01*
X0107758Y0071757D02*
X0092867Y0071757D01*
X0091240Y0074155D02*
X0105359Y0074155D01*
X0102961Y0076554D02*
X0090994Y0076554D01*
X0092773Y0078952D02*
X0101012Y0078952D01*
X0100950Y0081351D02*
X0093022Y0081351D01*
X0091646Y0083749D02*
X0100950Y0083749D01*
X0105950Y0083749D02*
X0109998Y0083749D01*
X0110616Y0084367D02*
X0109322Y0083073D01*
X0108622Y0081383D01*
X0108622Y0079553D01*
X0109322Y0077862D01*
X0110616Y0076568D01*
X0112307Y0075868D01*
X0119337Y0075868D01*
X0121028Y0076568D01*
X0122322Y0077862D01*
X0123022Y0079553D01*
X0123022Y0081383D01*
X0122322Y0083073D01*
X0121028Y0084367D01*
X0119337Y0085068D01*
X0112307Y0085068D01*
X0110616Y0084367D01*
X0111631Y0086148D02*
X0105950Y0086148D01*
X0105950Y0088546D02*
X0109039Y0088546D01*
X0109322Y0087862D02*
X0108622Y0089553D01*
X0108622Y0091383D01*
X0109322Y0093073D01*
X0110616Y0094367D01*
X0112307Y0095068D01*
X0119337Y0095068D01*
X0121028Y0094367D01*
X0122322Y0093073D01*
X0123022Y0091383D01*
X0123022Y0089553D01*
X0122322Y0087862D01*
X0121028Y0086568D01*
X0119337Y0085868D01*
X0112307Y0085868D01*
X0110616Y0086568D01*
X0109322Y0087862D01*
X0108622Y0090945D02*
X0105950Y0090945D01*
X0105950Y0093343D02*
X0109592Y0093343D01*
X0110616Y0096568D02*
X0112307Y0095868D01*
X0119337Y0095868D01*
X0121028Y0096568D01*
X0122322Y0097862D01*
X0123022Y0099553D01*
X0123022Y0101383D01*
X0122322Y0103073D01*
X0121028Y0104367D01*
X0119337Y0105068D01*
X0112307Y0105068D01*
X0110616Y0104367D01*
X0109322Y0103073D01*
X0108622Y0101383D01*
X0108622Y0099553D01*
X0109322Y0097862D01*
X0110616Y0096568D01*
X0109207Y0098140D02*
X0105950Y0098140D01*
X0105950Y0095742D02*
X0123450Y0095742D01*
X0123450Y0098140D02*
X0122437Y0098140D01*
X0123022Y0100539D02*
X0123450Y0100539D01*
X0123450Y0102937D02*
X0122378Y0102937D01*
X0123450Y0105336D02*
X0105950Y0105336D01*
X0105950Y0107734D02*
X0109450Y0107734D01*
X0109322Y0107862D02*
X0110616Y0106568D01*
X0112307Y0105868D01*
X0119337Y0105868D01*
X0121028Y0106568D01*
X0122322Y0107862D01*
X0123022Y0109553D01*
X0123022Y0111383D01*
X0122322Y0113073D01*
X0121028Y0114367D01*
X0119337Y0115068D01*
X0112307Y0115068D01*
X0110616Y0114367D01*
X0109322Y0113073D01*
X0108622Y0111383D01*
X0108622Y0109553D01*
X0109322Y0107862D01*
X0108622Y0110133D02*
X0105950Y0110133D01*
X0105950Y0112532D02*
X0109098Y0112532D01*
X0111975Y0114930D02*
X0105950Y0114930D01*
X0105950Y0117329D02*
X0109856Y0117329D01*
X0108622Y0119727D02*
X0105950Y0119727D01*
X0105950Y0122126D02*
X0108930Y0122126D01*
X0119669Y0114930D02*
X0127723Y0114930D01*
X0126450Y0112532D02*
X0122546Y0112532D01*
X0123022Y0110133D02*
X0125047Y0110133D01*
X0123450Y0107734D02*
X0122194Y0107734D01*
X0109266Y0102937D02*
X0105950Y0102937D01*
X0105950Y0100539D02*
X0108622Y0100539D01*
X0122052Y0093343D02*
X0123450Y0093343D01*
X0123450Y0090945D02*
X0123022Y0090945D01*
X0122605Y0088546D02*
X0123450Y0088546D01*
X0123450Y0086148D02*
X0120013Y0086148D01*
X0121646Y0083749D02*
X0123450Y0083749D01*
X0123450Y0081351D02*
X0123022Y0081351D01*
X0122773Y0078952D02*
X0123450Y0078952D01*
X0123450Y0076554D02*
X0120994Y0076554D01*
X0121240Y0074155D02*
X0123450Y0074155D01*
X0123450Y0071757D02*
X0122867Y0071757D01*
X0122942Y0069358D02*
X0123450Y0069358D01*
X0123450Y0066960D02*
X0121420Y0066960D01*
X0120560Y0064561D02*
X0123450Y0064561D01*
X0123450Y0062163D02*
X0122699Y0062163D01*
X0123022Y0059764D02*
X0123450Y0059764D01*
X0123130Y0057366D02*
X0121825Y0057366D01*
X0120732Y0054967D02*
X0119580Y0054967D01*
X0123022Y0050170D02*
X0127050Y0050170D01*
X0127050Y0047772D02*
X0122231Y0047772D01*
X0121028Y0044367D02*
X0119337Y0045068D01*
X0112307Y0045068D01*
X0110616Y0044367D01*
X0109322Y0043073D01*
X0108622Y0041383D01*
X0108622Y0039553D01*
X0109322Y0037862D01*
X0110616Y0036568D01*
X0112307Y0035868D01*
X0119337Y0035868D01*
X0121028Y0036568D01*
X0122322Y0037862D01*
X0123022Y0039553D01*
X0123022Y0041383D01*
X0122322Y0043073D01*
X0121028Y0044367D01*
X0122363Y0042975D02*
X0127050Y0042975D01*
X0127050Y0045373D02*
X0105159Y0045373D01*
X0105950Y0047772D02*
X0109413Y0047772D01*
X0108622Y0050170D02*
X0106356Y0050170D01*
X0108754Y0052569D02*
X0109113Y0052569D01*
X0111153Y0054967D02*
X0112065Y0054967D01*
X0125404Y0052569D02*
X0127050Y0052569D01*
X0132050Y0052569D02*
X0137342Y0052569D01*
X0136850Y0050170D02*
X0132050Y0050170D01*
X0132050Y0047772D02*
X0137641Y0047772D01*
X0140293Y0054967D02*
X0132050Y0054967D01*
X0132050Y0057366D02*
X0138047Y0057366D01*
X0136850Y0059764D02*
X0132050Y0059764D01*
X0132050Y0062163D02*
X0137174Y0062163D01*
X0139313Y0064561D02*
X0132050Y0064561D01*
X0132050Y0066960D02*
X0138453Y0066960D01*
X0136931Y0069358D02*
X0132050Y0069358D01*
X0132050Y0071757D02*
X0136558Y0071757D01*
X0134159Y0074155D02*
X0132050Y0074155D01*
X0136550Y0078952D02*
X0137099Y0078952D01*
X0136850Y0081351D02*
X0136550Y0081351D01*
X0136550Y0083749D02*
X0138227Y0083749D01*
X0139859Y0086148D02*
X0136550Y0086148D01*
X0136550Y0088546D02*
X0137267Y0088546D01*
X0136850Y0090945D02*
X0136550Y0090945D01*
X0136550Y0093343D02*
X0137821Y0093343D01*
X0136550Y0095742D02*
X0149023Y0095742D01*
X0150280Y0093343D02*
X0151421Y0093343D01*
X0152341Y0090945D02*
X0157133Y0090945D01*
X0157302Y0088546D02*
X0154739Y0088546D01*
X0157138Y0086148D02*
X0158550Y0086148D01*
X0152465Y0083749D02*
X0149874Y0083749D01*
X0150067Y0086148D02*
X0148242Y0086148D01*
X0151250Y0081351D02*
X0154864Y0081351D01*
X0138879Y0076554D02*
X0138832Y0076554D01*
X0110651Y0076554D02*
X0110032Y0076554D01*
X0108871Y0078952D02*
X0107633Y0078952D01*
X0108622Y0081351D02*
X0105950Y0081351D01*
X0136550Y0098140D02*
X0137435Y0098140D01*
X0170968Y0100539D02*
X0186881Y0100539D01*
X0187653Y0098140D02*
X0172619Y0098140D01*
X0182091Y0095742D02*
X0187200Y0095742D01*
X0188450Y0093343D02*
X0184592Y0093343D01*
X0186991Y0090945D02*
X0191620Y0090945D01*
X0189389Y0088546D02*
X0194018Y0088546D01*
X0191788Y0086148D02*
X0196417Y0086148D01*
X0198227Y0083749D02*
X0194186Y0083749D01*
X0196585Y0081351D02*
X0196850Y0081351D01*
X0234250Y0105336D02*
X0342550Y0105336D01*
X0344949Y0107734D02*
X0283263Y0107734D01*
X0285208Y0110133D02*
X0347347Y0110133D01*
X0349746Y0112532D02*
X0287607Y0112532D01*
X0290005Y0114930D02*
X0351452Y0114930D01*
X0352031Y0117329D02*
X0292404Y0117329D01*
X0294803Y0119727D02*
X0361252Y0119727D01*
X0361252Y0120079D02*
X0361252Y0117925D01*
X0364298Y0114879D01*
X0366452Y0114879D01*
X0368606Y0114879D01*
X0371652Y0117925D01*
X0371652Y0120079D01*
X0366452Y0120079D01*
X0366452Y0120079D01*
X0361252Y0120079D01*
X0361252Y0122126D02*
X0360070Y0122126D01*
X0361452Y0123508D02*
X0358523Y0120579D01*
X0354381Y0120579D01*
X0351452Y0123508D01*
X0351452Y0127650D01*
X0354381Y0130579D01*
X0358523Y0130579D01*
X0361452Y0127650D01*
X0361452Y0123508D01*
X0361452Y0124524D02*
X0363543Y0124524D01*
X0364298Y0125779D02*
X0361252Y0128825D01*
X0361252Y0130979D01*
X0366452Y0130979D01*
X0366452Y0130979D01*
X0371652Y0130979D01*
X0371652Y0128825D01*
X0368606Y0125779D01*
X0366452Y0125779D01*
X0366452Y0130979D01*
X0366452Y0130979D01*
X0366452Y0125779D01*
X0364298Y0125779D01*
X0363154Y0126923D02*
X0361452Y0126923D01*
X0361252Y0129321D02*
X0359781Y0129321D01*
X0358523Y0131379D02*
X0354381Y0131379D01*
X0351452Y0134308D01*
X0351452Y0138450D01*
X0354381Y0141379D01*
X0358523Y0141379D01*
X0361452Y0138450D01*
X0361452Y0134308D01*
X0358523Y0131379D01*
X0358864Y0131720D02*
X0361252Y0131720D01*
X0361262Y0134118D02*
X0362237Y0134118D01*
X0361452Y0136517D02*
X0401409Y0136517D01*
X0401409Y0138915D02*
X0370842Y0138915D01*
X0371652Y0139725D02*
X0368606Y0136679D01*
X0366452Y0136679D01*
X0366452Y0141879D01*
X0366452Y0141879D01*
X0371652Y0141879D01*
X0371652Y0139725D01*
X0371652Y0141314D02*
X0401409Y0141314D01*
X0401409Y0143712D02*
X0371652Y0143712D01*
X0369574Y0146111D02*
X0401409Y0146111D01*
X0401409Y0148509D02*
X0369636Y0148509D01*
X0368606Y0147479D02*
X0366452Y0147479D01*
X0366452Y0152679D01*
X0366452Y0152679D01*
X0371652Y0152679D01*
X0371652Y0150525D01*
X0368606Y0147479D01*
X0366452Y0147479D02*
X0366452Y0152679D01*
X0361252Y0152679D01*
X0361252Y0150525D01*
X0364298Y0147479D01*
X0366452Y0147479D01*
X0366452Y0148509D02*
X0366452Y0148509D01*
X0366452Y0146111D02*
X0366452Y0146111D01*
X0366452Y0143712D02*
X0366452Y0143712D01*
X0366452Y0141879D02*
X0361252Y0141879D01*
X0361252Y0139725D01*
X0364298Y0136679D01*
X0366452Y0136679D01*
X0366452Y0141879D01*
X0366452Y0141879D01*
X0366452Y0141314D02*
X0366452Y0141314D01*
X0366452Y0138915D02*
X0366452Y0138915D01*
X0362062Y0138915D02*
X0360987Y0138915D01*
X0361252Y0141314D02*
X0358588Y0141314D01*
X0359956Y0143712D02*
X0361252Y0143712D01*
X0361452Y0146111D02*
X0363330Y0146111D01*
X0363268Y0148509D02*
X0361452Y0148509D01*
X0361252Y0150908D02*
X0359894Y0150908D01*
X0358650Y0153306D02*
X0361252Y0153306D01*
X0361049Y0155705D02*
X0362124Y0155705D01*
X0361452Y0158103D02*
X0401409Y0158103D01*
X0401409Y0155705D02*
X0370780Y0155705D01*
X0371652Y0153306D02*
X0401409Y0153306D01*
X0401409Y0150908D02*
X0371652Y0150908D01*
X0366452Y0150908D02*
X0366452Y0150908D01*
X0366452Y0152679D02*
X0366452Y0152679D01*
X0366452Y0153306D02*
X0366452Y0153306D01*
X0366452Y0155705D02*
X0366452Y0155705D01*
X0362175Y0160502D02*
X0361200Y0160502D01*
X0361252Y0162900D02*
X0358801Y0162900D01*
X0359843Y0165299D02*
X0361252Y0165299D01*
X0361452Y0167697D02*
X0363217Y0167697D01*
X0366452Y0167697D02*
X0366452Y0167697D01*
X0366452Y0165299D02*
X0366452Y0165299D01*
X0354102Y0162900D02*
X0337976Y0162900D01*
X0340374Y0165299D02*
X0353061Y0165299D01*
X0351452Y0167697D02*
X0342773Y0167697D01*
X0345171Y0170096D02*
X0351452Y0170096D01*
X0352750Y0174100D02*
X0352300Y0174550D01*
X0345100Y0174550D01*
X0281650Y0111100D01*
X0279850Y0111100D01*
X0279759Y0111019D01*
X0276255Y0107734D02*
X0273546Y0107734D01*
X0274759Y0108948D02*
X0274759Y0111019D01*
X0274759Y0113090D01*
X0273849Y0114000D01*
X0274497Y0114000D01*
X0275416Y0114381D01*
X0277513Y0116477D01*
X0277771Y0116219D01*
X0281747Y0116219D01*
X0284559Y0119031D01*
X0284559Y0123007D01*
X0282951Y0124615D01*
X0286348Y0128012D01*
X0287116Y0128331D01*
X0288916Y0130131D01*
X0289619Y0130834D01*
X0290000Y0131753D01*
X0290000Y0134547D01*
X0289619Y0135466D01*
X0284559Y0140526D01*
X0284559Y0143007D01*
X0281747Y0145819D01*
X0277771Y0145819D01*
X0274959Y0143007D01*
X0274959Y0139031D01*
X0277771Y0136219D01*
X0281747Y0136219D01*
X0281771Y0136243D01*
X0284864Y0133150D01*
X0284602Y0132888D01*
X0284559Y0132870D01*
X0284559Y0133007D01*
X0281747Y0135819D01*
X0277771Y0135819D01*
X0276252Y0134300D01*
X0275936Y0134300D01*
X0272882Y0137354D01*
X0274559Y0139031D01*
X0274559Y0143007D01*
X0272876Y0144690D01*
X0275936Y0147750D01*
X0276240Y0147750D01*
X0277771Y0146219D01*
X0281747Y0146219D01*
X0282621Y0147093D01*
X0285184Y0144531D01*
X0286103Y0144150D01*
X0310175Y0144150D01*
X0281795Y0115771D01*
X0281747Y0115819D01*
X0277771Y0115819D01*
X0274959Y0113007D01*
X0274959Y0109031D01*
X0277771Y0106219D01*
X0274759Y0108948D02*
X0271830Y0106019D01*
X0269759Y0106019D01*
X0269759Y0111019D01*
X0274759Y0111019D01*
X0269759Y0111019D01*
X0269759Y0111019D01*
X0264759Y0111019D01*
X0264759Y0108948D01*
X0267688Y0106019D01*
X0269759Y0106019D01*
X0269759Y0111019D01*
X0269759Y0111019D01*
X0269759Y0110133D02*
X0269759Y0110133D01*
X0269759Y0107734D02*
X0269759Y0107734D01*
X0265972Y0107734D02*
X0231851Y0107734D01*
X0229453Y0110133D02*
X0264759Y0110133D01*
X0264759Y0112532D02*
X0264117Y0112532D01*
X0261264Y0116750D02*
X0258974Y0116750D01*
X0259100Y0117054D01*
X0259100Y0118646D01*
X0258491Y0120116D01*
X0258282Y0120325D01*
X0258491Y0120534D01*
X0259100Y0122004D01*
X0259100Y0123264D01*
X0259286Y0123450D01*
X0263064Y0123450D01*
X0264231Y0122284D01*
X0264759Y0121755D01*
X0264759Y0121019D01*
X0269759Y0121019D01*
X0269759Y0121019D01*
X0274759Y0121019D01*
X0274759Y0123090D01*
X0274614Y0123235D01*
X0274966Y0123381D01*
X0275486Y0123900D01*
X0275852Y0123900D01*
X0274959Y0123007D01*
X0274959Y0120995D01*
X0274759Y0120795D01*
X0274759Y0121019D01*
X0269759Y0121019D01*
X0269759Y0121019D01*
X0264759Y0121019D01*
X0264759Y0120245D01*
X0264231Y0119716D01*
X0261264Y0116750D01*
X0261843Y0117329D02*
X0259100Y0117329D01*
X0258652Y0119727D02*
X0264242Y0119727D01*
X0264389Y0122126D02*
X0259100Y0122126D01*
X0274759Y0122126D02*
X0274959Y0122126D01*
X0275966Y0114930D02*
X0276882Y0114930D01*
X0274959Y0112532D02*
X0274759Y0112532D01*
X0274759Y0110133D02*
X0274959Y0110133D01*
X0282857Y0117329D02*
X0283353Y0117329D01*
X0284559Y0119727D02*
X0285752Y0119727D01*
X0284559Y0122126D02*
X0288150Y0122126D01*
X0290549Y0124524D02*
X0283042Y0124524D01*
X0285258Y0126923D02*
X0292947Y0126923D01*
X0295346Y0129321D02*
X0288107Y0129321D01*
X0289986Y0131720D02*
X0297744Y0131720D01*
X0300143Y0134118D02*
X0290000Y0134118D01*
X0288569Y0136517D02*
X0302541Y0136517D01*
X0304940Y0138915D02*
X0286170Y0138915D01*
X0284559Y0141314D02*
X0307338Y0141314D01*
X0309737Y0143712D02*
X0283854Y0143712D01*
X0283604Y0146111D02*
X0274296Y0146111D01*
X0273854Y0143712D02*
X0275664Y0143712D01*
X0274959Y0141314D02*
X0274559Y0141314D01*
X0274444Y0138915D02*
X0275075Y0138915D01*
X0273719Y0136517D02*
X0277473Y0136517D01*
X0283448Y0134118D02*
X0283896Y0134118D01*
X0299600Y0124524D02*
X0351452Y0124524D01*
X0351452Y0126923D02*
X0301998Y0126923D01*
X0304397Y0129321D02*
X0353123Y0129321D01*
X0354040Y0131720D02*
X0306795Y0131720D01*
X0309194Y0134118D02*
X0351642Y0134118D01*
X0351452Y0136517D02*
X0311592Y0136517D01*
X0313991Y0138915D02*
X0351917Y0138915D01*
X0354316Y0141314D02*
X0316389Y0141314D01*
X0318788Y0143712D02*
X0352947Y0143712D01*
X0351452Y0146111D02*
X0338996Y0146111D01*
X0335904Y0146111D02*
X0321186Y0146111D01*
X0323585Y0148509D02*
X0333655Y0148509D01*
X0327985Y0150908D02*
X0325983Y0150908D01*
X0333179Y0158103D02*
X0351452Y0158103D01*
X0351704Y0160502D02*
X0335577Y0160502D01*
X0341245Y0148509D02*
X0349605Y0148509D01*
X0366452Y0134118D02*
X0366452Y0134118D01*
X0366452Y0131720D02*
X0366452Y0131720D01*
X0366452Y0129321D02*
X0366452Y0129321D01*
X0366452Y0126923D02*
X0366452Y0126923D01*
X0366452Y0124524D02*
X0366452Y0124524D01*
X0366452Y0122126D02*
X0366452Y0122126D01*
X0366452Y0120079D02*
X0366452Y0114879D01*
X0366452Y0120079D01*
X0366452Y0120079D01*
X0366452Y0119727D02*
X0366452Y0119727D01*
X0366452Y0117329D02*
X0366452Y0117329D01*
X0366452Y0114930D02*
X0366452Y0114930D01*
X0368657Y0114930D02*
X0401409Y0114930D01*
X0401409Y0112532D02*
X0370553Y0112532D01*
X0371652Y0110133D02*
X0401409Y0110133D01*
X0401409Y0107734D02*
X0371652Y0107734D01*
X0371652Y0107125D02*
X0371652Y0109279D01*
X0366452Y0109279D01*
X0366452Y0109279D01*
X0361252Y0109279D01*
X0361252Y0107125D01*
X0364298Y0104079D01*
X0366452Y0104079D01*
X0368606Y0104079D01*
X0371652Y0107125D01*
X0369863Y0105336D02*
X0401409Y0105336D01*
X0401409Y0102937D02*
X0369247Y0102937D01*
X0366452Y0102937D02*
X0366452Y0102937D01*
X0366452Y0104079D02*
X0366452Y0109279D01*
X0366452Y0109279D01*
X0366452Y0104079D01*
X0366452Y0105336D02*
X0366452Y0105336D01*
X0366452Y0107734D02*
X0366452Y0107734D01*
X0366452Y0110133D02*
X0366452Y0110133D01*
X0366452Y0112532D02*
X0366452Y0112532D01*
X0364247Y0114930D02*
X0361452Y0114930D01*
X0361376Y0112532D02*
X0362351Y0112532D01*
X0361252Y0110133D02*
X0358977Y0110133D01*
X0359567Y0107734D02*
X0361252Y0107734D01*
X0361452Y0105336D02*
X0363041Y0105336D01*
X0363657Y0102937D02*
X0361452Y0102937D01*
X0361258Y0100539D02*
X0360283Y0100539D01*
X0361252Y0098379D02*
X0361252Y0096225D01*
X0364298Y0093179D01*
X0366452Y0093179D01*
X0368606Y0093179D01*
X0371652Y0096225D01*
X0371652Y0098379D01*
X0366452Y0098379D01*
X0366452Y0098379D01*
X0361252Y0098379D01*
X0361252Y0098140D02*
X0353676Y0098140D01*
X0352144Y0095742D02*
X0351277Y0095742D01*
X0351452Y0093343D02*
X0319629Y0093343D01*
X0317230Y0090945D02*
X0350209Y0090945D01*
X0352483Y0086148D02*
X0353450Y0086148D01*
X0351452Y0083749D02*
X0329298Y0083749D01*
X0327758Y0081351D02*
X0351452Y0081351D01*
X0352507Y0078952D02*
X0311804Y0078952D01*
X0313036Y0081351D02*
X0322842Y0081351D01*
X0317355Y0098140D02*
X0285095Y0098140D01*
X0281985Y0100539D02*
X0337950Y0100539D01*
X0338340Y0102937D02*
X0236648Y0102937D01*
X0239783Y0112532D02*
X0227988Y0112532D01*
X0189383Y0112532D02*
X0178955Y0112532D01*
X0176556Y0114930D02*
X0186984Y0114930D01*
X0184586Y0117329D02*
X0178792Y0117329D01*
X0179400Y0119727D02*
X0182187Y0119727D01*
X0179789Y0122126D02*
X0179400Y0122126D01*
X0177390Y0124524D02*
X0177245Y0124524D01*
X0120100Y0130450D02*
X0116050Y0130450D01*
X0115822Y0130468D01*
X0088800Y0153986D02*
X0084876Y0150061D01*
X0084791Y0150266D01*
X0083900Y0151157D01*
X0083900Y0157497D01*
X0083519Y0158416D01*
X0079615Y0162321D01*
X0079643Y0162349D01*
X0080343Y0164039D01*
X0080343Y0171069D01*
X0079643Y0172760D01*
X0078349Y0174054D01*
X0076658Y0174754D01*
X0074831Y0174754D01*
X0069766Y0179819D01*
X0068847Y0180200D01*
X0060836Y0180200D01*
X0051500Y0189536D01*
X0051500Y0199164D01*
X0054086Y0201750D01*
X0060747Y0201750D01*
X0061666Y0202131D01*
X0062369Y0202834D01*
X0061961Y0198878D02*
X0060706Y0198878D01*
X0061134Y0196479D02*
X0061534Y0196479D01*
X0061534Y0194287D02*
X0061534Y0191309D01*
X0061652Y0190563D01*
X0061886Y0189844D01*
X0062229Y0189171D01*
X0062673Y0188560D01*
X0063207Y0188025D01*
X0063818Y0187581D01*
X0064491Y0187238D01*
X0065210Y0187005D01*
X0065956Y0186887D01*
X0066334Y0186887D01*
X0066712Y0186887D01*
X0067458Y0187005D01*
X0068176Y0187238D01*
X0068850Y0187581D01*
X0069461Y0188025D01*
X0069995Y0188560D01*
X0070439Y0189171D01*
X0070782Y0189844D01*
X0071016Y0190563D01*
X0071134Y0191309D01*
X0071134Y0194287D01*
X0066334Y0194287D01*
X0066334Y0194287D01*
X0066334Y0194286D02*
X0066334Y0186887D01*
X0066334Y0194286D01*
X0066334Y0194286D01*
X0066334Y0194287D02*
X0061534Y0194287D01*
X0061534Y0194081D02*
X0061134Y0194081D01*
X0061134Y0191682D02*
X0061534Y0191682D01*
X0062171Y0189284D02*
X0060497Y0189284D01*
X0056334Y0189284D02*
X0056334Y0189284D01*
X0056334Y0191682D02*
X0056334Y0191682D01*
X0052171Y0189284D02*
X0051752Y0189284D01*
X0051534Y0191682D02*
X0051500Y0191682D01*
X0051500Y0194081D02*
X0051534Y0194081D01*
X0051500Y0196479D02*
X0051534Y0196479D01*
X0051500Y0198878D02*
X0051961Y0198878D01*
X0053612Y0201276D02*
X0054376Y0201276D01*
X0051338Y0206073D02*
X0049700Y0206073D01*
X0035700Y0206073D02*
X0016748Y0206073D01*
X0014312Y0203675D02*
X0035700Y0203675D01*
X0035700Y0201276D02*
X0023984Y0201276D01*
X0023241Y0201476D02*
X0020529Y0201476D01*
X0017910Y0200774D01*
X0015561Y0199418D01*
X0013644Y0197500D01*
X0012288Y0195152D01*
X0011586Y0192532D01*
X0011586Y0189820D01*
X0012288Y0187201D01*
X0013644Y0184853D01*
X0015561Y0182935D01*
X0017910Y0181579D01*
X0020529Y0180877D01*
X0023241Y0180877D01*
X0025860Y0181579D01*
X0028209Y0182935D01*
X0030126Y0184853D01*
X0031482Y0187201D01*
X0032184Y0189820D01*
X0032184Y0192532D01*
X0031482Y0195152D01*
X0030126Y0197500D01*
X0028209Y0199418D01*
X0025860Y0200774D01*
X0023241Y0201476D01*
X0019786Y0201276D02*
X0011875Y0201276D01*
X0009438Y0198878D02*
X0015021Y0198878D01*
X0013054Y0196479D02*
X0007400Y0196479D01*
X0007400Y0194081D02*
X0012001Y0194081D01*
X0011586Y0191682D02*
X0007400Y0191682D01*
X0007400Y0189284D02*
X0011730Y0189284D01*
X0012470Y0186885D02*
X0007400Y0186885D01*
X0007400Y0184487D02*
X0014009Y0184487D01*
X0017028Y0182088D02*
X0007400Y0182088D01*
X0007400Y0179690D02*
X0035700Y0179690D01*
X0035700Y0182088D02*
X0026743Y0182088D01*
X0029761Y0184487D02*
X0035700Y0184487D01*
X0035700Y0186885D02*
X0031300Y0186885D01*
X0032040Y0189284D02*
X0035700Y0189284D01*
X0035700Y0191682D02*
X0032184Y0191682D01*
X0031769Y0194081D02*
X0035700Y0194081D01*
X0035700Y0196479D02*
X0030716Y0196479D01*
X0028749Y0198878D02*
X0035700Y0198878D01*
X0035700Y0208472D02*
X0019185Y0208472D01*
X0021622Y0210870D02*
X0035700Y0210870D01*
X0035700Y0213269D02*
X0024059Y0213269D01*
X0026496Y0215668D02*
X0035700Y0215668D01*
X0035700Y0218066D02*
X0028933Y0218066D01*
X0031370Y0220465D02*
X0035700Y0220465D01*
X0035700Y0222863D02*
X0033807Y0222863D01*
X0036243Y0225262D02*
X0036776Y0225262D01*
X0038680Y0227660D02*
X0039175Y0227660D01*
X0041117Y0230059D02*
X0041573Y0230059D01*
X0043554Y0232457D02*
X0043972Y0232457D01*
X0045991Y0234856D02*
X0046370Y0234856D01*
X0048428Y0237254D02*
X0048769Y0237254D01*
X0050865Y0239653D02*
X0051000Y0239653D01*
X0106967Y0213269D02*
X0109795Y0213269D01*
X0109365Y0210870D02*
X0111300Y0210870D01*
X0126523Y0218066D02*
X0137466Y0218066D01*
X0136850Y0220465D02*
X0127250Y0220465D01*
X0126494Y0222863D02*
X0137464Y0222863D01*
X0150348Y0227660D02*
X0151350Y0227660D01*
X0151350Y0230059D02*
X0151250Y0230059D01*
X0151350Y0232457D02*
X0150805Y0232457D01*
X0148959Y0234856D02*
X0148077Y0234856D01*
X0106334Y0198878D02*
X0106334Y0198878D01*
X0106334Y0196479D02*
X0106334Y0196479D01*
X0106334Y0194287D02*
X0106334Y0194287D01*
X0106334Y0194286D02*
X0106334Y0186887D01*
X0106712Y0186887D01*
X0107458Y0187005D01*
X0108176Y0187238D01*
X0108850Y0187581D01*
X0109461Y0188025D01*
X0109500Y0188065D01*
X0109500Y0187736D01*
X0096519Y0174754D01*
X0094828Y0174754D01*
X0093138Y0174054D01*
X0091844Y0172760D01*
X0091143Y0171069D01*
X0091143Y0164039D01*
X0091556Y0163042D01*
X0089181Y0160666D01*
X0088800Y0159747D01*
X0088800Y0153986D01*
X0088121Y0153306D02*
X0083900Y0153306D01*
X0083900Y0155705D02*
X0088800Y0155705D01*
X0088800Y0158103D02*
X0083649Y0158103D01*
X0084472Y0160502D02*
X0081434Y0160502D01*
X0083138Y0161055D02*
X0081844Y0162349D01*
X0081143Y0164039D01*
X0081143Y0171069D01*
X0081844Y0172760D01*
X0083138Y0174054D01*
X0084828Y0174754D01*
X0086658Y0174754D01*
X0088349Y0174054D01*
X0089643Y0172760D01*
X0090343Y0171069D01*
X0090343Y0164039D01*
X0089643Y0162349D01*
X0088349Y0161055D01*
X0086658Y0160354D01*
X0084828Y0160354D01*
X0083138Y0161055D01*
X0081615Y0162900D02*
X0079871Y0162900D01*
X0080343Y0165299D02*
X0081143Y0165299D01*
X0081143Y0167697D02*
X0080343Y0167697D01*
X0080343Y0170096D02*
X0081143Y0170096D01*
X0081734Y0172494D02*
X0079753Y0172494D01*
X0074693Y0174893D02*
X0096657Y0174893D01*
X0099056Y0177291D02*
X0072294Y0177291D01*
X0069896Y0179690D02*
X0101454Y0179690D01*
X0103853Y0182088D02*
X0058947Y0182088D01*
X0056549Y0184487D02*
X0106251Y0184487D01*
X0106334Y0186887D02*
X0106334Y0194286D01*
X0106334Y0194286D01*
X0106334Y0194287D02*
X0101534Y0194287D01*
X0101534Y0191309D01*
X0101652Y0190563D01*
X0101886Y0189844D01*
X0102229Y0189171D01*
X0102673Y0188560D01*
X0103207Y0188025D01*
X0103818Y0187581D01*
X0104491Y0187238D01*
X0105210Y0187005D01*
X0105956Y0186887D01*
X0106334Y0186887D01*
X0108650Y0186885D02*
X0054150Y0186885D01*
X0066334Y0189284D02*
X0066334Y0189284D01*
X0066334Y0191682D02*
X0066334Y0191682D01*
X0066334Y0194081D02*
X0066334Y0194081D01*
X0066334Y0196479D02*
X0066334Y0196479D01*
X0066334Y0198878D02*
X0066334Y0198878D01*
X0070706Y0198878D02*
X0071961Y0198878D01*
X0071534Y0196479D02*
X0071134Y0196479D01*
X0071534Y0194287D02*
X0071534Y0191309D01*
X0071652Y0190563D01*
X0071886Y0189844D01*
X0072229Y0189171D01*
X0072673Y0188560D01*
X0073207Y0188025D01*
X0073818Y0187581D01*
X0074491Y0187238D01*
X0075210Y0187005D01*
X0075956Y0186887D01*
X0076334Y0186887D01*
X0076712Y0186887D01*
X0077458Y0187005D01*
X0078176Y0187238D01*
X0078850Y0187581D01*
X0079461Y0188025D01*
X0079995Y0188560D01*
X0080439Y0189171D01*
X0080782Y0189844D01*
X0081016Y0190563D01*
X0081134Y0191309D01*
X0081134Y0194287D01*
X0076334Y0194287D01*
X0076334Y0194287D01*
X0076334Y0194286D02*
X0076334Y0186887D01*
X0076334Y0194286D01*
X0076334Y0194286D01*
X0076334Y0194287D02*
X0071534Y0194287D01*
X0071534Y0194081D02*
X0071134Y0194081D01*
X0071134Y0191682D02*
X0071534Y0191682D01*
X0072171Y0189284D02*
X0070497Y0189284D01*
X0076334Y0189284D02*
X0076334Y0189284D01*
X0076334Y0191682D02*
X0076334Y0191682D01*
X0076334Y0194081D02*
X0076334Y0194081D01*
X0076334Y0196479D02*
X0076334Y0196479D01*
X0076334Y0198878D02*
X0076334Y0198878D01*
X0080706Y0198878D02*
X0081961Y0198878D01*
X0081534Y0196479D02*
X0081134Y0196479D01*
X0081534Y0194287D02*
X0081534Y0191309D01*
X0081652Y0190563D01*
X0081886Y0189844D01*
X0082229Y0189171D01*
X0082673Y0188560D01*
X0083207Y0188025D01*
X0083818Y0187581D01*
X0084491Y0187238D01*
X0085210Y0187005D01*
X0085956Y0186887D01*
X0086334Y0186887D01*
X0086712Y0186887D01*
X0087458Y0187005D01*
X0088176Y0187238D01*
X0088850Y0187581D01*
X0089461Y0188025D01*
X0089995Y0188560D01*
X0090439Y0189171D01*
X0090782Y0189844D01*
X0091016Y0190563D01*
X0091134Y0191309D01*
X0091134Y0194287D01*
X0086334Y0194287D01*
X0086334Y0194287D01*
X0086334Y0194286D02*
X0086334Y0186887D01*
X0086334Y0194286D01*
X0086334Y0194286D01*
X0086334Y0194287D02*
X0081534Y0194287D01*
X0081534Y0194081D02*
X0081134Y0194081D01*
X0081134Y0191682D02*
X0081534Y0191682D01*
X0082171Y0189284D02*
X0080497Y0189284D01*
X0086334Y0189284D02*
X0086334Y0189284D01*
X0086334Y0191682D02*
X0086334Y0191682D01*
X0086334Y0194081D02*
X0086334Y0194081D01*
X0086334Y0196479D02*
X0086334Y0196479D01*
X0086334Y0198878D02*
X0086334Y0198878D01*
X0090706Y0198878D02*
X0091961Y0198878D01*
X0091534Y0196479D02*
X0091134Y0196479D01*
X0091534Y0194287D02*
X0091534Y0191309D01*
X0091652Y0190563D01*
X0091886Y0189844D01*
X0092229Y0189171D01*
X0092673Y0188560D01*
X0093207Y0188025D01*
X0093818Y0187581D01*
X0094491Y0187238D01*
X0095210Y0187005D01*
X0095956Y0186887D01*
X0096334Y0186887D01*
X0096712Y0186887D01*
X0097458Y0187005D01*
X0098176Y0187238D01*
X0098850Y0187581D01*
X0099461Y0188025D01*
X0099995Y0188560D01*
X0100439Y0189171D01*
X0100782Y0189844D01*
X0101016Y0190563D01*
X0101134Y0191309D01*
X0101134Y0194287D01*
X0096334Y0194287D01*
X0096334Y0194287D01*
X0096334Y0194286D02*
X0096334Y0186887D01*
X0096334Y0194286D01*
X0096334Y0194286D01*
X0096334Y0194287D02*
X0091534Y0194287D01*
X0091534Y0194081D02*
X0091134Y0194081D01*
X0091134Y0191682D02*
X0091534Y0191682D01*
X0092171Y0189284D02*
X0090497Y0189284D01*
X0096334Y0189284D02*
X0096334Y0189284D01*
X0096334Y0191682D02*
X0096334Y0191682D01*
X0096334Y0194081D02*
X0096334Y0194081D01*
X0096334Y0196479D02*
X0096334Y0196479D01*
X0096334Y0198878D02*
X0096334Y0198878D01*
X0100706Y0198878D02*
X0101961Y0198878D01*
X0101534Y0196479D02*
X0101134Y0196479D01*
X0101134Y0194081D02*
X0101534Y0194081D01*
X0101534Y0191682D02*
X0101134Y0191682D01*
X0100497Y0189284D02*
X0102171Y0189284D01*
X0106334Y0189284D02*
X0106334Y0189284D01*
X0106334Y0191682D02*
X0106334Y0191682D01*
X0106334Y0194081D02*
X0106334Y0194081D01*
X0109880Y0172494D02*
X0111734Y0172494D01*
X0111143Y0170096D02*
X0110343Y0170096D01*
X0110343Y0167697D02*
X0111143Y0167697D01*
X0111143Y0165299D02*
X0110343Y0165299D01*
X0109871Y0162900D02*
X0111615Y0162900D01*
X0110166Y0160502D02*
X0107014Y0160502D01*
X0107768Y0158103D02*
X0102689Y0158103D01*
X0100290Y0155705D02*
X0105369Y0155705D01*
X0091415Y0162900D02*
X0089871Y0162900D01*
X0090343Y0165299D02*
X0091143Y0165299D01*
X0091143Y0167697D02*
X0090343Y0167697D01*
X0090343Y0170096D02*
X0091143Y0170096D01*
X0091734Y0172494D02*
X0089753Y0172494D01*
X0089113Y0160502D02*
X0087014Y0160502D01*
X0085722Y0150908D02*
X0084149Y0150908D01*
X0044472Y0160502D02*
X0042050Y0160502D01*
X0041615Y0162900D02*
X0041235Y0162900D01*
X0041143Y0165299D02*
X0040700Y0165299D01*
X0040700Y0167697D02*
X0041143Y0167697D01*
X0041143Y0170096D02*
X0040700Y0170096D01*
X0040700Y0172494D02*
X0041734Y0172494D01*
X0035700Y0172494D02*
X0030925Y0172494D01*
X0031482Y0171530D02*
X0030126Y0173878D01*
X0028209Y0175796D01*
X0025860Y0177152D01*
X0023241Y0177854D01*
X0020529Y0177854D01*
X0017910Y0177152D01*
X0015561Y0175796D01*
X0013644Y0173878D01*
X0012288Y0171530D01*
X0011586Y0168910D01*
X0011586Y0166198D01*
X0012288Y0163579D01*
X0013644Y0161230D01*
X0015561Y0159313D01*
X0017910Y0157957D01*
X0020529Y0157255D01*
X0023241Y0157255D01*
X0025860Y0157957D01*
X0028209Y0159313D01*
X0030126Y0161230D01*
X0031482Y0163579D01*
X0032184Y0166198D01*
X0032184Y0168910D01*
X0031482Y0171530D01*
X0031867Y0170096D02*
X0035700Y0170096D01*
X0035700Y0167697D02*
X0032184Y0167697D01*
X0031943Y0165299D02*
X0035700Y0165299D01*
X0035700Y0162900D02*
X0031091Y0162900D01*
X0029398Y0160502D02*
X0036563Y0160502D01*
X0037050Y0158103D02*
X0026114Y0158103D01*
X0025860Y0153530D02*
X0023241Y0154231D01*
X0020529Y0154231D01*
X0017910Y0153530D01*
X0015561Y0152174D01*
X0013644Y0150256D01*
X0012288Y0147908D01*
X0011586Y0145288D01*
X0011586Y0142576D01*
X0012288Y0139957D01*
X0013644Y0137608D01*
X0015561Y0135691D01*
X0017910Y0134335D01*
X0020529Y0133633D01*
X0023241Y0133633D01*
X0025860Y0134335D01*
X0028209Y0135691D01*
X0030126Y0137608D01*
X0031482Y0139957D01*
X0032184Y0142576D01*
X0032184Y0145288D01*
X0031482Y0147908D01*
X0030126Y0150256D01*
X0028209Y0152174D01*
X0025860Y0153530D01*
X0026247Y0153306D02*
X0037050Y0153306D01*
X0037050Y0150908D02*
X0029475Y0150908D01*
X0031135Y0148509D02*
X0037050Y0148509D01*
X0037050Y0146111D02*
X0031964Y0146111D01*
X0032184Y0143712D02*
X0037050Y0143712D01*
X0037050Y0141314D02*
X0031846Y0141314D01*
X0030881Y0138915D02*
X0037050Y0138915D01*
X0037050Y0136517D02*
X0029035Y0136517D01*
X0025051Y0134118D02*
X0037050Y0134118D01*
X0037050Y0131720D02*
X0007400Y0131720D01*
X0007400Y0134118D02*
X0018719Y0134118D01*
X0014735Y0136517D02*
X0007400Y0136517D01*
X0007400Y0138915D02*
X0012889Y0138915D01*
X0011924Y0141314D02*
X0007400Y0141314D01*
X0007400Y0143712D02*
X0011586Y0143712D01*
X0011806Y0146111D02*
X0007400Y0146111D01*
X0007400Y0148509D02*
X0012635Y0148509D01*
X0014295Y0150908D02*
X0007400Y0150908D01*
X0007400Y0153306D02*
X0017523Y0153306D01*
X0017656Y0158103D02*
X0007400Y0158103D01*
X0007400Y0155705D02*
X0037050Y0155705D01*
X0014372Y0160502D02*
X0007400Y0160502D01*
X0007400Y0162900D02*
X0012680Y0162900D01*
X0011827Y0165299D02*
X0007400Y0165299D01*
X0007400Y0167697D02*
X0011586Y0167697D01*
X0011903Y0170096D02*
X0007400Y0170096D01*
X0007400Y0172494D02*
X0012845Y0172494D01*
X0014658Y0174893D02*
X0007400Y0174893D01*
X0007400Y0177291D02*
X0018431Y0177291D01*
X0025339Y0177291D02*
X0035700Y0177291D01*
X0035700Y0174893D02*
X0029112Y0174893D01*
X0026876Y0129321D02*
X0037050Y0129321D01*
X0037050Y0126923D02*
X0029838Y0126923D01*
X0031345Y0124524D02*
X0037050Y0124524D01*
X0037050Y0122126D02*
X0032061Y0122126D01*
X0032184Y0119727D02*
X0037050Y0119727D01*
X0037050Y0117329D02*
X0031749Y0117329D01*
X0030671Y0114930D02*
X0037050Y0114930D01*
X0037050Y0112532D02*
X0028672Y0112532D01*
X0015098Y0112532D02*
X0007400Y0112532D01*
X0007400Y0114930D02*
X0013099Y0114930D01*
X0012021Y0117329D02*
X0007400Y0117329D01*
X0007400Y0119727D02*
X0011586Y0119727D01*
X0011709Y0122126D02*
X0007400Y0122126D01*
X0007400Y0124524D02*
X0012425Y0124524D01*
X0013932Y0126923D02*
X0007400Y0126923D01*
X0007400Y0129321D02*
X0016894Y0129321D01*
X0036292Y0102937D02*
X0037050Y0102937D01*
X0037050Y0100539D02*
X0036920Y0100539D01*
X0037050Y0098140D02*
X0036318Y0098140D01*
X0037050Y0095742D02*
X0025927Y0095742D01*
X0023451Y0093343D02*
X0022629Y0093343D01*
X0022520Y0090945D02*
X0020450Y0090945D01*
X0020450Y0088546D02*
X0021561Y0088546D01*
X0023835Y0083749D02*
X0023857Y0083749D01*
X0022520Y0081351D02*
X0022250Y0081351D01*
X0022250Y0078952D02*
X0022785Y0078952D01*
X0022250Y0076554D02*
X0024643Y0076554D01*
X0025277Y0074955D02*
X0024604Y0074612D01*
X0023993Y0074168D01*
X0023458Y0073634D01*
X0023014Y0073023D01*
X0022671Y0072350D01*
X0022438Y0071631D01*
X0022320Y0070885D01*
X0022320Y0070507D01*
X0022320Y0070129D01*
X0022438Y0069383D01*
X0022671Y0068665D01*
X0023014Y0067991D01*
X0023458Y0067380D01*
X0023993Y0066846D01*
X0024604Y0066402D01*
X0025277Y0066059D01*
X0025996Y0065825D01*
X0026742Y0065707D01*
X0029720Y0065707D01*
X0029720Y0070507D01*
X0029720Y0070507D01*
X0029720Y0069894D01*
X0029720Y0069358D02*
X0029720Y0069358D01*
X0029720Y0070507D02*
X0022320Y0070507D01*
X0029720Y0070507D01*
X0029720Y0070507D01*
X0029720Y0075307D01*
X0026742Y0075307D01*
X0025996Y0075189D01*
X0025277Y0074955D01*
X0023980Y0074155D02*
X0022250Y0074155D01*
X0022250Y0071757D02*
X0022479Y0071757D01*
X0022446Y0069358D02*
X0022250Y0069358D01*
X0022250Y0066960D02*
X0023879Y0066960D01*
X0024534Y0064561D02*
X0022250Y0064561D01*
X0022250Y0062163D02*
X0022611Y0062163D01*
X0022377Y0059764D02*
X0022250Y0059764D01*
X0022250Y0057366D02*
X0023473Y0057366D01*
X0029720Y0064561D02*
X0029720Y0064561D01*
X0029720Y0066960D02*
X0029720Y0066960D01*
X0029720Y0070507D02*
X0029720Y0070507D01*
X0029720Y0071757D02*
X0029720Y0071757D01*
X0029720Y0074155D02*
X0029720Y0074155D01*
X0033816Y0086148D02*
X0035812Y0086148D01*
X0036487Y0088546D02*
X0037050Y0088546D01*
X0037050Y0090945D02*
X0036920Y0090945D01*
X0037050Y0093343D02*
X0035989Y0093343D01*
X0029720Y0045307D02*
X0026742Y0045307D01*
X0025996Y0045189D01*
X0025277Y0044955D01*
X0024604Y0044612D01*
X0023993Y0044168D01*
X0023458Y0043634D01*
X0023014Y0043023D01*
X0022671Y0042350D01*
X0022438Y0041631D01*
X0022320Y0040885D01*
X0022320Y0040507D01*
X0022320Y0040129D01*
X0022438Y0039383D01*
X0022671Y0038665D01*
X0023014Y0037991D01*
X0023458Y0037380D01*
X0023993Y0036846D01*
X0024604Y0036402D01*
X0025277Y0036059D01*
X0025996Y0035825D01*
X0026742Y0035707D01*
X0026287Y0035779D02*
X0024806Y0035779D01*
X0022919Y0038178D02*
X0022408Y0038178D01*
X0022320Y0040507D02*
X0029720Y0040507D01*
X0029720Y0040507D01*
X0029720Y0045307D01*
X0029720Y0042975D02*
X0029720Y0042975D01*
X0029720Y0040576D02*
X0029720Y0040576D01*
X0029720Y0040507D02*
X0029720Y0040507D01*
X0022320Y0040507D01*
X0022320Y0040576D02*
X0022250Y0040576D01*
X0022250Y0042975D02*
X0022990Y0042975D01*
X0029720Y0038178D02*
X0029720Y0038178D01*
X0029720Y0035779D02*
X0029720Y0035779D01*
X0089503Y0035779D02*
X0090744Y0035779D01*
X0092642Y0038178D02*
X0093142Y0038178D01*
X0093222Y0040576D02*
X0093519Y0040576D01*
X0092532Y0042975D02*
X0095689Y0042975D01*
X0102760Y0042975D02*
X0109281Y0042975D01*
X0108622Y0040576D02*
X0102681Y0040576D01*
X0103400Y0038178D02*
X0109192Y0038178D01*
X0102636Y0035779D02*
X0120444Y0035779D01*
X0122452Y0038178D02*
X0122842Y0038178D01*
X0123022Y0040576D02*
X0125241Y0040576D01*
X0118045Y0033381D02*
X0098116Y0033381D01*
X0095718Y0030982D02*
X0115647Y0030982D01*
X0113248Y0028584D02*
X0093319Y0028584D01*
X0090921Y0026185D02*
X0110850Y0026185D01*
X0108451Y0023787D02*
X0088522Y0023787D01*
X0112124Y0016591D02*
X0116292Y0016591D01*
X0114523Y0014193D02*
X0113892Y0014193D01*
X0114208Y0011794D02*
X0114208Y0011794D01*
X0113238Y0009396D02*
X0115177Y0009396D01*
X0123238Y0009396D02*
X0125177Y0009396D01*
X0124208Y0011794D02*
X0124208Y0011794D01*
X0123892Y0014193D02*
X0124523Y0014193D01*
X0126292Y0016591D02*
X0122124Y0016591D01*
X0132124Y0016591D02*
X0136292Y0016591D01*
X0134523Y0014193D02*
X0133892Y0014193D01*
X0134208Y0011794D02*
X0134208Y0011794D01*
X0133238Y0009396D02*
X0135177Y0009396D01*
X0143238Y0009396D02*
X0145177Y0009396D01*
X0144208Y0011794D02*
X0144208Y0011794D01*
X0143892Y0014193D02*
X0144523Y0014193D01*
X0146292Y0016591D02*
X0142124Y0016591D01*
X0152124Y0016591D02*
X0156292Y0016591D01*
X0154523Y0014193D02*
X0153892Y0014193D01*
X0154208Y0011794D02*
X0154208Y0011794D01*
X0153238Y0009396D02*
X0155177Y0009396D01*
X0163238Y0009396D02*
X0165177Y0009396D01*
X0164208Y0011794D02*
X0164208Y0011794D01*
X0163892Y0014193D02*
X0164523Y0014193D01*
X0166292Y0016591D02*
X0162124Y0016591D01*
X0192124Y0016591D02*
X0196292Y0016591D01*
X0194523Y0014193D02*
X0193892Y0014193D01*
X0194208Y0011794D02*
X0194208Y0011794D01*
X0193238Y0009396D02*
X0195177Y0009396D01*
X0274344Y0086148D02*
X0275221Y0086148D01*
X0297201Y0122126D02*
X0352834Y0122126D01*
X0360873Y0117329D02*
X0361848Y0117329D01*
X0371056Y0117329D02*
X0401409Y0117329D01*
X0401409Y0119727D02*
X0371652Y0119727D01*
X0371652Y0122126D02*
X0401409Y0122126D01*
X0401409Y0124524D02*
X0369361Y0124524D01*
X0369750Y0126923D02*
X0401409Y0126923D01*
X0401409Y0129321D02*
X0371652Y0129321D01*
X0371652Y0131720D02*
X0401409Y0131720D01*
X0401409Y0134118D02*
X0370666Y0134118D01*
X0353337Y0107734D02*
X0352020Y0107734D01*
X0351452Y0105336D02*
X0349622Y0105336D01*
X0351402Y0102937D02*
X0347223Y0102937D01*
X0345950Y0100539D02*
X0349003Y0100539D01*
X0360760Y0095742D02*
X0361735Y0095742D01*
X0361452Y0093343D02*
X0364133Y0093343D01*
X0366452Y0093343D02*
X0366452Y0093343D01*
X0366452Y0093179D02*
X0366452Y0098379D01*
X0366452Y0098379D01*
X0366452Y0093179D01*
X0366452Y0090945D02*
X0366452Y0090945D01*
X0366452Y0088546D02*
X0366452Y0088546D01*
X0366452Y0087479D02*
X0366452Y0087479D01*
X0371652Y0087479D01*
X0371652Y0085325D01*
X0368606Y0082279D01*
X0366452Y0082279D02*
X0366452Y0087479D01*
X0361252Y0087479D01*
X0361252Y0085325D01*
X0364298Y0082279D01*
X0366452Y0082279D01*
X0366452Y0083749D02*
X0366452Y0083749D01*
X0366452Y0086148D02*
X0366452Y0086148D01*
X0366452Y0087479D02*
X0366452Y0087479D01*
X0362827Y0083749D02*
X0361452Y0083749D01*
X0361252Y0086148D02*
X0359454Y0086148D01*
X0359091Y0088546D02*
X0361252Y0088546D01*
X0361452Y0090945D02*
X0362564Y0090945D01*
X0366452Y0095742D02*
X0366452Y0095742D01*
X0366452Y0098140D02*
X0366452Y0098140D01*
X0366452Y0100539D02*
X0366452Y0100539D01*
X0371646Y0100539D02*
X0401409Y0100539D01*
X0401409Y0098140D02*
X0371652Y0098140D01*
X0371169Y0095742D02*
X0401409Y0095742D01*
X0401409Y0093343D02*
X0368771Y0093343D01*
X0370340Y0090945D02*
X0401409Y0090945D01*
X0401409Y0088546D02*
X0371652Y0088546D01*
X0371652Y0086148D02*
X0401409Y0086148D01*
X0361750Y0172300D02*
X0360850Y0172300D01*
X0359050Y0174100D01*
X0352750Y0174100D01*
X0360936Y0177291D02*
X0362194Y0177291D01*
X0364000Y0174550D02*
X0361750Y0172300D01*
X0364000Y0174550D02*
X0366250Y0174550D01*
X0366452Y0174479D01*
X0353989Y0184487D02*
X0352272Y0184487D01*
X0371425Y0194081D02*
X0371534Y0194081D01*
X0285000Y0218336D02*
X0282115Y0215451D01*
X0281747Y0215819D01*
X0277771Y0215819D01*
X0274959Y0213007D01*
X0274959Y0209031D01*
X0276695Y0207295D01*
X0276634Y0207269D01*
X0273864Y0204500D01*
X0273066Y0204500D01*
X0271747Y0205819D01*
X0269316Y0205819D01*
X0269150Y0206219D01*
X0271747Y0206219D01*
X0274559Y0209031D01*
X0274559Y0213007D01*
X0271747Y0215819D01*
X0267771Y0215819D01*
X0264959Y0213007D01*
X0264959Y0209031D01*
X0265290Y0208700D01*
X0264986Y0208700D01*
X0264800Y0208886D01*
X0264800Y0245850D01*
X0267643Y0245850D01*
X0267009Y0245216D01*
X0266400Y0243746D01*
X0266400Y0242154D01*
X0267009Y0240684D01*
X0268134Y0239559D01*
X0269100Y0239159D01*
X0269100Y0237654D01*
X0269709Y0236184D01*
X0270074Y0235819D01*
X0267771Y0235819D01*
X0264959Y0233007D01*
X0264959Y0229031D01*
X0267771Y0226219D01*
X0271747Y0226219D01*
X0274559Y0229031D01*
X0274559Y0233007D01*
X0273116Y0234450D01*
X0273896Y0234450D01*
X0275366Y0235059D01*
X0276257Y0235950D01*
X0277197Y0235950D01*
X0278116Y0236331D01*
X0278186Y0236400D01*
X0278814Y0236400D01*
X0279196Y0236019D01*
X0277688Y0236019D01*
X0274759Y0233090D01*
X0274759Y0231019D01*
X0279759Y0231019D01*
X0279759Y0231019D01*
X0274759Y0231019D01*
X0274759Y0228948D01*
X0277688Y0226019D01*
X0279759Y0226019D01*
X0279759Y0231019D01*
X0279759Y0231019D01*
X0279759Y0226019D01*
X0277688Y0226019D01*
X0274759Y0223090D01*
X0274759Y0221019D01*
X0279759Y0221019D01*
X0279759Y0226019D01*
X0281830Y0226019D01*
X0279759Y0226019D01*
X0279759Y0221019D01*
X0279759Y0221019D01*
X0279759Y0221019D01*
X0284759Y0221019D01*
X0284759Y0223090D01*
X0281830Y0226019D01*
X0284759Y0228948D01*
X0284759Y0230455D01*
X0285000Y0230214D01*
X0285000Y0218336D01*
X0284730Y0218066D02*
X0283877Y0218066D01*
X0284759Y0218948D02*
X0281830Y0216019D01*
X0279759Y0216019D01*
X0279759Y0221019D01*
X0279759Y0221019D01*
X0274759Y0221019D01*
X0274759Y0218948D01*
X0277688Y0216019D01*
X0279759Y0216019D01*
X0279759Y0221019D01*
X0284759Y0221019D01*
X0284759Y0218948D01*
X0284759Y0220465D02*
X0285000Y0220465D01*
X0285000Y0222863D02*
X0284759Y0222863D01*
X0285000Y0225262D02*
X0282587Y0225262D01*
X0283471Y0227660D02*
X0285000Y0227660D01*
X0285000Y0230059D02*
X0284759Y0230059D01*
X0279759Y0230059D02*
X0279759Y0230059D01*
X0279759Y0227660D02*
X0279759Y0227660D01*
X0279759Y0225262D02*
X0279759Y0225262D01*
X0279759Y0222863D02*
X0279759Y0222863D01*
X0279759Y0221019D02*
X0279759Y0221019D01*
X0279759Y0220465D02*
X0279759Y0220465D01*
X0279759Y0218066D02*
X0279759Y0218066D01*
X0277619Y0215668D02*
X0271899Y0215668D01*
X0271747Y0216219D02*
X0274559Y0219031D01*
X0274559Y0223007D01*
X0271747Y0225819D01*
X0267771Y0225819D01*
X0264959Y0223007D01*
X0264959Y0219031D01*
X0267771Y0216219D01*
X0271747Y0216219D01*
X0273594Y0218066D02*
X0275641Y0218066D01*
X0274759Y0220465D02*
X0274559Y0220465D01*
X0274559Y0222863D02*
X0274759Y0222863D01*
X0276931Y0225262D02*
X0272305Y0225262D01*
X0273188Y0227660D02*
X0276047Y0227660D01*
X0274759Y0230059D02*
X0274559Y0230059D01*
X0274559Y0232457D02*
X0274759Y0232457D01*
X0274875Y0234856D02*
X0276525Y0234856D01*
X0269266Y0237254D02*
X0264800Y0237254D01*
X0264800Y0234856D02*
X0266808Y0234856D01*
X0264959Y0232457D02*
X0264800Y0232457D01*
X0264800Y0230059D02*
X0264959Y0230059D01*
X0264800Y0227660D02*
X0266330Y0227660D01*
X0267213Y0225262D02*
X0264800Y0225262D01*
X0264800Y0222863D02*
X0264959Y0222863D01*
X0264959Y0220465D02*
X0264800Y0220465D01*
X0264800Y0218066D02*
X0265924Y0218066D01*
X0264800Y0215668D02*
X0267619Y0215668D01*
X0265221Y0213269D02*
X0264800Y0213269D01*
X0264800Y0210870D02*
X0264959Y0210870D01*
X0269211Y0206073D02*
X0275438Y0206073D01*
X0275518Y0208472D02*
X0274000Y0208472D01*
X0274559Y0210870D02*
X0274959Y0210870D01*
X0275221Y0213269D02*
X0274297Y0213269D01*
X0281899Y0215668D02*
X0282332Y0215668D01*
X0268041Y0239653D02*
X0264800Y0239653D01*
X0264800Y0242051D02*
X0266443Y0242051D01*
X0266692Y0244450D02*
X0264800Y0244450D01*
D18*
X0021885Y0191176D03*
X0021885Y0167554D03*
X0021885Y0143932D03*
X0021885Y0120310D03*
D19*
X0026950Y0100300D02*
X0023350Y0096700D01*
X0022450Y0096700D01*
X0017950Y0092200D01*
X0017950Y0036400D01*
X0030550Y0023800D01*
X0077350Y0023800D01*
X0080950Y0027400D02*
X0029650Y0027400D01*
X0019750Y0037300D01*
X0019750Y0083200D01*
X0026950Y0090400D01*
X0029650Y0090400D01*
X0029720Y0090507D01*
X0030100Y0080950D02*
X0029720Y0080507D01*
X0030100Y0080950D02*
X0034150Y0080950D01*
X0039550Y0086350D01*
X0039550Y0161050D01*
X0038200Y0162400D01*
X0038200Y0223150D01*
X0053500Y0238450D01*
X0053500Y0239350D01*
X0056200Y0242050D01*
X0056650Y0241600D01*
X0157450Y0241600D01*
X0185800Y0213250D01*
X0190750Y0208300D02*
X0193450Y0208300D01*
X0201100Y0200650D01*
X0203800Y0200650D01*
X0204050Y0200468D01*
X0218200Y0210100D02*
X0218200Y0179950D01*
X0218650Y0175450D02*
X0211900Y0175450D01*
X0210100Y0177250D01*
X0209200Y0177250D01*
X0208300Y0176350D01*
X0199750Y0176350D01*
X0198850Y0177250D01*
X0197950Y0177250D01*
X0196150Y0175450D01*
X0188950Y0175450D01*
X0175450Y0171400D02*
X0187600Y0159250D01*
X0182650Y0159250D02*
X0182650Y0159700D01*
X0162400Y0179950D01*
X0175450Y0171400D02*
X0175450Y0193000D01*
X0153850Y0197500D02*
X0153850Y0233500D01*
X0149350Y0238000D01*
X0057100Y0238000D01*
X0053500Y0234400D02*
X0041800Y0222700D01*
X0041800Y0181300D01*
X0047200Y0183550D02*
X0047200Y0212350D01*
X0056200Y0221350D01*
X0056200Y0224050D01*
X0056334Y0224287D01*
X0053500Y0234400D02*
X0109300Y0234400D01*
X0123250Y0220450D01*
X0113800Y0212800D02*
X0113800Y0179950D01*
X0106150Y0172300D01*
X0106150Y0167800D01*
X0105743Y0167554D01*
X0105700Y0167350D01*
X0105700Y0164650D01*
X0075550Y0134500D01*
X0075550Y0076450D01*
X0077800Y0074200D01*
X0079600Y0074200D01*
X0083200Y0070600D01*
X0085450Y0070600D01*
X0085822Y0070468D01*
X0103450Y0079600D02*
X0103450Y0125950D01*
X0095350Y0134050D01*
X0091750Y0142600D02*
X0089050Y0142600D01*
X0083200Y0136750D01*
X0073750Y0135400D02*
X0091300Y0152950D01*
X0091300Y0159250D01*
X0095350Y0163300D01*
X0095350Y0167350D01*
X0095743Y0167554D01*
X0095800Y0167800D01*
X0095800Y0170500D01*
X0112000Y0186700D01*
X0112000Y0189400D01*
X0110650Y0190750D01*
X0110650Y0196150D01*
X0112000Y0197500D01*
X0112000Y0204700D01*
X0096700Y0220000D01*
X0096700Y0224050D01*
X0096334Y0224287D01*
X0106334Y0224287D02*
X0106600Y0224050D01*
X0106600Y0220000D01*
X0113800Y0212800D01*
X0138100Y0197500D02*
X0138550Y0197500D01*
X0141250Y0200200D01*
X0143950Y0200200D01*
X0144050Y0200468D01*
X0138100Y0197500D02*
X0123700Y0183100D01*
X0123700Y0141700D01*
X0134050Y0147550D02*
X0137650Y0143950D01*
X0139000Y0143950D01*
X0139450Y0144400D01*
X0148450Y0144400D01*
X0149350Y0143500D01*
X0149800Y0143500D01*
X0151600Y0145300D01*
X0163300Y0145300D01*
X0176800Y0131800D01*
X0177250Y0128200D02*
X0175450Y0128200D01*
X0170500Y0133150D01*
X0155200Y0133150D01*
X0148000Y0140350D01*
X0144400Y0140350D01*
X0144050Y0140468D01*
X0134050Y0147550D02*
X0134050Y0188500D01*
X0135850Y0190300D01*
X0144050Y0190468D02*
X0144400Y0190750D01*
X0147100Y0190750D01*
X0153850Y0197500D01*
X0148000Y0170500D02*
X0144400Y0170500D01*
X0144050Y0170468D01*
X0148000Y0170500D02*
X0194350Y0216850D01*
X0194350Y0233500D01*
X0209200Y0248350D01*
X0262300Y0248350D01*
X0262300Y0207850D01*
X0265450Y0204700D01*
X0267250Y0200650D02*
X0269500Y0200650D01*
X0269759Y0201019D01*
X0269950Y0201100D01*
X0271750Y0201100D01*
X0272650Y0202000D01*
X0274900Y0202000D01*
X0278050Y0205150D01*
X0281650Y0205150D01*
X0283000Y0203800D01*
X0283450Y0203800D01*
X0293800Y0193450D01*
X0336550Y0193450D01*
X0355450Y0212350D01*
X0356350Y0212350D01*
X0356452Y0212479D01*
X0358150Y0206050D02*
X0354550Y0206050D01*
X0351400Y0202900D01*
X0349600Y0202900D01*
X0346450Y0199750D01*
X0345550Y0199750D01*
X0337450Y0191650D01*
X0291550Y0191650D01*
X0282100Y0201100D01*
X0279850Y0201100D01*
X0279759Y0201019D01*
X0278050Y0195250D02*
X0275800Y0193000D01*
X0274000Y0193000D01*
X0271750Y0195250D01*
X0268150Y0195250D01*
X0264550Y0191650D01*
X0263650Y0191650D01*
X0257350Y0185350D01*
X0252400Y0185800D02*
X0267250Y0200650D01*
X0278050Y0195250D02*
X0281650Y0195250D01*
X0283000Y0193900D01*
X0283450Y0193900D01*
X0287500Y0189850D01*
X0338350Y0189850D01*
X0346450Y0197950D01*
X0349600Y0197950D01*
X0353200Y0201550D01*
X0356350Y0201550D01*
X0356452Y0201579D01*
X0359950Y0204250D02*
X0358150Y0206050D01*
X0359950Y0204250D02*
X0363100Y0204250D01*
X0364900Y0202450D01*
X0366700Y0202450D01*
X0381550Y0187600D01*
X0366452Y0185279D02*
X0366250Y0185350D01*
X0365350Y0185350D01*
X0360850Y0189850D01*
X0360850Y0192550D01*
X0358150Y0195250D01*
X0354100Y0195250D01*
X0353200Y0194350D01*
X0352750Y0194350D01*
X0350950Y0196150D01*
X0347350Y0196150D01*
X0337000Y0185800D01*
X0295150Y0185800D01*
X0283000Y0173650D01*
X0281200Y0175450D01*
X0277600Y0175450D01*
X0273100Y0170950D01*
X0269950Y0170950D01*
X0269759Y0171019D01*
X0269500Y0171400D01*
X0267250Y0171400D01*
X0255550Y0159700D01*
X0215500Y0159700D01*
X0212800Y0157000D01*
X0210550Y0157000D01*
X0210100Y0157450D01*
X0209200Y0157450D01*
X0208300Y0156550D01*
X0199750Y0156550D01*
X0199300Y0157000D01*
X0197500Y0157000D01*
X0196150Y0155650D01*
X0154300Y0155650D01*
X0150700Y0152050D01*
X0149800Y0152050D01*
X0148450Y0150700D01*
X0144400Y0150700D01*
X0144050Y0150468D01*
X0162850Y0150700D02*
X0190750Y0122800D01*
X0190750Y0119650D01*
X0194350Y0121900D02*
X0194350Y0113800D01*
X0197500Y0110650D01*
X0197500Y0108850D01*
X0200200Y0106150D01*
X0207850Y0106150D01*
X0209200Y0107500D01*
X0210100Y0107500D01*
X0234850Y0082750D01*
X0238000Y0082750D01*
X0228100Y0079150D02*
X0304600Y0079150D01*
X0313600Y0088150D01*
X0350950Y0088150D01*
X0355450Y0092650D01*
X0356350Y0092650D01*
X0356452Y0092979D01*
X0349600Y0097600D02*
X0355450Y0103450D01*
X0356350Y0103450D01*
X0356452Y0103779D01*
X0349600Y0097600D02*
X0320350Y0097600D01*
X0303700Y0080950D01*
X0266350Y0080950D01*
X0264550Y0082750D01*
X0260050Y0085000D02*
X0251050Y0085000D01*
X0220450Y0115600D01*
X0220450Y0116950D01*
X0218650Y0112450D02*
X0231250Y0099850D01*
X0219550Y0093100D02*
X0227200Y0085450D01*
X0227200Y0085000D01*
X0221350Y0080950D02*
X0213700Y0088600D01*
X0213700Y0089050D01*
X0208300Y0094450D01*
X0199750Y0094450D01*
X0199300Y0094000D01*
X0197500Y0094000D01*
X0194800Y0096700D01*
X0194800Y0097600D01*
X0190750Y0101650D01*
X0194350Y0101650D02*
X0199750Y0096250D01*
X0208300Y0096250D01*
X0209200Y0097150D01*
X0210100Y0097150D01*
X0228100Y0079150D01*
X0214150Y0080950D02*
X0214150Y0083200D01*
X0210100Y0087250D01*
X0209200Y0087250D01*
X0208300Y0086350D01*
X0199750Y0086350D01*
X0191200Y0094900D01*
X0191200Y0096250D01*
X0181750Y0089950D02*
X0201100Y0070600D01*
X0203800Y0070600D01*
X0204050Y0070468D01*
X0204250Y0070600D01*
X0206950Y0070600D01*
X0211900Y0075550D01*
X0262750Y0075550D01*
X0278500Y0059800D01*
X0278500Y0054400D01*
X0278657Y0054365D01*
X0268657Y0054365D02*
X0268600Y0054400D01*
X0268150Y0054850D01*
X0212350Y0054850D01*
X0208300Y0050800D01*
X0204250Y0050800D01*
X0204050Y0050468D01*
X0200200Y0056200D02*
X0208300Y0056200D01*
X0209200Y0057100D01*
X0210550Y0057100D01*
X0211000Y0056650D01*
X0254650Y0056650D01*
X0263200Y0065200D01*
X0268150Y0065200D02*
X0261400Y0071950D01*
X0248800Y0071950D01*
X0233050Y0051250D02*
X0215050Y0033250D01*
X0200650Y0033250D01*
X0194350Y0039550D01*
X0194350Y0044050D01*
X0190300Y0048100D01*
X0189400Y0048100D01*
X0157450Y0080050D01*
X0157450Y0082300D01*
X0150700Y0089050D01*
X0149800Y0089050D01*
X0148450Y0090400D01*
X0144400Y0090400D01*
X0144050Y0090468D01*
X0148000Y0100300D02*
X0154750Y0093550D01*
X0180850Y0093550D01*
X0195700Y0078700D01*
X0197050Y0078700D01*
X0198400Y0077350D01*
X0198850Y0077350D01*
X0199750Y0076450D01*
X0208300Y0076450D01*
X0209200Y0077350D01*
X0305500Y0077350D01*
X0312700Y0084550D01*
X0325300Y0084550D01*
X0309100Y0076000D02*
X0309100Y0071050D01*
X0260050Y0022000D01*
X0206500Y0022000D01*
X0148450Y0080050D01*
X0144400Y0080050D01*
X0144050Y0080468D01*
X0141250Y0070600D02*
X0134050Y0077800D01*
X0134050Y0102550D01*
X0137650Y0103900D02*
X0139000Y0103900D01*
X0139900Y0104800D01*
X0148000Y0104800D01*
X0148900Y0103900D01*
X0150250Y0103900D01*
X0151600Y0105250D01*
X0160600Y0105250D01*
X0168700Y0097150D01*
X0168250Y0089950D02*
X0192550Y0065650D01*
X0196150Y0065650D01*
X0197500Y0067000D01*
X0199300Y0067000D01*
X0199750Y0066550D01*
X0208300Y0066550D01*
X0209200Y0067450D01*
X0210100Y0067450D01*
X0212350Y0065200D01*
X0200200Y0056200D02*
X0199300Y0057100D01*
X0197950Y0057100D01*
X0192550Y0051700D01*
X0190750Y0051700D01*
X0188950Y0044500D02*
X0188950Y0042250D01*
X0205600Y0025600D01*
X0258700Y0025600D01*
X0262750Y0029650D02*
X0269950Y0036850D01*
X0262750Y0029650D02*
X0211450Y0029650D01*
X0178150Y0020200D02*
X0263650Y0020200D01*
X0269050Y0014800D01*
X0269050Y0012550D01*
X0269208Y0012436D01*
X0278950Y0023800D02*
X0288850Y0013900D01*
X0288850Y0012550D01*
X0289208Y0012436D01*
X0299208Y0012436D02*
X0299650Y0012550D01*
X0299650Y0015250D01*
X0302800Y0018400D01*
X0302800Y0028750D01*
X0312700Y0038650D01*
X0317200Y0038650D01*
X0331150Y0052600D01*
X0321700Y0035050D02*
X0353200Y0066550D01*
X0328000Y0036400D02*
X0328000Y0023800D01*
X0320800Y0016600D01*
X0320800Y0016150D01*
X0319450Y0014800D01*
X0319450Y0012550D01*
X0319208Y0012436D01*
X0321700Y0035050D02*
X0314050Y0035050D01*
X0286600Y0084550D02*
X0287500Y0085450D01*
X0287500Y0092200D01*
X0283000Y0096700D01*
X0280300Y0096700D01*
X0278500Y0098500D01*
X0262300Y0114250D02*
X0266350Y0118300D01*
X0268150Y0116500D01*
X0271750Y0116500D01*
X0272200Y0116950D01*
X0273100Y0116950D01*
X0273550Y0116500D01*
X0274000Y0116500D01*
X0278500Y0121000D01*
X0279400Y0121000D01*
X0279759Y0121019D01*
X0281200Y0126400D02*
X0274450Y0126400D01*
X0273550Y0125500D01*
X0268150Y0125500D01*
X0266350Y0123700D01*
X0264100Y0125950D01*
X0258250Y0125950D01*
X0255100Y0122800D01*
X0255100Y0117850D02*
X0242050Y0130900D01*
X0242050Y0131800D01*
X0234850Y0130450D02*
X0234850Y0125950D01*
X0242950Y0117850D01*
X0240250Y0115600D02*
X0241600Y0114250D01*
X0262300Y0114250D01*
X0240250Y0115600D02*
X0225400Y0115600D01*
X0218650Y0112450D02*
X0215950Y0112450D01*
X0210550Y0112000D02*
X0233950Y0135400D01*
X0264100Y0135400D01*
X0265900Y0133600D01*
X0266350Y0133600D01*
X0268150Y0135400D01*
X0271300Y0135400D01*
X0274900Y0131800D01*
X0276250Y0131800D01*
X0277150Y0130900D01*
X0279400Y0130900D01*
X0279759Y0131019D01*
X0281200Y0126400D02*
X0285250Y0130450D01*
X0285700Y0130450D01*
X0287500Y0132250D01*
X0287500Y0134050D01*
X0280750Y0140800D01*
X0279850Y0140800D01*
X0279759Y0141019D01*
X0286600Y0146650D02*
X0282100Y0151150D01*
X0279850Y0151150D01*
X0279759Y0151019D01*
X0279400Y0151150D01*
X0277150Y0151150D01*
X0276250Y0150250D01*
X0274900Y0150250D01*
X0271300Y0146650D01*
X0268150Y0146650D01*
X0266800Y0148000D01*
X0265900Y0148000D01*
X0264100Y0146200D01*
X0223600Y0146200D01*
X0208300Y0130900D01*
X0204250Y0130900D01*
X0204050Y0130468D01*
X0208300Y0126400D02*
X0199750Y0126400D01*
X0194350Y0131800D01*
X0194350Y0140800D01*
X0184450Y0150700D01*
X0188050Y0142150D02*
X0188050Y0128200D01*
X0194350Y0121900D01*
X0208300Y0126400D02*
X0209200Y0127300D01*
X0210100Y0127300D01*
X0215500Y0121900D01*
X0210550Y0112000D02*
X0210100Y0112000D01*
X0208750Y0110650D01*
X0204250Y0110650D01*
X0204050Y0110468D01*
X0194350Y0111100D02*
X0194350Y0101650D01*
X0194350Y0111100D02*
X0177250Y0128200D01*
X0165100Y0120100D02*
X0158800Y0126400D01*
X0130450Y0112000D02*
X0125950Y0107500D01*
X0125950Y0056650D01*
X0120100Y0050800D01*
X0116050Y0050800D01*
X0115822Y0050468D01*
X0112900Y0060250D02*
X0103450Y0050800D01*
X0103450Y0047200D01*
X0095800Y0039550D01*
X0095800Y0037300D01*
X0078700Y0020200D01*
X0064750Y0020200D01*
X0059350Y0014800D01*
X0059350Y0012550D01*
X0059208Y0012436D01*
X0069208Y0012436D02*
X0069250Y0012550D01*
X0072400Y0015700D01*
X0072400Y0016600D01*
X0074200Y0018400D01*
X0079600Y0018400D01*
X0099400Y0038200D01*
X0085822Y0050468D02*
X0085450Y0050800D01*
X0082750Y0050800D01*
X0073750Y0059800D01*
X0073750Y0135400D01*
X0076000Y0143050D02*
X0056200Y0162850D01*
X0056200Y0167350D01*
X0055743Y0167554D01*
X0055750Y0167800D01*
X0055750Y0175000D01*
X0047200Y0183550D01*
X0049000Y0188500D02*
X0059800Y0177700D01*
X0068350Y0177700D01*
X0075550Y0170500D01*
X0075550Y0167800D01*
X0075743Y0167554D01*
X0076000Y0167350D01*
X0076000Y0163300D01*
X0076900Y0162400D01*
X0076900Y0161500D01*
X0081400Y0157000D01*
X0081400Y0148000D01*
X0076450Y0148000D02*
X0076450Y0152950D01*
X0066100Y0163300D01*
X0066100Y0167350D01*
X0065743Y0167554D01*
X0049000Y0188500D02*
X0049000Y0200200D01*
X0053050Y0204250D01*
X0060250Y0204250D01*
X0076000Y0220000D01*
X0076000Y0224050D01*
X0076334Y0224287D01*
X0115743Y0167554D02*
X0115600Y0167350D01*
X0115600Y0162850D01*
X0113800Y0161050D01*
X0113800Y0160600D01*
X0104800Y0151600D01*
X0102550Y0151600D01*
X0098500Y0147550D01*
X0130450Y0107050D02*
X0134500Y0107050D01*
X0137650Y0103900D01*
X0144050Y0100468D02*
X0144400Y0100300D01*
X0148000Y0100300D01*
X0161050Y0089950D02*
X0161050Y0081400D01*
X0173200Y0089950D02*
X0181750Y0089950D01*
X0144050Y0070468D02*
X0143950Y0070600D01*
X0141250Y0070600D01*
X0115822Y0070468D02*
X0115600Y0070600D01*
X0112450Y0070600D01*
X0103450Y0079600D01*
X0112900Y0060250D02*
X0115600Y0060250D01*
X0115822Y0060468D01*
X0144050Y0050468D02*
X0144400Y0050350D01*
X0146650Y0050350D01*
X0150250Y0046750D01*
X0151600Y0046750D01*
X0178150Y0020200D01*
X0129550Y0041350D02*
X0108400Y0020200D01*
X0086350Y0020200D01*
X0082300Y0016150D01*
X0082300Y0015700D01*
X0079150Y0012550D01*
X0079208Y0012436D01*
X0129550Y0041350D02*
X0129550Y0089950D01*
X0204050Y0140468D02*
X0204250Y0140800D01*
X0208300Y0140800D01*
X0223600Y0156100D01*
X0264100Y0156100D01*
X0266350Y0158350D01*
X0268150Y0156550D01*
X0271300Y0156550D01*
X0274900Y0160150D01*
X0276250Y0160150D01*
X0277150Y0161050D01*
X0279400Y0161050D01*
X0279759Y0161019D01*
X0278950Y0166900D02*
X0273100Y0161050D01*
X0269950Y0161050D01*
X0269759Y0161019D01*
X0266350Y0163750D02*
X0269050Y0166450D01*
X0271300Y0166450D01*
X0275350Y0170500D01*
X0276250Y0170500D01*
X0277150Y0171400D01*
X0279400Y0171400D01*
X0279759Y0171019D01*
X0278950Y0166900D02*
X0281650Y0166900D01*
X0283000Y0168250D01*
X0283450Y0168250D01*
X0295150Y0179950D01*
X0295150Y0180850D01*
X0300550Y0170050D02*
X0311350Y0180850D01*
X0319450Y0184000D02*
X0300550Y0165100D01*
X0298300Y0165100D01*
X0298300Y0155200D02*
X0293350Y0150250D01*
X0288400Y0150250D02*
X0320350Y0182200D01*
X0323050Y0182200D01*
X0324850Y0180400D01*
X0352750Y0180400D01*
X0353200Y0179950D01*
X0356350Y0179950D01*
X0356452Y0179879D01*
X0348250Y0184000D02*
X0319450Y0184000D01*
X0321700Y0178600D02*
X0321700Y0160150D01*
X0331150Y0164650D02*
X0313150Y0146650D01*
X0286600Y0146650D01*
X0269759Y0141019D02*
X0269500Y0141250D01*
X0267250Y0141250D01*
X0263200Y0137200D01*
X0230800Y0137200D01*
X0210100Y0152050D02*
X0208750Y0150700D01*
X0204250Y0150700D01*
X0204050Y0150468D01*
X0210100Y0152050D02*
X0210550Y0152050D01*
X0216400Y0157900D01*
X0260050Y0157900D01*
X0265900Y0163750D01*
X0266350Y0163750D01*
X0264100Y0176350D02*
X0265900Y0178150D01*
X0266800Y0178150D01*
X0268150Y0176800D01*
X0271750Y0176800D01*
X0275350Y0180400D01*
X0276250Y0180400D01*
X0277150Y0181300D01*
X0279400Y0181300D01*
X0279759Y0181019D01*
X0274900Y0190300D02*
X0269950Y0185350D01*
X0267700Y0185350D01*
X0262300Y0179950D01*
X0225850Y0179950D01*
X0219550Y0173650D01*
X0215050Y0173650D01*
X0211900Y0170500D01*
X0204250Y0170500D01*
X0204050Y0170468D01*
X0210550Y0162400D02*
X0211000Y0162400D01*
X0224950Y0176350D01*
X0264100Y0176350D01*
X0258700Y0181750D02*
X0267700Y0190750D01*
X0269500Y0190750D01*
X0269759Y0191019D01*
X0274900Y0190300D02*
X0276250Y0190300D01*
X0277150Y0191200D01*
X0279400Y0191200D01*
X0279759Y0191019D01*
X0295150Y0197050D02*
X0295150Y0226300D01*
X0278500Y0242950D01*
X0275350Y0242950D01*
X0274000Y0246550D02*
X0328450Y0246550D01*
X0349600Y0225400D01*
X0364000Y0215950D02*
X0364000Y0212350D01*
X0366700Y0209650D01*
X0366700Y0207400D01*
X0366452Y0207079D01*
X0364000Y0215950D02*
X0331600Y0248350D01*
X0262300Y0248350D01*
X0270400Y0242950D02*
X0274000Y0246550D01*
X0273100Y0238450D02*
X0276700Y0238450D01*
X0277150Y0238900D01*
X0279850Y0238900D01*
X0287500Y0231250D01*
X0287500Y0217300D01*
X0281650Y0211450D01*
X0279850Y0211450D01*
X0279759Y0211019D01*
X0298750Y0203350D02*
X0314950Y0219550D01*
X0348250Y0184000D02*
X0355000Y0190750D01*
X0356350Y0190750D01*
X0356452Y0190779D01*
X0331150Y0166450D02*
X0331150Y0164650D01*
X0331150Y0153400D02*
X0350950Y0153400D01*
X0355450Y0157900D01*
X0356350Y0157900D01*
X0356452Y0158179D01*
X0350050Y0151600D02*
X0339250Y0151600D01*
X0337450Y0149800D01*
X0350050Y0151600D02*
X0354100Y0147550D01*
X0356350Y0147550D01*
X0356452Y0147279D01*
X0356452Y0114679D02*
X0356350Y0114250D01*
X0355000Y0114250D01*
X0341950Y0101200D01*
X0242050Y0163300D02*
X0233500Y0171850D01*
X0229900Y0168250D02*
X0234850Y0163300D01*
X0218650Y0175450D02*
X0224950Y0181750D01*
X0258700Y0181750D01*
X0218200Y0210100D02*
X0207850Y0220450D01*
X0204250Y0220450D01*
X0204050Y0220468D01*
X0210550Y0162400D02*
X0208750Y0160600D01*
X0204250Y0160600D01*
X0204050Y0160468D01*
X0162850Y0152050D02*
X0162850Y0150700D01*
X0029720Y0100507D02*
X0029650Y0100300D01*
X0026950Y0100300D01*
D20*
X0083200Y0136750D03*
X0076000Y0143050D03*
X0076450Y0148000D03*
X0081400Y0148000D03*
X0091750Y0142600D03*
X0098500Y0147550D03*
X0095350Y0134050D03*
X0123700Y0141700D03*
X0158800Y0126400D03*
X0165100Y0120100D03*
X0176800Y0131800D03*
X0188050Y0142150D03*
X0184450Y0150700D03*
X0182650Y0159250D03*
X0187600Y0159250D03*
X0188950Y0175450D03*
X0162400Y0179950D03*
X0175450Y0193000D03*
X0190750Y0208300D03*
X0185800Y0213250D03*
X0218200Y0179950D03*
X0233500Y0171850D03*
X0229900Y0168250D03*
X0234850Y0163300D03*
X0242050Y0163300D03*
X0252400Y0185800D03*
X0257350Y0185350D03*
X0265450Y0204700D03*
X0295150Y0197050D03*
X0298750Y0203350D03*
X0314950Y0219550D03*
X0349600Y0225400D03*
X0381550Y0187600D03*
X0331150Y0166450D03*
X0321700Y0160150D03*
X0331150Y0153400D03*
X0337450Y0149800D03*
X0298300Y0155200D03*
X0293350Y0150250D03*
X0288400Y0150250D03*
X0298300Y0165100D03*
X0300550Y0170050D03*
X0295150Y0180850D03*
X0311350Y0180850D03*
X0321700Y0178600D03*
X0242050Y0131800D03*
X0234850Y0130450D03*
X0230800Y0137200D03*
X0215500Y0121900D03*
X0220450Y0116950D03*
X0225400Y0115600D03*
X0215950Y0112450D03*
X0231250Y0099850D03*
X0219550Y0093100D03*
X0227200Y0085000D03*
X0221350Y0080950D03*
X0214150Y0080950D03*
X0191200Y0096250D03*
X0190750Y0101650D03*
X0173200Y0089950D03*
X0168250Y0089950D03*
X0161050Y0089950D03*
X0161050Y0081400D03*
X0168700Y0097150D03*
X0190750Y0119650D03*
X0242950Y0117850D03*
X0255100Y0117850D03*
X0255100Y0122800D03*
X0278500Y0098500D03*
X0286600Y0084550D03*
X0264550Y0082750D03*
X0260050Y0085000D03*
X0248800Y0071950D03*
X0263200Y0065200D03*
X0268150Y0065200D03*
X0238000Y0082750D03*
X0212350Y0065200D03*
X0233050Y0051250D03*
X0211450Y0029650D03*
X0188950Y0044500D03*
X0190750Y0051700D03*
X0129550Y0089950D03*
X0134050Y0102550D03*
X0130450Y0107050D03*
X0130450Y0112000D03*
X0162850Y0152050D03*
X0135850Y0190300D03*
X0123250Y0220450D03*
X0057100Y0238000D03*
X0041800Y0181300D03*
X0270400Y0242950D03*
X0275350Y0242950D03*
X0273100Y0238450D03*
X0341950Y0101200D03*
X0325300Y0084550D03*
X0309100Y0076000D03*
X0331150Y0052600D03*
X0353200Y0066550D03*
X0328000Y0036400D03*
X0314050Y0035050D03*
X0278950Y0023800D03*
X0269950Y0036850D03*
X0258700Y0025600D03*
X0099400Y0038200D03*
X0080950Y0027400D03*
X0077350Y0023800D03*
M02*
